<svg id="a8c18a5f-f832-42ca-aa4e-286702790426" xmlns="http://www.w3.org/2000/svg" viewBox="0 0 1700 516.42">
  <g id="af72e52b-d8e7-4ff6-bb06-bf88f258035c">
    <g>
      <g>
        <g style="opacity: 0.8999999761581421">
          <g style="opacity: 0.8999999761581421">
            <path d="M1163.83,418.44c2.54,1.82,17.77,1.56,33.83-.72l3-.42,3-.53,5.94-1.08c3.91-.79,7.64-1.71,11-2.48,7-1.84,12.13-3.54,14.14-4,2.21-.57,4.72-1.35,7.44-2.34s5.62-2.14,8.82-3.59a170.17,170.17,0,0,0,20.54-11.11l2.7-1.73.66-.42.43-.25.85-.51c.56-.34,1.18-.69,1.8-1s1.23-.71,1.91-1.07c2.59-1.45,5.49-2.94,8.51-4.44,6-3,12.68-6,19.28-8.91C1321,368.11,1334.14,363,1344,359.4s16.32-5.47,16.65-4.61c.27,2.61,8.34,8.42,17.68,14.12s20,11.27,25.4,11.32a148.13,148.13,0,0,0,38.1-4.17,115.86,115.86,0,0,0,32.67-13.52c9.75-5.33,10.62-8.78,15.69-8.13,2,0,4.82-12.68,17.66-20.91,4.46-2.63,10-3.87,15.39-5.19s10.69-2.7,14.65-5.79c8-4.66,25.5-10.45,43.43-15.86s36.23-10.44,45.6-13.77c17.84-6.33,31.44-10.4,44.24-12.32s24.81-1.67,39.47.79c11.06,2.72,20.91,2.89,30.79,2.62s19.78-.93,30.74.57c11.47,1.07,21.2,1.31,30.89,1.69a202.75,202.75,0,0,1,30.31,3c10.24,3.64,19.8,6.94,29.14,9.95,4.68,1.49,9.29,2.93,13.87,4.3s9.15,2.69,13.63,4a26.53,26.53,0,0,0,3.78-.2,8.26,8.26,0,0,0,3.52-1.3c1.09-.73,2.73-.51,4.26-.06l2.29.72a9.15,9.15,0,0,0,2.14.38c6.21,4.41,10.71,11.19,14.19,18,1.75,3.42,3.26,6.88,4.61,10.16s2.5,6.42,3.56,9.12a4.47,4.47,0,0,0,2.74,3,2.4,2.4,0,0,0,1.86-.36,6.15,6.15,0,0,0,.52-.37,6.89,6.89,0,0,0,.65-.54,4.6,4.6,0,0,0,1-1.4c1.88-2.94,3.75-5.94,5.5-9s3.44-6.23,4.92-9.45,2.89-6.51,4.17-9.88c.59-1.67,1.15-3.36,1.7-5.07s1-3.41,1.44-5.15a86.2,86.2,0,0,0,2-10.44c.26-1.77.38-3.48.51-5.24s.21-3.55.26-5.34a75.83,75.83,0,0,0-.47-10.55,77.12,77.12,0,0,0-1.79-10.14,38.75,38.75,0,0,0-3.22-8.6,47.67,47.67,0,0,0-4.81-7.27c-.45-.58-.91-1.15-1.37-1.71s-1-1-1.5-1.54a41.85,41.85,0,0,0-3.2-2.9,61.08,61.08,0,0,0-7.11-5.06c-2.5-1.51-5.16-3-7.92-4.44a86.42,86.42,0,0,0-8.42-3.66c-5.68-2.27-11.47-4.24-17.25-6.26a81.37,81.37,0,0,1-21.62-11,113.32,113.32,0,0,1-18-16.08c-11-12-20.22-26.12-28.1-39.64-5.39-10.55-10.21-23.93-17.49-34s-17.07-16.67-31.56-13.77a182.24,182.24,0,0,0-24.52,8.08c-7.92,3.13-15.63,6.47-23.29,9.46-15.33,6-30.45,10.45-46.87,9.58-22.94-1.92-41.45-3.51-64.23,0-3.25-.31-16.22.53-20.53,1.49-12.42,4.88-26.08,8.2-38.46,13s-23.47,11-30.72,20.87c-13.11,6.88-23.32,10.08-32.71,13.77s-18,7.79-27.63,16c-12.21,10.77-24.31,21.58-37.13,31.32a225.07,225.07,0,0,1-41.56,25.52,390.82,390.82,0,0,1-50.58,20.14c-3,1.09-10.55,1.65-18.24,2.28L1306,281.54c-13.73,1.22-30.61,14.62-41.2,25.19-4,4.43-8.13,8.8-12.35,13.29s-8.55,9.09-13.06,14.09l-1.71,1.93-.85,1a8.22,8.22,0,0,0-.76.9c-.7,1-1.42,2-2.15,2.93q-2.22,2.91-4.68,5.74a115.36,115.36,0,0,1-11,11,50.43,50.43,0,0,1-9.49,5.43l-4.93,2.21-2.54,1.14c-.91.39-1.82.81-2.75,1.26s-2.14,1.18-3.19,1.78-2.13,1.11-3.17,1.68l-3.09,1.68-1.52.85-1.55.78-6,3.17-6,3a175,175,0,0,1-25,10.21c-17.08,4.55-29.72,7-38.78,8.75l-18,3.43c-6.84,1.35-5.14,1.51-6.62,1.53-7.23.66-10.23-.85-19.26-.33-12.23.88-24.26,2.49-32.25,3.55a376.76,376.76,0,0,1-39,2.83c-7,.17-14.2.18-21.53.13s-14.79-.16-22.32-.07c1.81,0,2.5.06,4.55.05,21.11.18,40.07,1.43,59.42,2.63s39.09,2.61,61.72,2.35c4.35-.31,9.85-.79,15.12-1.06,9.42-.24,17.92-.91,26.38-1.7a102,102,0,0,1,12.61-.06c2.29.1,4.63.27,7,.5s4.65.43,6.89.73C1153.74,415.09,1161.6,416.86,1163.83,418.44Z" style="fill: #feecf2"/>
            <path d="M1897.74,223.3c5.76,2,11.53,4,17.2,6.2l4.22,1.74q2.11.93,4.17,1.89c2.75,1.38,5.42,2.91,7.92,4.41,10,6.05,18.08,14.58,21.25,26.91.39,1.65.78,3.27,1.09,5s.55,3.41.75,5.12.36,3.43.45,5.19.12,3.52.08,5.31l-.1,2.69a22.6,22.6,0,0,1-.1,2.6c-.14,1.76-.25,3.47-.47,5.22s-.47,3.48-.79,5.22-.7,3.47-1.1,5.19a108.84,108.84,0,0,1-7.19,20.09,153.9,153.9,0,0,1-10.35,18.46c-1.53,2.35-2.91,3-4.06,2.71a4.53,4.53,0,0,1-2.8-3c-1.13-2.65-2.3-5.76-3.69-9s-2.91-6.67-4.66-10.07c-3.51-6.77-8-13.5-14.21-17.87a9,9,0,0,1-2.12-.4l-2.27-.71c-1.57-.43-3.15-.67-4.26.08a8.4,8.4,0,0,1-3.51,1.3,25.15,25.15,0,0,1-3.78.22c-9-2.57-18.2-5.27-27.53-8.27s-18.88-6.31-29.12-9.92a202.61,202.61,0,0,0-30.3-3c-9.69-.37-19.41-.62-30.89-1.68-11-1.5-20.86-.82-30.72-.57s-19.73.09-30.81-2.64c-14.64-2.45-26.66-2.69-39.46-.78s-26.39,6-44.23,12.31c-9.36,3.32-27.67,8.32-45.58,13.74s-35.46,11.18-43.43,15.84c-4,3.07-9.25,4.46-14.65,5.78s-10.92,2.55-15.37,5.17c0,0-2.06-1.18-6.3-3.19s-10.69-4.84-19.46-8q40.37-19.29,81.58-40.85c27.5-14.37,55.31-29.52,83.72-45.38,40.45-6.52,81.23-11.82,122.68-14.92,20.73-1.54,41.64-2.49,62.88-2.49A443,443,0,0,1,1897.74,223.3Z" style="fill: #fbcedd;opacity: 0.8999999761581421;isolation: isolate"/>
            <path d="M1503.87,321.27s-4.53,2.26-11.26,5.15a232.54,232.54,0,0,1-24.55,9c-8.86,2.62-17.65,4.4-24.13,4s-10.66-3-10.31-9.48l2.08-3.11c1.35-2,3.33-4.88,5.85-8.42,5-7.08,12.26-16.85,20.92-27.46A298,298,0,0,1,1492,259.16c10.74-9.73,22.12-17.77,33.22-20.92l18.08-5.17c10.09-2.92,22.28-6.45,30.61-9.22a113.06,113.06,0,0,0,20.38,1.53c12.28-.11,28.69-1.74,45.58-9.41,0,0,8.55-3,21.68-7.18s30.87-9.66,49.23-14.52,37.35-9.08,52.56-11,26.55-1.62,29.17,2c0,0,3.79.22,9.72.81s14,1.57,22.66,3.12a180.8,180.8,0,0,1,25.63,6.38c7.9,2.68,14.55,5.89,18.19,9.27,0,0,1.27,2.17,3.57,5.45,1.15,1.64,2.55,3.57,4.17,5.63s3.47,4.32,5.49,6.55a81,81,0,0,0,14.28,12.84,41.36,41.36,0,0,0,18.5,7.31s1.12.88,3,2.47,4.42,4,7.16,6.76a89.49,89.49,0,0,1,8.44,9.9c.68.94,1.35,1.89,2,2.85s1.25,2,1.85,3,1.17,2,1.71,3.05,1.08,2,1.54,3.09a52.26,52.26,0,0,1,4,11.94,23.77,23.77,0,0,1,.19,9.32c-.54,2.34-1.67,3.78-3.51,4.06a4.78,4.78,0,0,1-1.51,0,10,10,0,0,1-1.86-.4c-.66-.22-1.4-.49-2.21-.82s-1.67-.75-2.64-1.2c0,0-1.23-.3-3.29-.65s-4.91-.76-8.09-1.07-6.68-.45-10-.59c-1.65,0-3.28-.1-4.7-.19s-2.75-.2-4-.33l-1.38-.66c-.91-.44-2.28-1-4-1.83-3.55-1.53-8.82-3.65-15.55-5.92s-14.89-4.67-23.94-7-19-4.45-29.14-6.37c-20.3-3.9-41.44-6.83-58.06-9.21s-28.75-4.31-31.19-6.52c0,0-2.83-.44-7.92-1s-12.42-1.14-21.43-1.44a375.5,375.5,0,0,0-69.06,4.14c-26.35,4-54.31,11.27-78.83,21.91S1516.65,304.42,1503.87,321.27Z" style="fill: #fcd8e4"/>
            <path d="M1502.83,329.35a89.44,89.44,0,0,1-7.33,5.52,114.8,114.8,0,0,1-18.47,10.4c-14.86,6.65-33.61,10.47-49.72,3,0,0-5.37-.67-13.1-1.72s-17.82-2.43-27.28-4-18.29-3.36-23.55-5.85-7-5.77-2.08-10.64l3.44-3.35c2.26-2.15,5.58-5.28,9.85-9.19,8.53-7.8,20.87-18.77,36-31.22A637,637,0,0,1,1463.2,243c19.55-12.9,40.77-24.8,62.34-32.1a28.88,28.88,0,0,0,6.61-3.39c4.27-2.74,10.46-7.51,18.24-16,0,0,2.8-1.64,7.39-4a178.36,178.36,0,0,1,18.1-7.92c14.25-5.26,31.6-9.08,43.24-2.73,0,0,15.67,2.3,34.56,4.21,9.44,1,19.7,1.78,29.23,1.84s18.34-.65,24.93-3a71.59,71.59,0,0,0,13.32,5.24c7.56,2.08,16.89,3.21,24.31-1.53,0,0-9.31,3.28-23.29,8s-32.59,11-51.55,17-38.32,11.5-54.16,14.89-28.2,4.64-33.19,1.68a67.47,67.47,0,0,0-11.28.35,127.5,127.5,0,0,0-29.1,6.68,170.35,170.35,0,0,0-39.26,20A213.88,213.88,0,0,0,1462,289.54a32.62,32.62,0,0,0-.92,6.15,31.34,31.34,0,0,0,1.92,13.25C1466.73,318.54,1476.92,327.9,1502.83,329.35Z" style="fill: #fde3ec"/>
            <path d="M1468.86,370.33c-7.73,5.17-15.34,11.36-24,15.52-4.84,1.76-12.81,1.72-18.66,2.93-7.84,1.17-16.84-.39-22.85-1.29-14.09-3.41-31.25-3.52-47.72-3.21s-32.19,1.11-44.17-.51a41,41,0,0,0-5.08.17,31.2,31.2,0,0,0-4.89.91c-.8.65-4,2.42-4.71,3.06-4.91,1.82-9.6,3.51-13.67,5.22-1,.42-2,.85-2.89,1.27l-1.32.62-.17.08h-.09l-.14.08-.56.34-1.13.67-9,5.28a104.93,104.93,0,0,1-15.09,7.59,135.29,135.29,0,0,1-15.83,5.26c-2.72.73-5.48,1.38-8.26,2-1.39.29-2.8.56-4.21.81l-2.11.36c-.7.11-1.36.18-2,.27-2.67.33-5.33.64-8,.93s-5.17.36-7.71.52c-11.26.8-24.44,1.81-36.19,1.9a64.6,64.6,0,0,1-12.34-.95c-3.34-.61-6.09-1.3-8.79-2.06a63.05,63.05,0,0,0-8.49-1.88,62.35,62.35,0,0,0-11.42-.67c-14.9,0-28.73,1-42.64,1.43a417.29,417.29,0,0,1-42.59-.52c-17.2-1.24-32.49-2.33-48.23-3.6-11.62-1-24.61-1.76-37.37-2.1-3-.11-10.26-.16-10-.12,1.38-.1,8.45-.17,12.78-.19,11.9-.14,17.8.37,25.54.86,9.81.55,22.59.73,34.92,1,5,.23,8.91.53,13.7,1a105.42,105.42,0,0,0,11.92.5c4.49,0,9.35-.2,14.15-.4,6-.31,12.07-.26,18.29-.13l9.39.15c3.14,0,6.3,0,9.45-.17,4.18-.22,8.19-.55,12-1s7.6-1,11.23-1.62c7.27-1.15,14.17-2.32,21.21-2.51-6,.06,6.75-1.46,19.35-3.47,6.31-1,12.57-2.13,16.5-2.74s5.48-.85,2.37.07c1.06-.52,5-.07,5.91.69-.1.63.83,1.39-.25,1.89-8.68,4.05-7.27,7.23-10,10.49.52.08,9.36-1,19.94-2.77s22.85-4.38,30.4-5.71c5.66-.78,11-1.53,16.55-2.76a80.92,80.92,0,0,0,17.78-6.05c3.1-1.91,3.67-4.36,6.67-6.38a64.86,64.86,0,0,0,5.61-4.14l1.59-1.3.78-.65.87-.7c1.18-1,2.58-2,4.12-3.17a286.1,286.1,0,0,1,25-16.2c19.47-11.39,41.07-22.26,46-22.81,6-.27,14.24,1.44,13.5,4.31.37,3.73,3.31,5.77,6.87,7.62s7.7,3.46,10.43,6.16c1.13,1.51-.64,3.91.49,5.42,4.33,3.86,11.67,8.22,18.61,8.34,12,1.45,25.94,1,35.74-1.62Q1452.38,371.27,1468.86,370.33Z" style="fill: #fef4f7"/>
            <path d="M1757.1,116.83s-3,1.79-8.3,4.24a168.2,168.2,0,0,1-21.6,8.24c-17.8,5.43-41.11,9.07-65.21,4,0,0-10-.26-20.89.25s-22.85,1.72-26.93,3.67h-12.91c-6.46,0-3.74,1-9.46,2.76s-13.42,4.36-21.35,7.52c-15.88,6.29-32.63,14.85-36.79,22.83,0,0-6.83,3.52-14.22,6.94s-15.34,6.77-17.72,6.45a70.63,70.63,0,0,0-14.23,6.58,139.36,139.36,0,0,0-31.9,26" style="fill: none"/>
            <path d="M1250.57,413.25c-2.67.87-7.91,2.49-14.76,4.22-3.43.87-7.27,1.75-11.39,2.56-1.05.22-2,.36-3,.52l-3,.46c-2,.3-4.07.65-6.09.89-16.25,2-31.92,2.11-38.64,1.6-10.66-.69-20.67-1.53-30.5-2.59-4.91-.46-9.78-1.09-14.65-1.58l-14.67-1.73a30.54,30.54,0,0,0-6.34.21c-3,.47-6.22.75-9.5.93s-6.64.17-10,.19c-6.69,0-13.3-.18-19.13,0-5.06.1-9.66.43-15.19.08-29-1.86-55.43-5.2-80-7-10.33-.76-19-1.39-29.17-1.2-1.81,0-5,.24-4.69.21-.45,0,4.26-.29,6.77-.33,3-.07,5.39-.06,9.33,0,7.16.13,16.13.36,22.51.76,7.14.41,12.75.95,20.65,1.54,5.33.36,10.06.68,15.53.94,19.64,1.16,38.89,2.12,58.5,2,7.76-1.2,19.73-.53,28.8-.78,2.78,0,5.41.22,8.8.26,2.08-.05,4.18-.15,6.26-.27l6.1-.42c2-.13,3.87-.2,5.63-.23a31.72,31.72,0,0,1,4.87.23,312.19,312.19,0,0,0,38.21,4.44,265.12,265.12,0,0,0,38-1.86c1-.1,2.07-.24,3.11-.41l3.12-.48c2.1-.34,4.12-.61,6.24-1,4.27-.82,8.28-1.75,11.92-2.68,7.29-1.87,13.07-3.72,16.39-4.91A136.2,136.2,0,0,0,1276,395.54l1.49-.9.37-.23.18-.11.12-.06.44-.22c.59-.29,1.12-.58,1.76-.88l1.86-.89,2-.88a70.92,70.92,0,0,1,8.81-3.12c.27-.08.11.51-.77,1.56a23.2,23.2,0,0,1-1.83,1.88c-.4.36-.84.74-1.34,1.14s-1,.81-1.58,1.24-1.19.87-1.84,1.32l-2.06,1.36c-.76.46-1.44.91-2.21,1.36l-.3.17H1281l-.14.09-.28.19-1.15.74c-.79.5-1.59,1-2.43,1.51-3.37,2-7.22,4.13-11.61,6.24-2.2,1-4.53,2.09-7,3.13S1253.25,412.31,1250.57,413.25Z" style="fill: #fffbfd"/>
          </g>
        </g>
        <g style="opacity: 0.8999999761581421">
          <g style="opacity: 0.8999999761581421">
            <path d="M1204.57,287.37c-1.87-1-9.56-3-20.26-5.31-5.35-1.16-11.45-2.44-17.94-3.76s-13.39-2.71-20.33-4l-20.6-3.9c-6.67-1.27-13-2.45-18.73-3.47-11.41-2.07-20.14-3.69-23.37-4.44-7.28-1.59-17-3.31-28.46-5.16s-24.6-3.88-38.78-5.72-29.35-3.86-44.82-5.52L948,243.54c-7.78-.81-15.55-1.49-23.21-2.2l-22.53-2-21.33-1.61-19.56-1.44c-6.16-.47-12-.75-17.26-1.09-10.61-.65-19.3-1.21-25.35-1.69s-9.47-.82-9.51-1.14c1.22-1.66-10.34-7.63-25-13.87-7.32-3.12-15.41-6.32-23.06-8.76a120.87,120.87,0,0,0-20.25-5.12l-10-1.26-5-.59-5-.48q-10-.93-19.87-1.61t-19.62-1.14q-9.76-.25-19.35-.28t-18.9.2c-6.22.09-12.37.54-18.4.93s-12,.92-17.77,1.5-11.48,1.14-17,2c-22,2.89-25,5.17-35,4.41-4-.15-14.81,8.5-43.15,13.92l-3.6.61q-1.8.28-3.66.54c-2.49.33-5,.62-7.63.88-5.18.57-10.54.86-15.85,1.19s-10.55.71-15.54,1.09a118,118,0,0,0-14,1.88c-4.14.56-9.43,1.11-15.59,1.65s-13.19.85-20.82,1.26c-15.26.56-32.9.88-50.66.46-35.55-.48-71.52-3.73-90.14-5.24-35.47-2.84-62-6.9-86.24-12.39a412.25,412.25,0,0,1-71.66-23.48c-19-8.76-36.62-15.75-54.27-23S27,153.13,8.41,142.93c-19.6-10.41-36.24-19.46-52.56-29A496.13,496.13,0,0,1-93.94,81c-15.82-13.44-30.45-26.7-44.78-40.47-1.82-1.7-3.54-3.48-5.33-5.22s-3.59-3.47-5.35-5.25l-5.28-5.35L-157.35,22-160,19.28l-5.31-5.51c-1.73-1.88-3.48-3.76-5.24-5.66l-2.65-2.86-2.6-2.92c-1.73-2-3.54-3.89-5.27-5.9-2-2-4.05-4-6-5.73a41.35,41.35,0,0,0-5.66-4.47,18.65,18.65,0,0,1-3.18-2.77c-1.17-1.22-2.35-2.72-3.58-4.25l-3.6-4.6c-1.11-1.5-2.15-2.87-3.06-3.94a162.5,162.5,0,0,1-11-22.3l-2.1-5.61c-.34-.93-.7-1.85-1-2.78l-.9-2.79-1.78-5.54-1.53-5.5-.77-2.72-.65-2.72-1.33-5.39c-.71-3.57-1.64-7.08-2.25-10.56l-.55-2.59-.3-1.29-.22-1.28q-.45-2.56-1-5.11c-.33-1.69-.58-3.36-1-5-.16-.83-.39-1.67-.53-2.5s-.29-1.66-.45-2.49a28.71,28.71,0,0,0-.69-2.88c-.3-1-.49-2-.82-3a57.14,57.14,0,0,0-2.12-5.55,11.82,11.82,0,0,0-2.51-3.84,4.83,4.83,0,0,0-.68-.51,2,2,0,0,0-.69-.35,1.43,1.43,0,0,0-1.38.36,46.17,46.17,0,0,0-12.49,12,42.51,42.51,0,0,0-2.63,4c-.78,1.42-1.52,2.81-2.27,4.31a48.19,48.19,0,0,0-2.12,4.67c-.6,1.61-1.2,3.28-1.76,5a83.52,83.52,0,0,0-2.73,10.9c-.41,1.93-.64,3.85-.88,5.83s-.45,4-.63,6.08-.18,4.13-.23,6.25-.11,4.31,0,6.45c.18,4.32.38,8.82,1,13.28.27,2.12.59,4.28,1,6.44s1,4.29,1.55,6.47a116.41,116.41,0,0,0,4.3,13.13c.83,2.21,1.83,4.35,2.81,6.54s2,4.42,3.14,6.56C-252-9-249.67-4.62-247-.36a282,282,0,0,0,17.8,25.48l5,6.21,2.52,3.12,2.59,3.06,5.23,6.16,5.36,6.07,7.31,8.27c2.39,2.71,4.64,5.49,6.92,8.12s4.45,5.31,6.56,8,4.23,5.18,6.24,7.78l5.9,7.66c1.91,2.52,3.75,5.07,5.56,7.57s3.58,4.93,5.28,7.39l5,7.28a499.27,499.27,0,0,1,31,53c2.61,5.78,4.76,11.82,7.27,18.06a112.65,112.65,0,0,0,9.64,18.88,83,83,0,0,0,17,18.79c1.87,1.53,3.86,3.06,6,4.57s4.43,2.94,6.87,4.39,5,2.89,7.75,4.31,5.68,2.72,8.77,4.06c29.19,12.07,58.23,20,87,27.77s57.26,15.39,86.7,25.91l7.59,2.81,7.45,2.63c4.94,1.71,9.76,3.48,14.57,5s9.57,3.11,14.3,4.66l14.24,4.26a569.39,569.39,0,0,0,60.35,14c3,.79,10.64,2.36,18.61,3.92s16.29,2.8,20.51,3.36c25.15,1.58,52.25,3.76,77.5,3.82s48.58-1.81,65.79-7.14c27.38-2.49,47.92-3.83,67.06-5.69,4.78-.53,9.46-1.08,14.14-1.68,2.34-.31,4.67-.6,7-1s4.68-.77,7-1.2,4.74-.86,7.14-1.33l3.62-.74c1.2-.25,2.5-.51,3.57-.77,4.5-1,9.14-2.18,14-3.5,49.19-14.09,100.46-25.62,160.71-28.54q12.84-.66,25.28-1.08c4.15-.17,8.28-.21,12.39-.24l12.3-.05c8.17,0,16.29.06,24.44.23s16.31.59,24.55,1c2.93.1,7.71.62,13.42,1.34s12.36,1.81,19,2.84L844,291.54c5.8.95,10.71,1.78,13.82,2.37,11.6,2.11,26.24,2.73,41,2.79s29.52-.33,41.4-.92c9.36-.58,18.77-1,28.33-1.33q7.19-.24,14.48-.37c4.87-.06,9.78-.07,14.77-.06,10,0,20.18.16,30.76.45s21.49.8,32.87,1.37c8.08.56,15.77,1.59,23.68,2.61s16,2.09,25,2.95c42.28,3.74,73.14,4.71,110.21,8.51,8.63,1,16.64,1.93,24.09,2.83l20.68,2.48,32.19,4c17.74,2.2,28.52,3.59,35.18,4.35,13.31,1.56,10.1.87,12.9,1.37,13.85,2.15,19.26,4.16,36.53,7,23.4,3.69,46.47,6.74,61.74,8.74,22.64,3,47.72,6.74,74.25,11.08l40.78,6.75c13.89,2.31,28,4.63,42.36,6.66-3.45-.46-4.74-.74-8.64-1.32-20-3.06-39-6.47-57.5-9.92s-36.58-7-54.8-10.59c-36.44-7.2-73.49-14.81-116-22.49-8.23-1.31-18.65-3-28.59-4.62L1310,311.82l-24.24-3.94c-13.84-2.36-32.51-6.38-48.49-10.52S1207.82,289.21,1204.57,287.37Z" style="fill: #feecf2"/>
            <path d="M-207.4,50.27c-1.79-2-3.59-4-5.37-6.06L-218,38.07c-3.52-4-6.81-8.26-10.12-12.36-1.66-2.06-3.2-4.2-4.78-6.29s-3.16-4.14-4.61-6.3c-3-4.27-5.87-8.45-8.47-12.8a172.43,172.43,0,0,1-13.36-26,107.6,107.6,0,0,1-6.93-25.95c-.25-2.25-.53-4.45-.69-6.67s-.24-4.43-.33-6.59c0-1.08-.07-2.15-.11-3.22s0-2.15,0-3.21c0-2.12.12-4.21.22-6.25s.37-4.09.59-6.07.46-3.91.83-5.83.78-3.77,1.21-5.59a51.31,51.31,0,0,1,1.46-5.3,64.45,64.45,0,0,1,8.7-18c.91-1.26,1.84-2.46,2.81-3.6a33.83,33.83,0,0,1,3-3.22,49.12,49.12,0,0,1,6.67-5.28c1.82-1.2,3.77,1,5.24,4.28a51.77,51.77,0,0,1,3.67,11.4c1.43,6.62,2.58,13.33,4.14,20.26l.51,2.61.63,2.62,1.17,5.31c1,3.54,1.69,7.17,2.81,10.8A209,209,0,0,0-216.34-51l2.4,5.59c.41.93.82,1.87,1.24,2.81s.91,1.84,1.37,2.77c.93,1.86,1.87,3.72,2.84,5.58s2.09,3.67,3.17,5.51c.92,1.06,1.93,2.45,3.08,3.93l3.61,4.6a34.49,34.49,0,0,0,6.77,7C-188.3-10.94-184.19-7-180.16-3l5.29,5.89c.88,1,1.73,2,2.62,2.91l2.66,2.85,5.25,5.65c1.78,1.85,3.55,3.68,5.3,5.51s3.52,3.63,5.3,5.41l5.29,5.36,5.35,5.23c1.78,1.74,3.53,3.51,5.35,5.2,14.35,13.74,29,27,44.8,40.38A500.58,500.58,0,0,0-43.12,114.2c16.32,9.54,32.95,18.58,52.57,29C28,153.37,45.69,160.8,63.31,168s35.24,14.16,54.29,22.9a414.1,414.1,0,0,0,71.67,23.41c24.2,5.48,50.78,9.49,86.23,12.31,18.61,1.5,54.57,4.7,90.11,5.16,4.44.05,8.87.21,13.26.17h13c4.27,0,8.46-.17,12.53-.25s8-.17,11.86-.39l11-.58c3.48-.19,6.78-.4,9.86-.69,6.16-.54,11.45-1.07,15.6-1.65,8.49-1.8,18.89-2.23,29.49-3l8-.5c2.65-.19,5.28-.45,7.87-.7s5.14-.55,7.61-.89,4.82-.7,7.32-1.13c0,0,3.67.81,11.33,2.23,3.83.7,8.66,1.56,14.51,2.53l9.55,1.54,5.37.84,5.75,1c-7.18.78-14.35,2-21.52,3l-21.46,3.2L506,238l-10.4,1.66c-3.47.59-7,1.05-10.43,1.56l-10.46,1.51q-41.91,5.84-84.51,8.91T304.4,255c-28.8.21-57.79-.49-86.92-2.3-19.34-3.62-38.57-7.91-57.68-12.68s-38.13-10-57-16A961.8,961.8,0,0,1-7.94,181.92a818.89,818.89,0,0,1-104.73-57c-16.77-10.85-33.16-22.42-49-34.81-2-1.52-4-3.12-5.91-4.7l-5.88-4.75c-3.89-3.21-7.71-6.51-11.57-9.78s-7.59-6.69-11.31-10.14l-5.56-5.2c-.92-.88-1.86-1.73-2.77-2.62Z" style="fill: #fbcedd;opacity: 0.8999999761581421;isolation: isolate"/>
            <path d="M515.37,230.6s9.65-1.49,23.94-3.34l11.51-1.44c4.08-.49,8.36-.82,12.78-1.22,8.83-.77,18.19-1.49,27.43-2,4.63-.32,9.22-.39,13.7-.51s8.86-.14,13-.14c8.37,0,16,.23,22.21.84,12.42,1.34,19.25,3.72,15.45,7.85l-20.59,6.26L612,243.93l-13.67,4.15c-4.77,1.44-9.73,3.09-14.85,4.69l-15.79,4.91-8.18,2.47c-2.75.82-5.52,1.64-8.31,2.55-11.16,3.55-22.63,7-34.11,10.23-2.84.8-5.85,1.6-8.79,2.38s-5.92,1.52-8.88,2.25c-5.93,1.51-11.86,2.67-17.75,3.8-2.94.55-5.87,1.09-8.79,1.54s-5.81.83-8.69,1.18c-5.76.69-11.42,1.27-16.95,1.45l-10.48.45c-3.25.17-7.13.25-11.46.37s-9.09.27-14.13.35c-20.13.4-44.47.08-61.19-.21,0,0-3.69-.79-10.29-2l-12-2.1c-4.64-.83-9.91-1.65-15.7-2.59s-12.1-1.94-18.84-2.94c-3.37-.54-6.85-1.06-10.42-1.56l-11-1.52c-7.5-1.06-15.36-2-23.45-2.95-4-.48-8.17-.86-12.33-1.31s-8.39-.84-12.66-1.18l-3.06-.36c-2-.24-4.91-.65-8.64-1.15s-8.27-1.07-13.47-1.87-11.09-1.67-17.51-2.73c-12.83-2.18-27.87-4.82-44-8.29-8.08-1.64-16.39-3.62-24.89-5.58L99,245.22c-4.31-1.05-8.62-2.22-12.94-3.4-8.65-2.28-17.28-4.84-25.84-7.36s-17-5.25-25.11-8.08S19,220.74,11.46,218c-3.77-1.41-7.46-2.89-11-4.3l-5.28-2.11L-9.9,209.4c-26.67-11.26-45.29-21.61-48.46-26.12l-4.31-2.45c-2.74-1.59-6.66-4-11.43-6.83-2.4-1.43-5-3.05-7.71-4.8l-8.67-5.54c-6-4-12.53-8.32-19.06-13.07a440.42,440.42,0,0,1-37.68-29.86c-1.4-1.24-2.77-2.44-4.08-3.66l-3.8-3.61c-2.45-2.37-4.76-4.6-6.83-6.77a115.59,115.59,0,0,1-9.61-11.24s-1.25-2.81-3.72-7.47c-1.23-2.33-2.77-5.12-4.54-8.35s-3.87-6.72-6.16-10.58c-4.59-7.71-10.24-16.43-16.75-25.57a280.06,280.06,0,0,0-22.64-27.74l-3.28-5.57c-1-1.73-2.16-3.92-3.48-6.34s-2.77-5.11-4.19-8.1c-.71-1.5-1.44-3-2.21-4.59S-240-12-240.75-13.72l-2.19-5.1c-.73-1.72-1.48-3.45-2.13-5.24A193.75,193.75,0,0,1-252-45.31a119.19,119.19,0,0,1-3.37-18.35,57.64,57.64,0,0,1-.15-6.7,22.86,22.86,0,0,1,.23-2.48,8.92,8.92,0,0,1,.53-1.85c1.8-4,5.08-.32,13.49,15.06,0,0,.33.54,1,1.49l2.83,4,2,2.8,2.37,3.15c1.67,2.22,3.43,4.7,5.49,7.2s4.05,5.2,6.32,7.8,4.39,5.32,6.69,7.86c4.44,5.15,8.9,9.93,12.39,13.89l2,2.69,2.43,3.24,1.55,2.06,1.82,2.29,4.27,5.35c1.55,2,3.35,4,5.2,6.22L-182,13.9l3.17,3.56c2.19,2.43,4.42,5,6.92,7.65,9.77,10.58,21.81,22.54,35.52,34.75s29.06,24.68,45.11,36.55,32.79,23.2,49,33.39,32,19.27,46,27c28,15.38,48.89,25.38,52.45,28.51L59.68,187l10.19,4.63c8.85,4,21.77,9.42,37.88,15.51s35.55,12.58,57.25,18.7,45.66,11.8,70.84,16.32a733.76,733.76,0,0,0,77.9,9.75,664.6,664.6,0,0,0,77.56,1,526.18,526.18,0,0,0,69.6-7.7c10.53-1.86,20.41-4.2,29.51-6.6,4.55-1.23,8.91-2.59,13-3.93S511.44,232,515.37,230.6Z" style="fill: #fcd8e4"/>
            <path d="M520.26,225.12s6.23-1.57,16.51-3.65c5.14-1,11.29-2.27,18.17-3.32s14.48-2,22.54-2.83,16.57-1.67,25.21-1.9,17.46-.38,26.13-.13a220.26,220.26,0,0,1,25.26,2,174.17,174.17,0,0,1,22.64,4.44l1.81.24c1.18.17,2.91.37,5.08.72l17.69,2.85,24.12,3.94c8.6,1.58,17.55,3.26,26.1,5,17.13,3.31,32.66,7.08,40.92,10.14s9.25,5.56-2.72,7.09l-8.37,1c-5.44.67-13.4,1.57-23.46,3l-36,4.84L700,261.8l-11.85,1.64-6.1.9-6.22,1-26,4.22c-4.46.74-9,1.4-13.58,2.22l-13.93,2.47-14.22,2.48L600.83,278c-2.42.4-4.84.82-7.27,1.3Q579,282.07,564,284.8l-7.5,1.35-7.5,1.49-15.11,3-15.2,2.84-7.91,1.41-8.1,1.39c-2.71.46-5.41.93-8.13,1.35l-8.15,1.16c-5.45.73-10.89,1.55-16.35,2.09s-10.92,1.15-16.37,1.66-10.91.79-16.34,1.11c0,0-1.17.05-3.47.27s-5.73.52-10.25,1.14-10.15,1.56-16.85,2.69-14.48,2.84-23.35,4.75l-4.14.33c-2.67.17-6.53.52-11.29.7s-10.42.43-16.71.61-13.18.08-20.41,0-14.76-.5-22.33-1c-3.78-.3-7.56-.64-11.31-1s-7.48-.8-11.12-1.36c-14.58-2.09-28-5.27-37.79-9.55l-18.6-5.11c-11.44-3.24-27.17-7.72-44.29-13.1-34.35-10.42-74-24.64-99.14-30.7,0,0-2.31-1.42-6.22-3.62-2-1.1-4.31-2.37-7-3.82s-5.6-3-8.78-4.64c-6.38-3.17-13.54-6.77-21-9.73-3.71-1.52-7.46-3-11.21-4.17-1.87-.6-3.74-1.15-5.6-1.63s-3.68-1-5.5-1.31c0,0,4.3,1.35,11.94,3.51s18.54,5.32,31.78,8.8L75,238.39c3.58.93,7.31,1.8,11.13,2.75,7.63,1.93,15.77,3.72,24.17,5.69,16.88,3.72,35,7.47,53.47,10.86S201,264,219,266.62l13.3,1.92,6.53.93,6.42.83L257.72,272l11.9,1.48c30.88,3.91,54.67,6.45,63,9.8,0,0,.49.1,1.44.24l4.18.6c3.67.49,9.06,1.2,16,1.85a460.91,460.91,0,0,0,57.45,1.43,506.11,506.11,0,0,0,81.19-9.8c7.36-1.54,14.86-3.28,22.35-5.08s14.83-3.69,22.38-5.72q5.67-1.53,11.39-3.14l5.74-1.64,5.77-1.55q11.57-3.14,23.28-6.65a22.38,22.38,0,0,0,4.2-4.05c1.91-2.44,3.43-5.68,1.83-9s-6.33-6.78-17-9.71a149.73,149.73,0,0,0-20.78-3.9C543.41,226.12,532.93,225.44,520.26,225.12Z" style="fill: #fde3ec"/>
            <path d="M604.75,199.31l27.44-4c2.34-.31,4.7-.67,7.06-.93l7.14-.75c4.79-.48,9.66-.89,14.61-1.2,5.39-.17,12.14.09,19.11.43s14.14,1,20.42,1.2c8.29.45,16.79,1.43,24.66,2.53s15.07,2.55,20.85,3.6c6.6,1.44,13.68,2.81,21.1,4.12s15.18,2.78,23.16,4.1,16.15,2.66,24.41,4l24.82,4.13,12.32,2.07c4.08.68,8.13,1.38,12.12,2.14,8,1.48,15.76,3,23.21,4.43,14.92,2.89,28.45,6.1,39.58,9.21,7.37,1.73,13,2.83,20.91,4,2.23,0,10.58.79,12.79.85l18,2.51c5.94.85,11.85,1.71,17.68,2.63,11.68,1.8,23.14,3.52,34.29,5,36.75,4.92,72.1,13.18,105.15,21.08,18.51,4.24,41.39,9,62,13.44a365,365,0,0,1,36.48,9.87,267.44,267.44,0,0,0,35.58,9c13.78,2.75,27.19,5.17,40.43,7.48l39.32,6.85c26.1,4.55,52.22,9.31,79.93,15,32.23,6.62,61,12.43,90.68,18.38,21.9,4.4,46.44,9,70.65,13,2.82.43,7.67,1.28,11.79,1.82l7.24,1L1599.62,365l-14.24-2.1c-22.59-3.44-33.73-5.67-48.35-8.44l-66-12.08c-9.48-1.82-16.78-3.32-25.77-5.25-12.42-2.73-31-5.9-49.19-8.93-11.26-1.84-22.79-4-34.47-6.24s-23.51-4.59-35.4-6.6c-31.55-5.57-58.31-8-84.58-13,5.59,1.12,2.32.72-5.35-.45s-19.77-3-31.79-4.91L1173,292c-7.44-1.22-10.34-1.81-4.24-1-2.2-.15-9-2.05-10.22-2.88.54-.32-.69-1.14,1.51-1,17.59,1.28,16.65-1.22,23-2.07-.86-.23-17-3.12-35.86-6.51-9.44-1.69-19.57-3.54-28.82-5.34s-17.62-3.42-23.53-4.85c-9-2.22-17.45-4.52-26.61-6.65s-19-4.25-30.72-6.24c-6.09-.8-9.32,0-15.46-.68-3.5-.48-16.62-1.71-34.64-3.21-18.06-1.29-41-3-64.15-4.07-23.13-1.31-46.48-2-65.21-2.71-18.75-.52-32.91-1-37.71-1.65-2.84-.46-5.87-1.05-8.76-1.65s-5.66-1.23-8-1.86c-4.61-1.27-7.4-2.53-5.8-3.29,3.41-4.71-17.18-8.58-24.48-13.5-1.24-1.25,3.68-2.19,2.44-3.45a52.89,52.89,0,0,0-5.54-2.88,76.67,76.67,0,0,0-7.35-2.85,100.6,100.6,0,0,0-18.68-4.38c-5.75-1-11.82-1.94-18-2.81s-12.55-1.46-18.82-2S695,203.32,689,203c-3-.17-5.88-.35-8.72-.4s-5.57-.09-8.2-.08l-33.59-2Z" style="fill: #fef4f7"/>
            <path d="M-21.37,253.21s5.76,1.35,15.59,4c4.94,1.27,10.88,2.92,17.66,4.84,3.39.92,7,1.93,10.77,3l5.8,1.69,6.08,1.75c16.5,4.85,35.58,10.52,55.82,17s41.65,13.71,62.94,21.74L165,310.64l5.78,1.65,6.57,1.73c4.6,1.19,9.57,2.54,14.71,3.75,20.48,5.06,43.29,9.21,51.63,9.67,4,.93,8.1,1.72,12.15,2.55L268,332.44s7.41.7,18.85,1.62c5.73.38,12.48.77,19.8,1.15s15.27.54,23.35.66c16.2.13,33-.25,47.16-1.47s25.52-3,30.87-5.28c0,0,3.56-.26,9-.79l9.42-.84c3.47-.3,7.22-.62,11-1l11.43-1.08,5.49-.48,5.13-.49a106.3,106.3,0,0,1,13.93-.71l2-.15c1.34-.13,3.31-.33,5.84-.63s5.64-.69,9.23-1.2l5.75-.84,6.42-1.14c4.5-.83,9.42-1.8,14.68-2.92,4.85-1.07,9.93-2.28,15.34-3.66s11.07-2.92,17-4.63L568,303.2" style="fill: none"/>
            <path d="M1064.37,252.79l9.6,2,14.34,3.08,17.59,3.78,9.54,2,9.78,2.17c13.1,2.94,26.38,5.8,37.78,8.44s21,4.85,26.66,6.3c36.23,9.1,69.89,17.32,105.78,25.92,3.73.8,8.9,1.77,11.81,2.12,11.47,1.55,24.08,3.85,36.56,6.17s24.83,4.75,35.78,6.65c9.5,1.69,18.18,3,28.51,5.14,54.16,11.06,103.81,22.09,150.25,31,4.88.95,9.56,1.82,14.15,2.65s9.06,1.69,13.54,2.41,9,1.5,13.52,2.21,9.23,1.36,14.09,1.93l9,.94-4.34-.44c-2.75-.3-6.21-.58-8.6-.94-5.63-.77-10.27-1.34-17.74-2.56l-10.7-1.7-11.19-1.9c-7.45-1.24-14.71-2.59-20.74-3.71-13.49-2.52-24.07-4.67-39-7.64L1481.09,343c-37-7.27-73.14-14.41-110-21.16-14.81-1.9-37.14-6.53-54.13-9.6-5.19-1-10-2.07-16.33-3.31-15.55-2.87-32.06-5.28-42.58-7.89-20.72-5.52-41.77-11-67.17-17.22-10.29-2.45-37.3-8.5-64.67-14.43-13.67-3-27.47-5.87-39.26-8.4s-21.62-4.51-27.4-5.6c-7.65-1.51-15.3-2.88-22.92-4.16s-15.24-2.36-22.82-3.48l-22.68-3.24c-7.55-1.1-15.07-2.17-22.56-3.41-1.31-.21,4.16-.78,19.22.35S1027.48,245.7,1064.37,252.79Z" style="fill: #fffbfd"/>
          </g>
        </g>
        <g style="opacity: 0.8999999761581421">
          <g style="opacity: 0.8999999761581421">
            <path d="M1742.34,372.46a16,16,0,0,0-2.09-5.15,63.11,63.11,0,0,0-5.09-7.65c-2.19-2.89-4.82-6.17-7.94-9.57-1.55-1.7-3.17-3.55-5-5.33s-3.63-3.66-5.58-5.57A285.21,285.21,0,0,0,1689,315.94a370.12,370.12,0,0,0-33.6-22.13c-2.93-1.71-5.89-3.36-8.84-5s-5.92-3.21-8.88-4.79-5.93-3-8.87-4.51-5.87-2.88-8.77-4.24c-11.6-5.48-22.75-10.28-32.75-14.26-5-2.06-9.72-3.8-14.08-5.51l-11.85-4.45c-7.07-2.54-12.33-4.52-15.13-5.73-12.74-5.1-30-10.39-50.33-15.11-5.09-1.19-10.35-2.29-15.8-3.42s-11.07-2.11-16.82-3.06c-11.53-2-23.63-3.68-36.13-5.18-25-3.05-51.63-5-78.51-5.88-13.44-.47-27-.76-40.36-.8s-26.76.16-39.85.51c-52.38,1.26-100.86,5.32-136.32,8.24-17.73,1.46-32.2,2.8-42.3,3.41s-15.8.6-15.94-.35c1.57-5.44-19-20.14-44.74-33.65s-56.37-25.49-74.4-25.77c-11-.24-22-.28-32.92,0s-21.71.89-32.4,1.68c-21.39,1.56-42.34,4-62.67,7.14-20.31,3.31-40,7.32-58.92,11.87q-14.19,3.39-27.77,7.21c-4.53,1.27-9,2.55-13.41,3.88s-8.78,2.73-13.08,4.14c-17,5-26.71,8.92-34.06,11.48s-12.42,3.79-20.17,3.36c-3.14.06-8.76,5.41-19.19,12.33a162.9,162.9,0,0,1-47.8,21.54c-15.27,3.86-33,5.29-50.18,6.52s-33.9,2.43-47.57,5.87c-13.27,2.39-33.84,4.32-57.35,4.51-11.76.13-24.19-.29-36.67-1.35-6.19-.58-12.48-1.25-18.54-2.22-1.55-.21-3-.49-4.53-.74s-3-.51-4.49-.82l-2.21-.44-1.12-.22-.55-.11-.65-.16-5.16-1.19c-13.83-3.31-27.86-7.09-41.53-11s-27-8-39.43-12c-25-7.89-46.58-15.2-61.39-20-56.41-18.41-98.18-34.71-135.92-51.66s-71.44-35-111.47-58.55C-56.16,87-84.27,72.1-112.69,57.33c-14.2-7.39-28.46-14.81-43-22.6s-29.43-16-44.81-25c-65-37-112.17-62.06-175.85-101.31l-86.59-56.48c-14.4-9.39-28.88-18.93-43.67-28.77s-29.85-20-45.37-30.65c-8.44-5.51-16.79-11.13-23-14.84s-21.72-15.35-29.81-21.31c-12-9.42-23.38-18.94-34.48-28.49s-21.83-19.17-32.26-29-20.58-19.95-30.21-30.63q-7.23-8-14-16.56a180.87,180.87,0,0,1-12.6-18c-1-1.76-2.19-3.61-3.21-5.57-.51-1-1.07-2-1.58-3s-1-2-1.49-3a80.9,80.9,0,0,1-4.6-11.83c-2.22-7.24-2.29-12.25-2.16-9.72a92.75,92.75,0,0,0,5.87,21.77c1.6,4.06,3.55,8.27,5.73,12.65s4.72,8.88,7.55,13.47c11.18,18.45,26.6,38.63,44.27,59.36,8.38,9.81,17.68,20.06,27.83,30.5s21.09,21.11,32.67,31.86c23.14,21.53,48.83,43.35,75.27,65.06,18.31,15,35.14,29.18,50.42,42.79s29.08,26.61,41.42,39.19,23.33,24.61,33,36.19,18.21,22.6,25.68,33c5,7.49,9.37,15.14,14.11,23.2a301.83,301.83,0,0,0,16.43,25.57C-348,53.24-329.4,74.12-296.19,97.76c19.54,13.73,39.21,26.16,58.83,38.17s39.33,23.41,59,34.92c9.86,5.75,19.69,11.58,29.58,17.43s19.8,11.78,29.7,18,19.81,12.52,29.72,19.17,19.9,13.48,29.86,20.75c13.8,10.3,26.93,20.16,39.83,29.68S6,294.42,18.85,303.54c25.62,18.22,52,35.65,82.49,53.91,2,1.46,5.63,3.93,10.14,6.9s9.87,6.48,15.41,9.93c11.07,6.92,22.73,13.9,28.77,17.2,9.17,4.26,18.51,8.72,28,13.26s19.13,9.22,28.93,13.71c19.59,9.06,39.63,18,60,25.93,5.09,2,10.23,3.9,15.37,5.73l7.75,2.7,7.91,2.53A295.43,295.43,0,0,0,343.1,465c24.27,4.11,44.79,4.48,61.83,2.06,6.64.61,12.91,1.11,19,1.58l8.91.61,8.55.53c11.17.67,21.58,1.28,31.33,1.74,19.58,1,36.85,1.65,53.35,1.87a474.39,474.39,0,0,0,48.09-1.69,361.88,361.88,0,0,0,49.84-8q8.36-2,16.65-4.15l16.55-4.38,33-9,33-9,33.33-8.88c44.72-11.76,90.9-22.12,140.68-29q21.19-3.09,41.68-5.46c13.69-1.61,27.2-3.05,40.63-4.2s26.8-2.09,40.18-2.77q10-.5,20.11-.83c6.71-.26,13.44-.43,20.2-.56,9.58-.38,31.64,2.91,53.69,7,5.51,1,11,2.09,16.37,3.18s10.48,2.08,15.24,3.09c9.55,2,17.59,3.8,22.69,5a149.41,149.41,0,0,0,31.2,3.29q8.35.09,17-.38c5.75-.32,11.58-.86,17.39-1.48a632.88,632.88,0,0,0,65-11.1,588.1,588.1,0,0,1,90.25-17.48c15.62-1.82,31.6-3,48.06-3.54s33.37-.34,50.83.67c12.27,1.47,23.64,4.49,35,8s22.89,7.31,35.46,10.9c15.07,3.63,28.78,7.34,41.79,11a385.41,385.41,0,0,1,36.73,12.29c5.84,2.26,11.43,4.77,17,7.34a168.26,168.26,0,0,1,16.25,8.63,179.43,179.43,0,0,1,15.54,10.23,166.93,166.93,0,0,1,14.63,12.32c2.16,2.13,4.07,4.4,6.06,6.55l7.09,8.21q7.26,8.26,14.5,15.65a279.74,279.74,0,0,0,29.14,26,198.63,198.63,0,0,0,29.14,18.76,144.94,144.94,0,0,0,28.25,11.24,118.39,118.39,0,0,0,25.5,4.18,107.32,107.32,0,0,0,20.89-1,103.66,103.66,0,0,0,27-7.73,92.5,92.5,0,0,0,12.81-6.83,49.55,49.55,0,0,0,5-3.65c1.81-1.54,1.53-1.6,4-2.78l14.89-8.85c4.44-2.62,8.55-5,12.74-7.66a123.1,123.1,0,0,0,27.54-23.23c13.83-16,24.65-33.46,33.35-49.66a419.18,419.18,0,0,0,20-43.46c14.48-35.83,28.81-75.44,44.4-117.07,7.75-20.83,15.77-42.18,24.05-63.88q6.2-16.29,12.61-32.79c4.3-11,8.63-22,13.24-33-2.31,5.26-3.34,7.18-5.8,13.2-6.35,15.46-12.45,30.58-18.65,45.34s-12.44,29.17-18.88,43.3c-12.9,28.25-26.45,55.45-41.35,82.09-7.45,13.32-15.2,26.52-23.39,39.6s-16.78,26.06-26,38.86-18.94,25.44-29.57,37.58a274,274,0,0,1-34.8,34,148.19,148.19,0,0,1-16.06,12.74,83.85,83.85,0,0,1-19.24,9.85,76.35,76.35,0,0,1-34.7,3.24,91.11,91.11,0,0,1-32.1-11.51c-8.77-5.23-17.93-13.85-25.79-24.31a161.79,161.79,0,0,1-19.6-34.56c-1.24-3-2.4-6-3.45-8.9l-.78-2.18c-.1-.33-.32-.81-.49-1.22l-.53-1.27c-.71-1.7-1.41-3.37-2.08-5-2.76-6.56-5.43-12.69-7.85-18.14l-3.36-7.68c-1-2.38-1.91-4.64-2.72-6.61A41.52,41.52,0,0,1,1742.34,372.46Z" style="fill: #feecf2"/>
            <path d="M-540.63-163.79c-26.47-21.67-52.21-43.46-75.37-65s-43.86-42.58-60.63-62.19c-17.75-20.69-33.23-40.81-44.58-59.14A184.37,184.37,0,0,1-734.76-376a111.18,111.18,0,0,1-4.08-11.44c-.45-1.83-1-3.56-1.32-5.26-.18-.85-.36-1.68-.54-2.48s-.25-1.61-.38-2.39a61.36,61.36,0,0,0,2.39,9.61c2.28,7.21,6.93,16.32,11.32,23.21a195.92,195.92,0,0,0,12.77,17.82c4.52,5.68,9.25,11.14,14.09,16.45s9.82,10.48,14.9,15.53c2.52,2.54,5.12,5,7.65,7.54s5.15,5,7.78,7.42c10.44,9.85,21.2,19.45,32.34,29s22.54,19,34.54,28.42c8.09,6,23.61,17.57,29.84,21.26s14.57,9.3,23,14.78c15.54,10.67,30.63,20.81,45.44,30.61s29.3,19.34,43.7,28.72l86.6,56.39c63.72,39.12,110.91,64.13,176,101.1,15.38,9,30.24,17.15,44.81,24.92s28.82,15.19,43,22.59c28.43,14.76,56.55,29.65,86.31,48,40,23.53,73.77,41.43,111.5,58.48s79.53,33.2,135.94,51.56c14.8,4.8,36.42,12.09,61.36,19.94,12.47,4,25.76,8,39.42,11.94s27.68,7.67,41.48,10.94l2.58.61,1.37.29c.45.11.77.16,1.15.24l4.43.88c3,.52,6,1.08,9.08,1.5s6.17.83,9.23,1.22,6.21.68,9.36.9c6.21.55,12.51.84,18.63,1.07s12.2.25,18.1.16c23.53-.25,44.1-2.23,57.39-4.63,13.69-3.48,30.37-4.69,47.58-5.93s34.89-2.69,50.13-6.56c0,0,5.64,2,17.63,5.39,6,1.72,13.59,3.78,22.88,6.16s20.28,5.06,33.07,8c-11.44,2.44-22.89,4.85-34.33,7.16s-22.88,4.65-34.31,6.83c-22.88,4.38-45.76,8.39-68.66,11.83s-45.82,6.35-68.76,8.22a541,541,0,0,1-68.75,1.72,299.87,299.87,0,0,1-34.1-3.4c-2.8-.42-5.72-1-8.6-1.5l-8.68-1.66q-8.67-1.71-17.35-3.57c-23.13-5-46.2-10.68-69.18-16.8-45.95-12.28-91.53-26.25-136.7-41.35Q31.32,193.21-53.35,147.08T-220.83,51.64Q-303.54,2.14-383.9-51.21C-437.35-86.94-489.89-124.12-540.63-163.79Z" style="fill: #fbcedd;opacity: 0.8999999761581421;isolation: isolate"/>
            <path d="M597.42,268.45l10.48-2.08c6.65-1.32,16.12-3.18,27.44-5.33,22.63-4.22,52.64-9.77,82.08-14.16,58.86-8.64,115.75-12,105.12,11.45,0,0-12,7.92-32.23,20s-48.66,28.21-81.79,44.51-71,32.63-110.31,44.43a451.79,451.79,0,0,1-59.44,13.82,300.26,300.26,0,0,1-58.3,3.71l-4.78-.21c-3.08-.13-7.56-.36-13.13-.67-11.15-.69-26.67-1.68-44.32-3.8-8.81-1-18.18-2.33-27.78-3.92s-19.43-3.49-29.24-5.81c-2.43-.53-4.9-1.2-7.33-1.79s-4.86-1.26-7.28-1.94l-3.6-1c-1.2-.33-2.41-.72-3.6-1.07l-3.55-1-1.73-.53-1.52-.49c-8.1-2.54-15.56-5.07-22.26-7.3,0,0-5.56-3.27-15.41-8.76s-24-13.22-41.16-22.21-37.46-19.31-59.9-29.82c-11.22-5.26-23-10.56-35.17-15.83S133.93,268.09,121,263.08l-17.53-7.62-20.13-8.92c-7.74-3.51-16.49-7.5-26-11.92C19.19,217-31.4,192.3-81.9,165.37c-25.25-13.46-50.53-27.37-74.29-41.1-11.89-6.84-23.42-13.59-34.41-20.16S-212,91.11-221.73,85s-18.74-11.85-26.87-17.18-15.35-10.28-21.54-14.63c-12.38-8.71-20.57-15.15-23.18-18.41,0,0-9.26-6.47-23.58-16.83S-350.66-6.52-371-21.92c-40.75-30.64-84.89-66.33-101.69-82.35,0,0-11.78-13.41-31.79-32.44-10-9.52-22.05-20.46-35.58-32.08s-28.53-23.93-44.31-36.46c0,0-11.4-10.16-26.7-24.44s-34.46-32.73-50.11-49.11-27.86-30.58-31.05-34.91c-1.58-2.17-1-1.8,2.71,1.82s10.46,10.56,21.71,21.06c0,0,3.27,3,8.72,7.82s13.1,11.33,21.81,18.39,18.43,14.68,27.9,21.8,18.65,13.79,26.09,19.17l4.66,3.52c3,2.31,7.52,5.67,13.25,9.93,11.47,8.5,28,20.55,48.11,34.72S-473.32-145-447.5-127.8s53.69,35.34,81.93,53.39C-309.1-38.34-251.18-2.76-205.91,25s77.8,47.83,83.34,53.09c0,0,7.6,4.7,21.34,13s33.66,20.06,58.33,34.15C6.46,153.34,74.92,190.75,151.61,226c38.39,17.56,78.74,34.63,119.77,49.3,20.51,7.32,41.19,14,61.79,19.76q7.72,2.13,15.43,4.08c2.57.63,5.15,1.29,7.68,1.86s5,1.15,7.54,1.6a271.94,271.94,0,0,0,30.22,4,376.29,376.29,0,0,0,58.92-.25q14.28-1.12,28-3.11t26.67-4.64C542.21,291.47,572.75,281.12,597.42,268.45Z" style="fill: #fcd8e4"/>
            <path d="M605.31,255.73s9.82-3.55,25.93-8.56,38.53-11.39,63.84-17.15c12.66-2.86,26-5.6,39.74-7.74s27.71-3.77,41.59-4.6c27.77-1.65,55.05-.14,78.26,7.34,0,0,16.7,1.48,40.66,4.19,12,1.37,25.76,3,40.16,5s29.43,4.33,43.85,6.92c28.85,5.15,55.29,11.38,69.64,18.31s16.62,14.33-2.58,22.1c0,0-18.78,7.57-51,19.83s-77.81,29.31-132,47.56C836.3,358.09,807,367.36,776,376.34s-63.69,17.48-97.7,24.82c-17,3.65-34.33,7.1-52,10s-35.48,5.38-53.64,7.38-36.57,3.4-55.22,3.93-37.52.43-56.62-.69c0,0-2-.14-6.12-.24-2-.06-4.57-.07-7.62-.06s-6.62,0-10.71.12c-8.19.17-18.45.46-31.07.86s-27.64.85-45.88.71l-2.14-.32c-1.39-.2-3.53-.59-6.24-1.07l-4.52-.82-5.46-1.12c-3.89-.78-8.47-1.89-13.49-3.13-2.53-.65-5.24-1.42-8-2.19l-7.37-2.11c-2.39-.68-4.79-1.43-7.27-2.2s-5-1.58-7.59-2.42c-10.36-3.41-21.36-7.25-32.73-11.65C242,387.43,218.29,377,197.16,365.3s-39.84-24-52.66-36.22l-25.77-17.89c-15.86-11-37.7-25.94-61.57-42.27C9.33,236.36-46.84,198.78-83.28,180c0,0-12.78-11.78-30.88-25.71-4.52-3.48-9.37-7.12-14.44-10.73s-10.34-7.27-15.7-10.77a239.78,239.78,0,0,0-32.44-18.08l17.36,9.26c11.1,5.89,27,14.37,46.38,24.3s42.15,21.57,67,33.79,51.6,25.26,79,38.13,55.16,25.86,82,38.07l75.77,34.39c23.16,10.52,43.69,20,59.91,28s28.15,14.68,33.9,19.74c0,0,2.89,1.6,8.44,4.38s13.77,6.73,24.56,11.37c2.69,1.17,5.57,2.36,8.59,3.6,1.5.62,3.08,1.23,4.67,1.85l2.43,1,1.24.48,1.44.52c7.75,2.88,16.05,5.45,24.89,7.83s18.12,4.36,27.85,6.08,19.79,3.09,30.31,4.09a459.58,459.58,0,0,0,66.58,1.14,548.3,548.3,0,0,0,72.14-8.62,624.61,624.61,0,0,0,75.26-19,653.25,653.25,0,0,0,76.16-29.82,45.68,45.68,0,0,0,6.49-10.16c2.87-6.12,5-14.33,2-22.64s-11.08-16.71-28.46-23.33c-8.69-3.33-19.7-6.19-33.51-8.47q-10.35-1.72-22.87-3T605.31,255.73Z" style="fill: #fde3ec"/>
            <path d="M736.09,186c27.84-9.78,56.35-22,87.46-30.93,17-3.83,43.11-4.48,63.36-7.23a268.33,268.33,0,0,1,40.29-1c13,.64,25,1.88,34.7,2.87,11.09,1.81,23,3.29,35.47,4.56s25.57,2.28,39,3.4c26.94,2.13,55.4,3.86,83.63,6,28.22,2.37,56.2,5.17,82,9s49.47,9,69,15.44a237.59,237.59,0,0,0,36.41,6.21c1.93-.32,6.53-.62,11.13-.92s9.22-.53,11.14-.83c21.08,1.34,42.06,3.58,62.74,6.06s41.07,5.52,61.1,8.17c66.14,7.82,130.65,34.4,186.3,70.3,15.6,9.92,32.94,21.24,50,34.38a350.53,350.53,0,0,1,48.08,43.84,159.27,159.27,0,0,1,25.47,36.84c.7,1.34,1.32,2.69,1.91,4s1.16,2.65,1.71,3.93l1.58,3.81c.47,1.28.92,2.53,1.38,3.77l1.28,3.67.62,1.8.29.89.16.72c.44,1.91.86,3.8,1.29,5.68a114.09,114.09,0,0,0,7.5,22.83,88.67,88.67,0,0,0,7,12.38A93.6,93.6,0,0,0,1799,469a105.76,105.76,0,0,0,22.1,18,70.33,70.33,0,0,0,23.81,9.14,60.06,60.06,0,0,0,24.18-.78,85.57,85.57,0,0,0,24-9.9,152.69,152.69,0,0,0,22.78-16.87,265.11,265.11,0,0,0,21.47-21.33c13.94-15.36,27.23-32.54,40.51-50.93,7.86-10.63,15.11-21.37,22-32.11s13.39-21.49,19.64-32.27c12.51-21.53,24.15-43.13,35.51-65.36,17.26-32.57,33.62-70.45,49.7-107.6,1.88-4.31,5.22-11.73,8.1-17.95s5.35-11.23,5.22-10.87c-.89,2-3.61,8.1-6.58,15.37s-6.29,15.68-8.68,22.1c-6.57,17.65-11.69,30.79-16.71,42.21s-9.8,21.16-15,32.28c-6.49,14.13-13.75,30.48-21.55,47.66s-16.2,35.17-25.23,52.41a349.38,349.38,0,0,1-23.19,36.55c-6.26,8.39-13.15,19.25-20.7,31s-15.77,24.45-24.76,36.28A171.83,171.83,0,0,1,1916,485.14a138.14,138.14,0,0,1-23.91,13.55,109.33,109.33,0,0,1-25.13,7.62,88.25,88.25,0,0,1-32.64-.69,109.38,109.38,0,0,1-30.15-11.45,136.32,136.32,0,0,1-26.2-19,133.3,133.3,0,0,1-20.9-24.45c2.5,3.86,2.85,4.83,1.51,3.69a89.06,89.06,0,0,1-8.24-9.34c-1.95-2.46-4.15-5.29-6.47-8.46l-1.85-2.48-2-2.62c-1.33-1.79-2.71-3.64-4.21-5.46s-3-3.75-4.57-5.62l-4.89-5.69-5.19-5.67c-1.74-1.9-3.6-3.71-5.39-5.57-7.3-7.36-15-14.27-22.18-20.25-3.64-2.93-7.06-5.75-10.31-8.17s-6.2-4.66-8.78-6.57-4.82-3.46-6.52-4.72-2.9-2.19-3.49-2.72c-1.18-1,.14-.63,4.7,2a12.92,12.92,0,0,1-3.33-2.34,50.32,50.32,0,0,1-4-4,48.88,48.88,0,0,1-3.5-4.37,10.82,10.82,0,0,1-1.83-3.41c1.53-1,.78-4.44,4.48-3.18s6.94,2.4,9.89,3.19a75.23,75.23,0,0,0,7.85,1.86c1.17.2,2.27.35,3.32.45s2,.21,3,.25a33.94,33.94,0,0,0,5.14-.18,44.46,44.46,0,0,0,4.45-.76l4.14-.91a32.69,32.69,0,0,1,9.09-.88c-.55-.65-6.81-6-16.9-13.4a433.66,433.66,0,0,0-39.52-25.47c-7.73-4.47-15.82-8.83-23.94-13-4.07-2-8.13-4.14-12.16-6.06l-6-2.93-5.91-2.79c-15.58-7.38-29.78-13.67-39.7-18.76-15-8.05-29.36-15.51-45.12-22.29-7.88-3.39-16.11-6.55-25-9.48-4.43-1.46-9-2.83-13.79-4.15s-9.75-2.51-14.92-3.57a46.3,46.3,0,0,0-13.85.59,54.26,54.26,0,0,1-13.82.81c-3.06-.46-10.38-.94-20.86-1.29s-24.1-.52-39.77-.23c-31.34.51-70.73,2.71-109.85,6.59-19.58,1.88-39.1,4-57.61,6.31s-36,4.6-51.58,6.65c-31.11,4.08-54.47,7.11-62.54,6.6-19.13-2.09-43.61-8.37-38.76-13.91,4.36-15.34-30.48-20.62-43.71-32.5-2.37-3.26,5.44-7.78,3.06-11.06-10.83-8.67-31.37-18.38-54.2-19.11-9.61-1-19.71-1.63-30-2s-20.66-.32-30.91-.06a440.17,440.17,0,0,0-57.2,4.94c-18,1-36,2.3-53.88,3.42S753.81,184.94,736.09,186Z" style="fill: #fef4f7"/>
            <path d="M-236.84,136s7.77,4.25,21.17,12,32.58,18.74,55.23,32.55l17.65,10.81q9.14,5.61,18.8,11.72c12.87,8.12,26.32,16.91,40.14,26.19s28,19.06,42.27,29.44c7.12,5.18,14.23,10.54,21.35,16s14.24,11,21.3,16.68L16.82,302.4l16.71,11.54c6.22,4.26,12.95,8.9,20,13.5C81.46,345.92,112.89,365.61,125,371q16.69,11.07,33.65,22.1l7.4,3.8c4.74,2.41,11.57,5.85,20,9.95,16.76,8.27,39.89,18.75,65.28,29,12.7,5.1,26,10.11,39.48,14.67l5.05,1.69,5.1,1.61,2.53.78,3.41,1,6.76,2c2.21.62,4.35,1.17,6.5,1.73s4.32,1.14,6.35,1.59l6.11,1.38,3,.66,2.9.58c31,6,53.3,6.28,64.16,3.6l4.74.44c3.06.31,7.33.66,12.52,1.08,10.34.78,24,1.52,37.87,2.06,27.73,1.14,55.89,1.24,63.49,3.14,0,0,1.21.07,3.52.14s5.71.17,10.06.14c8.71-.08,21.24-.51,36.47-2a485.1,485.1,0,0,0,52.67-8c4.89-1,9.85-2.14,14.94-3.35s10.22-2.62,15.44-4.1c10.45-2.95,21.17-6.37,32.07-10.28" style="fill: none"/>
            <path d="M1515.83,211.54c8.09,2.59,23.73,7.84,43.22,15.61a638,638,0,0,1,65.86,30.68,464.21,464.21,0,0,1,64.68,41.71c9.35,7.29,17.68,14.48,24.65,21,3.47,3.3,6.61,6.4,9.37,9.25s5.16,5.5,7.16,7.79l4.72,5.49,2.34,2.73,2.27,2.81,4.49,5.57,4.33,5.71,2.13,2.84,2.07,2.9,4.08,5.79,3.9,5.9c1.29,1.95,2.57,3.9,3.77,5.92l3.63,6c1.19,2,2.3,4.06,3.43,6.08,2.3,4,4.36,8.17,6.45,12.25l.77,1.53.47,1.15,1,2.3,1.94,4.55c1.31,3,2.67,6,4,8.93a232.61,232.61,0,0,0,18.77,33c7,10.08,14.92,19.07,24,26a35.33,35.33,0,0,0,6.71,3.42,20.7,20.7,0,0,0,6.31,1.45,97.61,97.61,0,0,0,19.63-.7,85.72,85.72,0,0,0,10.3-2.19,91,91,0,0,0,10.76-3.8c14.57-6.18,29.27-17.22,40.42-29.21,4.92-5.15,9.27-10.55,13.71-16.15s9-11.41,14.29-17.67c13.74-16.49,26.54-33.92,38.54-51.64s23.27-35.67,34-53.61,20.66-36,30.13-53.86,18.41-35.65,26.87-53.26c7.16-14.77,13.59-28.43,19.88-42.07l9.49-20.56c3.23-6.91,6.48-14,10.34-21.08a55.25,55.25,0,0,1,5.42-8.35,7.94,7.94,0,0,1,2.92-2.38,2.83,2.83,0,0,1,1.08-.15H2130a2.64,2.64,0,0,0-1.37.38,13,13,0,0,0-3.8,4,93.79,93.79,0,0,0-6.78,12.51c-4,8.48-7.1,15.53-12,27-9,20.86-19.46,47.28-28.07,65.63-9.43,20.58-17.75,36.41-29.23,58.63-7.66,15-14.59,28.23-22.67,43.4-14.86,27.08-30.49,53.23-47.6,77.86-8.55,12.31-17.46,24.24-26.92,35.52a292.31,292.31,0,0,1-30,31.35,88.31,88.31,0,0,1-31.09,23.74,79.94,79.94,0,0,1-19.14,6.09,78.32,78.32,0,0,1-17.83,1.14,43.91,43.91,0,0,1-9.9-1.92,86.85,86.85,0,0,1-10.46-4.09,113.54,113.54,0,0,1-27.48-15.56c-8.38-6.46-15.4-13.9-19.44-21.07-3.82-7.26-7.29-14.75-10.56-22.49q-2.44-5.8-4.76-11.8-1.15-3-2.29-6.06c-.11-.27-.15-.46-.31-.8l-.43-.93-.87-1.89c-.58-1.26-1.17-2.52-1.76-3.79a252.68,252.68,0,0,0-17.1-30.3A276,276,0,0,0,1725.28,350c-.87-1-1.82-2.1-2.89-3.27L1718.9,343c-1.26-1.31-2.59-2.72-4-4.16l-4.6-4.47c-1.61-1.57-3.32-3.18-5.12-4.78l-5.63-5c-3.94-3.34-8.15-7-12.68-10.52a452.78,452.78,0,0,0-64.16-42.37,623.2,623.2,0,0,0-68.53-32.31c-20.87-8.3-38.36-14.09-48.68-17.17a383.37,383.37,0,0,0-41-10.28c-13.64-2.7-27.24-4.84-40.73-6.62s-26.89-3.36-40.21-4.76-26.51-2.84-39.63-4.59c-1.16-.13.65-1.17,6.08-2.31s14.47-2.44,27.84-2.85a353,353,0,0,1,53.87,2.93A517.22,517.22,0,0,1,1515.83,211.54Z" style="fill: #fffbfd"/>
          </g>
        </g>
      </g>
      <g>
        <g style="opacity: 0.800000011920929">
          <g style="opacity: 0.800000011920929">
            <path d="M-12.15,36.89a133.23,133.23,0,0,0,16.29,6.9c2.76,1,5.39,2,8.23,2.79L20.68,49c2.75.79,5.43,1.6,8.25,2.27l8.21,2.26c1.35.38,2.71.76,4,1.16s2.68.8,4,1.2c2.7.79,5.37,1.63,8,2.56A10.6,10.6,0,0,1,57,61a40.41,40.41,0,0,1,3.19,3.6c2.62,4.56,1.4,11,3.65,14.93a213.61,213.61,0,0,0,40.86,39,164.52,164.52,0,0,0,51.82,24.86q5.41,1.71,10.69,3.61c3.56,1.18,7.12,2.3,10.61,3.58l5.23,1.91c1.74.65,3.47,1.32,5.23,1.89,3.51,1.19,7,2.49,10.44,3.78l5.18,2c1.73.65,3.49,1.2,5.22,1.85l10.43,3.8c1.74.63,3.47,1.33,5.22,1.91L230,169.5l10.56,3.6,2.64.91,2.67.81,5.36,1.6,10.78,3.21c7.25,1.92,14.58,3.67,22,5.35,7.44,1.45,15,2.72,22.58,3.88,7.64.83,15.35,1.68,23.16,2.2,4.44.22,8.85.35,13.24.52s8.76.33,13.12.26,8.7,0,13,0c2.17,0,4.33,0,6.5,0l6.49-.1c8.66-.08,17.33.2,26.08.32,4.37.11,8.78.37,13.22.7,2.23.23,4.45.27,6.69.44s4.49.37,6.75.59c2.85.38,5.64.77,8.42,1.21s5.58,1.08,8.35,1.49,5.59,1,8.45,1.55l4.33.85,4.45.92c1.25.28,2.67.63,4,1l3.55.85a5.16,5.16,0,0,1,1.52.08c0,.08-.08.13-.36.23l-.54.18a2.83,2.83,0,0,1-.82.15c-5.23.19-12,1.53-18.39,3.16-1.83.44-3.64.92-5.43,1.46-.89.26-1.78.55-2.67.79s-1.8.32-2.69.48L436.43,210,426,211.78c-3.46.55-6.92,1-10.38,1.5l-10.44,1.51-5.18.75-5.35.58-10.94,1.14-5.61.58-2.85.28-2.89.18q-6,.39-11.86.62l-5.84.2c-1.94,0-3.87.13-5.79.06-7.68-.15-15.24-.39-22.77-.82l-22.53-2.07c-7.52-1-15.09-2-22.83-2.91-7.53-1.14-14.78-2.18-21.89-3.14L238,206.72c-1.73-.25-3.42-.64-5.13-1l-5.13-1-10.29-2.09-2.6-.53-2.58-.63-5.27-1.3-10.54-2.63c-.94-.27-1.89-.52-2.81-.83l-2.74-1c-1.81-.65-3.55-1.32-5.18-2a80.25,80.25,0,0,1-7.95-3.64,51.72,51.72,0,0,1-6.89-4.23c-1.79-1.12-4.24-2.27-10.76-4.61-4.28-1.41-8.33-3-12.36-4.46s-8-2.87-12-4.38l-12-4.9c-2-.86-4.12-1.7-6.19-2.64l-6.3-3-10.66-5.31-10.19-5.61c-6.78-3.61-13.18-7.66-19.68-11.52-3.27-1.88-6.41-4-9.61-6s-6.4-4.1-9.64-6.16l-9.61-6.54L37,117.4c-1.63-1.13-3.23-2.33-4.86-3.5C11.44,99.38-8,82.76-23.36,64.69c-1.55-1.81-3-3.53-4.43-5.23l-3.84-5.06-3.54-4.8C-36.3,48-37.43,46.53-38.43,45l-6.09-9.22c-.52-.76-1-1.53-1.55-2.31L-47.55,31l-.19-.3a1.56,1.56,0,0,1-.1-.37l-.19-.75c-.13-.5-.27-1-.4-1.5-.28-1-.58-2-.91-3a36.15,36.15,0,0,0-1.71-4c-.32-.67-.67-1.33-1-2s-.68-1.35-1.05-2a90.13,90.13,0,0,0-4.95-8c-1.9-2.6-3.63-5.37-5.52-8.07-.92-1.36-1.89-2.7-2.85-4l-1.45-2c-.47-.68-.91-1.38-1.36-2.06-1.46-2.2-2.23-4.14-3.85-6.47,1.39,1.35,2.87,2.77,4.47,4.21l2.44,2.18c.8.76,1.75,1.45,2.65,2.18L-57.89-.5C-56,.94-54.15,2.54-52,4c4.08,3,7.94,6.11,11.9,9.12,2,1.52,3.86,3.06,5.69,4.62s3.47,3.2,5.2,4.74c1.83,1.76,1.53,3.35,2.23,5.1A24.08,24.08,0,0,0-20.21,33C-17.63,34.43-14.78,35.54-12.15,36.89Z" style="fill: #f8acc5;opacity: 0.800000011920929;isolation: isolate"/>
            <path d="M-18.86,37.18c2.63,1.45,5.23,2.85,7.86,4.14l2,1c.66.31,1.35.6,2,.89q2,.87,4.05,1.71C-.26,46,2.46,47.06,5.12,48.09c1.32.53,2.69,1,4.07,1.44l4.12,1.34,8.1,2.67c1.33.46,2.71.85,4.09,1.26l4.06,1.27C35,57.78,40.2,59.65,45.48,61.65c3,1.14,5,3.79,7,6.51a20.66,20.66,0,0,1,2,7.75c.32,2.67.59,5.29,1.71,7.29C67.8,98,81.41,112.08,97.09,123.67a172.61,172.61,0,0,0,52.35,26c3.68,1.14,7.3,2.36,10.88,3.63,1.79.62,3.55,1.3,5.34,1.91l5.34,1.73q5.33,1.86,10.57,3.81c1.73.69,3.51,1.26,5.27,1.86s3.51,1.22,5.26,1.84l10.46,3.81c3.53,1.15,7,2.37,10.53,3.57l5.25,1.82c1.75.61,3.49,1.25,5.26,1.78l10.62,3.32c3.56,1.07,7.08,2.32,10.69,3.22l10.82,2.89,5.44,1.43c1.81.49,3.66.82,5.5,1.23,3.68.77,7.37,1.56,11.09,2.3l5.59,1.09c1.87.31,3.76.58,5.65.86,3.78.55,7.58,1,11.4,1.55,1.92.24,3.83.51,5.76.7l5.81.44q5.83.42,11.74.76c4.46.35,8.92.33,13.34.37l13.22.07c4.39-.07,8.76-.27,13.12-.38s8.71-.14,13.06-.29,8.69-.35,13-.41c2.17,0,4.35-.06,6.53-.05h3.28l3.27-.08c4.38-.06,8.77,0,13.2.1l13.39.54c5.66.54,11.11,1.12,16.65,2,1.39.22,2.78.49,4.18.69l4.21.6,8.68,1.41c1.23.23,3,.56,4.91.87l5.58.84c3.4.64,5.37.24,2.82.77-5.23.23-11.95,1.62-18.37,3.28-3.67.84-7.2,2.28-10.82,2.63L436.34,210,426,211.82c-3.46.54-6.92,1-10.39,1.49l-10.44,1.52-5.28.77-5.35.58-10.94,1.14-5.61.58-2.86.28-2.89.18q-6,.38-11.85.62l-5.84.2c-1.94.06-3.87.12-5.79.06-7.68-.16-15.25-.39-22.77-.83l-22.54-2.06c-7.51-1-15.08-2-22.83-2.92-7.53-1.14-14.79-2.17-21.89-3.14l-20.86-3.5c-6.86-1.28-13.65-2.73-20.56-4.11l-2.59-.54-2.62-.6-5.19-1.28-10.58-2.64c-1.89-.49-3.75-1.13-5.55-1.79s-3.54-1.31-5.17-2a78.76,78.76,0,0,1-8-3.63,50,50,0,0,1-6.8-4.21c-1.75-1.1-4.15-2.24-10.68-4.57-4.28-1.41-8.34-3-12.37-4.47s-8-2.87-12-4.38l-12-4.9c-2-.85-4.11-1.7-6.19-2.63l-6.29-3-10.65-5.32L90.45,151.1c-6.79-3.61-13.19-7.65-19.69-11.51-3.28-1.89-6.42-4-9.61-6.05l-9.65-6.16-9.6-6.54-4.9-3.3c-1.63-1.12-3.23-2.32-4.86-3.49C11.44,99.48-8,82.87-23.36,64.8c-1.56-1.81-3.05-3.54-4.44-5.24l-3.84-5-3.54-4.79c-1.13-1.56-2.26-3.07-3.26-4.65l-6.09-9.22-1.55-2.34-1.48-2.41-.38-.61a1.8,1.8,0,0,1-.32-.65l-.39-1.5q-.42-1.5-.9-3a39.08,39.08,0,0,0-1.7-4.06c-.32-.66-.66-1.33-1-2s-.68-1.35-1-2a92.22,92.22,0,0,0-4.92-8C-60,6.7-61.78,3.92-63.65,1.21c-.92-1.37-1.88-2.72-2.83-4.07l-1.44-2c-.47-.68-.9-1.38-1.35-2.07-1.43-2.19-2.2-4.15-3.79-6.48,1.37,1.36,2.79,2.73,4.26,4.09s2.91,2.79,4.55,4.11q4.84,4,9.59,8.41c3.38,2.8,6.55,5.83,9.73,9s6.52,6.29,9.65,9.69a6.16,6.16,0,0,1,1.33,2.65c.25.84.37,1.68.72,2.56a25.06,25.06,0,0,0,6.59,5.81c1.24.78,2.49,1.55,3.81,2.24S-20.16,36.46-18.86,37.18Z" style="fill: #fbcfde;opacity: 0.800000011920929;isolation: isolate"/>
            <path d="M-30.33,37.66c2.35,1.8,4.95,3.32,7.44,4.86s5,3,7.56,4.36c5.14,2.7,10.45,5,15.6,7.39,2.63,1.13,5.34,2.16,8,3.24l7.85,3.27c5.33,2.1,10.57,4.28,15.64,6.82,3,1.38,5,4.12,7,7a23.32,23.32,0,0,1,1.85,8.15c.32,2.72.62,5.35,1.76,7.42,1.45,2,2.88,4,4.32,5.93s2.85,4,4.37,5.89q4.5,5.85,9,11.63c6.23,7.46,12.55,15,19.64,21.7a134.87,134.87,0,0,0,10.94,9.74c1.91,1.52,3.85,3,5.83,4.46a42,42,0,0,0,6.14,4l13.28,6.62,3.38,1.65c1.13.55,2.3,1,3.45,1.55l7,3c7.25,3.48,14.86,5.68,22.09,8.43l5.42,2,5.45,1.83,10.75,3.71,2.66.94,2.69.85,5.36,1.69,10.64,3.42c7.11,2.13,14.25,4.08,21.37,6.13,28.6,7.61,58.17,12.52,90.6,13q6.9,0,13.7-.08l6.79-.14c2.26-.12,4.51-.28,6.76-.43l13.41-.93,3.33-.23c1.11-.08,2.22-.22,3.33-.33l6.64-.67c4.42-.44,8.83-.82,13.24-1.17s8.8-1,13.21-1.32,8.83-.67,13.26-1,8.87-.7,13.35-.93c2.81,0,5.92-.08,9.19-.15s6.68-.33,10.13-.33,6.9,0,10.24.19,6.57.57,9.49.79c4.87.74,24.17.56,19,1.23-2.56.43-5.51,1.08-8.61,1.93a93.43,93.43,0,0,1-9.6,2.52l-2.75.55-2.75.45-5.43.9L432,211.06c-7,1.34-13.91,2.16-20.85,3.21l-10.45,1.55c-3.51.44-7.06.8-10.65,1.19-7.19.73-14.57,1.68-22.34,2q-6,.39-11.87.64c-2,.06-3.91.18-5.85.17l-5.79-.07c-3.85-.06-7.66-.16-11.46-.29l-5.68-.22-5.65-.46-11.27-1-5.64-.52c-1.88-.17-3.76-.47-5.64-.7l-11.34-1.51-5.73-.73c-1.92-.22-3.83-.59-5.77-.87l-11.12-1.64c-3.65-.52-7.25-1-10.78-1.65l-10.51-1.79c-3.47-.62-7-1.08-10.36-1.84l-10.25-2-5.15-1c-1.72-.34-3.44-.68-5.15-1.12l-10.36-2.54-5.26-1.3c-1.76-.44-3.54-.87-5.3-1.41-7.47-2.4-14.9-5.36-18.67-7.52-7.82-4.35-2.84-3.54-15.92-8.22-2.14-.71-4.19-1.57-6.25-2.32l-6.09-2.27-6-2.19c-1-.37-2-.71-3-1.1l-3-1.2-12-4.92-3.09-1.29-3.07-1.45-6.3-3c-14.53-7.15-27.57-14.95-40.52-22.81-3.22-2-6.37-4.11-9.57-6.15l-4.81-3.09-2.42-1.54-2.37-1.64-9.62-6.56c-3.28-2.15-6.42-4.58-9.7-6.92-20.62-14.71-40-31.51-55.22-49.73l-2.28-2.71c-.72-.89-1.4-1.79-2.07-2.66L-34,52.83q-1.8-2.47-3.52-4.81c-1.13-1.58-2.13-3.19-3.17-4.75-2.05-3.11-4-6.15-6.08-9.24s-3.89-6.38-6-9.75c-.75-1.18-1.57-2.36-2.34-3.62a10.41,10.41,0,0,1-1.07-2c-.3-.7-.63-1.4-1-2.09A93.51,93.51,0,0,0-61.8,8.26c-1.6-2.81-3.26-5.67-5-8.49l-2.65-4.23c-.81-1.44-1.63-2.88-2.46-4.3-1.31-2.29-2-4.25-3.56-6.66,2.48,2.9,5,5.58,7.45,8.28S-63-1.86-60.65,1c1.2,1.42,2.33,2.91,3.53,4.41s2.47,3,3.7,4.64c2.46,3.24,4.92,6.78,7.93,10.42,1.57,2.06,1.31,3.63,1.9,5.52a23.57,23.57,0,0,0,2.7,3.59,35.71,35.71,0,0,0,3.33,2.94C-35.23,34.37-32.7,35.94-30.33,37.66Z" style="fill: #fde1ea;opacity: 0.800000011920929;isolation: isolate"/>
            <path d="M-38.35,43.78c.76.88,1.46,1.74,2.19,2.53L-34,48.54c1.38,1.45,2.7,2.78,4,4.07l1.91,1.9.47.47a4.78,4.78,0,0,0,.64.32l1.33.57c1.77.79,3.7,1.42,5.64,2.14,3.91,1.42,8.08,3,12.75,5.17,2.4,1,4.93,2.23,7.6,3.67,1.33.72,2.71,1.5,4.12,2.34S7.3,71,8.87,71.89c2.86,1.74,4.77,4.79,6.67,7.92,2.33,5.42,1.25,11.66,3.4,16.16,1.4,2.15,2.73,4.39,4.18,6.49.9.83,1.83,1.61,2.78,2.37l2.81,2.32,5.6,4.61c1.87,1.52,3.7,3.11,5.64,4.52L51.45,125c3.87,2.82,7.87,5.47,11.83,8.21,2,1.34,4,2.76,6,4L75.45,141c4.13,2.54,8.23,5.22,12.55,7.54s8.66,4.79,13.08,7.17q6.77,3.33,13.71,6.67a554,554,0,0,0,78,30.15l2.3.73,2.33.65,4.67,1.29,9.42,2.6c1.58.42,3.16.89,4.77,1.29l4.86,1.13,9.91,2.3,5.07,1.16c1.71.38,3.45.67,5.2,1l10.72,2,5.53,1c1.86.35,3.77.57,5.68.86l11.82,1.67c2.29.31,4.54.67,6.78.92l6.66.67,12.92,1.28c2.11.24,4.22.33,6.32.46l6.26.36,12.38.71c8.24.2,16.46.33,24.9.46l12.86-.28,6.61-.14c2.22-.06,4.47-.06,6.75-.23,2.85-.15,6.74-.42,11.16-.75l6.94-.52,3.65-.27c1.22-.09,2.45-.26,3.68-.39l3.69-.4a4.06,4.06,0,0,0,.91-.12l.91-.22,1.79-.41c2.37-.53,4.69-1,6.88-1.32a62.67,62.67,0,0,1,11.2-.79c2.44.36,12.63-2.06,21.66-3.38,9-1.7,16.84-2.48,14.32-1.82a59.85,59.85,0,0,0-6.44,2.25l-.78.29c-.27.09-.55.13-.82.2l-1.76.38c-1.24.26-2.62.58-4.25.87-7.43,1.2-14.36,2.37-21.06,3.54-1.68.28-3.33.63-5,.84l-4.94.7-9.8,1.41L399.6,216,389.48,217c-6.88.7-14,1.62-21.82,2q-6,.39-11.94.64c-2,.06-4,.19-5.93.17l-5.9-.07q-5.88-.12-11.72-.3c-1.95-.08-3.9-.12-5.83-.24l-5.81-.47-11.57-1-5.78-.54-5.76-.75L285.89,215l-5.78-.76-5.78-.92c-15.11-2.13-29-4.44-42.74-7l-10.26-2.08c-3.43-.7-6.88-1.34-10.29-2.22l-10.36-2.54c-3.48-.87-7-1.68-10.55-2.78-3.74-1.18-7.46-2.53-10.72-3.85a55.12,55.12,0,0,1-7.93-3.73,36.76,36.76,0,0,0-7.32-3.44c-2-.68-4.76-1.29-11.26-3.79-4.22-1.65-8.14-3.25-11.93-4.82-1.89-.79-3.76-1.55-5.6-2.35L130,172.08l-11.08-5.18c-3.81-1.82-7.71-3.87-12-6-28.79-14.54-52.71-30-78.81-48.88-20.57-14.79-39.85-31.65-55-49.94-1.6-1.78-2.95-3.64-4.31-5.37s-2.62-3.43-3.83-5.08-2.41-3.23-3.5-4.83L-41.67,42l-3-4.64c-1-1.54-2-3-3-4.64-1.92-3.18-3.89-6.38-6-9.75l-1.15-1.78-1.13-1.87-1.29-1.81c-.38-.65-.66-1.39-1-2.07-.68-1.4-1.41-2.78-2.18-4.17s-1.64-2.73-2.39-4.17c-3.11-5.7-6.82-11.32-10-17.11-1.29-2.27-2.08-4.23-3.62-6.61,2.44,2.92,4.74,5.41,6.78,7.87,1.06,1.22,2,2.47,2.93,3.68s1.92,2.43,2.83,3.72c1.82,2.55,3.42,5.4,5.34,8.53s4.07,6.6,6.73,10.54A6.79,6.79,0,0,1-51,21.68a15.26,15.26,0,0,0,0,3.82c-1.81-3.35-2.11-3.75-1.48-2.51.31.62.84,1.67,1.49,3l.52,1,.7,1,1.52,2.22c2,3.13,4.62,6.45,6.57,9.08Z" style="fill: #fef0f5;opacity: 0.800000011920929;isolation: isolate"/>
          </g>
        </g>
        <g style="opacity: 0.800000011920929">
          <g style="opacity: 0.800000011920929">
            <path d="M409.12,442.65c7.57-1,14.9-2.22,22.16-3.85s14.36-3.2,21.47-5l10.63-2.7,5.3-1.27,5.33-1.32c7.14-1.81,14.27-3.14,21.6-4.42,4.18-.68,8.43.41,12.68,1.57,3.22,1.29,5.69,3.55,8,5.65s4.57,4.16,7.26,5.22c5.9,1.52,11.84,3.24,17.85,4.59s12,2.74,18.15,4,12.23,2.23,18.41,3.18c3.08.47,6.18.92,9.28,1.32s6.22.72,9.33,1,6.24.57,9.37.81,6.27.49,9.4.59c6.28.26,12.57.34,18.87.36s12.6-.41,18.9-.79c3.15-.2,6.3-.43,9.44-.72s6.29-.72,9.43-1.14c39.35-4,77.55-4.33,116.07-6.16,4.82-.15,9.62-.49,14.43-.8l14.47-.93c2.42-.15,4.83-.37,7.24-.6l7.24-.68q7.26-.69,14.53-1.49c4.85-.57,9.69-1.24,14.54-1.93s9.74-1.36,14.61-2.19c9.7-1.8,19.51-3.5,29.29-5.73,11.09-2.54,22-5,32.8-8l8.07-2.11c2.69-.7,5.39-1.35,8.07-2.08,5.32-1.51,10.66-2.93,16-4.34,2.67-.71,5.35-1.37,8-2s5.33-1.44,8-2.12c5.36-1.37,10.73-2.73,16.17-3.93,10.82-2.56,21.78-5,33.06-7,3.54-.58,7-1.13,10.49-1.64s7-.85,10.47-1.23l2.63-.29,2.63-.32,5.32-.6,5.41-.6,5.56-.57c1.56-.14,3.35-.26,5-.38l4.45-.33a5.11,5.11,0,0,1,1.85-.43c0,.05-.08.16-.39.35l-.62.35a4,4,0,0,1-1,.43c-6.29,1.92-14.15,5.49-21.61,9.22l-6.32,3.15-3.1,1.61c-1,.52-2.11.91-3.16,1.37L1039.7,413l-3.08,1.31-2.92,1.22-6.16,2.45-12.25,4.91c-4.07,1.7-8.22,3.17-12.37,4.75l-12.6,4.73c-4.23,1.63-8.59,3.08-13,4.6l-13.54,4.61c-4.75,1.68-9.52,3-14.23,4.43s-9.38,2.7-14,4c-2.32.66-4.65,1.21-7,1.78l-7,1.66-13.85,3.18c-9.26,1.94-18.51,3.66-27.83,5.5-9.35,1.67-18.8,3.23-28.41,5-37.64,6.54-69.58,11.89-106.21,15.91a181.14,181.14,0,0,1-25.09.54,59.33,59.33,0,0,1-6.1-.56c-1.48-.22-2.58-.42-3.89-.56-2.6-.3-6-.35-14.67.19-5.64.44-11.1.72-16.47,1.1l-16,1.12-16.24.82-8.43.34c-2.86.1-5.77.11-8.75.14h-14.9c-2.46,0-4.9,0-7.32-.07l-7.26-.15-14.34-.29-14.23-.52c-4.74-.19-9.48-.27-14.23-.52L543,484l-7.24-.3-7.31-.4-14.88-.77c-31.64-1.64-63.3-4.73-92.4-10.46-5.87-1.13-11.17-2.38-16.17-3.48l-7.26-1.72L390.85,465l-13.39-3.57-6.79-1.91-.43-.12c-.14-.07-.28-.14-.41-.22l-.82-.48c-.55-.31-1.11-.61-1.66-.93-1.12-.6-2.25-1.19-3.41-1.76a110.89,110.89,0,0,0-22-7q-3-.63-6-1.34l-6.09-1.32c-2-.44-4.1-.84-6.15-1.24l-3.08-.6-3.05-.67c-3.26-.69-5.71-1.65-9.23-2.34,2.4.1,5,.18,7.63.2s5.44.08,8.35-.05l18.2-.59c6.3-.28,12.69-.39,19-.41s12.56.17,18.51.68c3.27.32,4.41,1.76,6.61,2.74a40.84,40.84,0,0,0,11.26.27C401.64,444,405.39,443.13,409.12,442.65Z" style="fill: #f8acc5;opacity: 0.800000011920929;isolation: isolate"/>
            <path d="M402.83,446.91c7.58-.78,14.94-1.81,22.19-3.07s14.41-2.81,21.52-4.37l10.67-2.42c3.56-.81,7.11-1.58,10.67-2.28s7.17-1.52,10.78-2.19,7.24-1.22,10.91-1.71a21.06,21.06,0,0,1,6.34.18,61,61,0,0,1,6.4,1.57,28.57,28.57,0,0,1,8.06,5.68c2.35,2.16,4.57,4.28,7.28,5.35a446.3,446.3,0,0,0,73.36,15c6.27.68,12.57,1.17,18.88,1.59s12.64.45,19,.46c3.17,0,6.34,0,9.51-.11s6.34-.29,9.51-.5,6.33-.43,9.5-.7l4.75-.44c1.58-.17,3.16-.38,4.74-.58,39.61-3.9,77.52-4.69,115.67-7.12,4.76-.34,9.54-.53,14.31-.94l14.31-1.24c9.58-.75,19.13-2,28.76-3.18l7.23-1c2.41-.34,4.81-.74,7.22-1.12,4.83-.77,9.66-1.62,14.52-2.45,2.42-.44,4.87-.82,7.29-1.33l7.29-1.53q7.31-1.53,14.68-3.2c2.79-.6,5.55-1.3,8.31-2l8.23-2.11L922.9,429,927,428l4-1.16,16.09-4.58c2.68-.76,5.37-1.44,8-2.26s5.31-1.61,8-2.37c5.32-1.54,10.64-3.06,16-4.47q8-2.37,16-4.47c2.69-.72,5.4-1.38,8.11-2s5.4-1.42,8.14-2.06q8.16-2,16.5-3.82c3.55-.57,7-1.23,10.41-1.84s6.83-1.2,10.3-1.65,6.94-.92,10.49-1.36l10.8-1.51c1.54-.17,3.76-.44,6.1-.77l6.91-1c4.23-.49,6.54-1.54,3.56-.18a156.94,156.94,0,0,0-21.57,9.35l-6.31,3.17a66.17,66.17,0,0,1-6.31,2.85l-12.48,5.29-3.08,1.31-3.09,1.23-6.16,2.45L1015.14,423c-4.07,1.7-8.22,3.16-12.38,4.74l-12.54,4.77c-4.24,1.63-8.6,3.07-13,4.6l-13.55,4.62c-4.75,1.68-9.53,3-14.23,4.42s-9.38,2.7-14,4c-9.31,2.45-18.57,4.52-27.79,6.62-9.25,1.93-18.51,3.67-27.83,5.5-9.35,1.66-18.8,3.23-28.42,5-37.63,6.53-69.57,11.89-106.19,15.9a181.46,181.46,0,0,1-25.11.54,55.93,55.93,0,0,1-6.06-.56c-1.45-.22-2.53-.42-3.8-.57-2.55-.3-5.88-.35-14.57.19-5.64.44-11.1.73-16.48,1.1l-16,1.12-16.24.82-8.43.34c-2.86.1-5.77.1-8.75.14H611.13l-3.65-.07-7.25-.15-14.35-.29-14.23-.52c-4.74-.19-9.48-.27-14.23-.52l-14.33-.66-7.24-.3-7.3-.4-14.88-.87c-31.67-1.64-63.3-4.73-92.43-10.47-5.87-1.12-11.18-2.37-16.17-3.5l-7.26-1.72L390.92,465l-13.39-3.57-6.79-1.9-.86-.24A3.28,3.28,0,0,1,369,459l-1.65-.93c-1.12-.62-2.25-1.21-3.41-1.79a111.15,111.15,0,0,0-22-7.09l-3-.66-3-.7-6.06-1.28c-2-.45-4.09-.86-6.15-1.27l-3.07-.61-3.05-.68c-3.23-.71-5.7-1.68-9.2-2.39,4.8.22,9.81.32,15,.35s10.57,0,16,.19,11.11.36,16.82.79l4.31.35c1.45.09,2.9.24,4.36.37q4.36.42,8.84,1c3.24.45,4.39,1.89,6.59,2.92C388,449,395.37,447.65,402.83,446.91Z" style="fill: #fbcfde;opacity: 0.800000011920929;isolation: isolate"/>
            <path d="M392.29,454.16c7.53-.08,14.92-.75,22.18-1.52,3.64-.42,7.23-.78,10.83-1.35l10.76-1.66c7.13-1.09,14.27-2.39,21.46-3.53,3.59-.59,7.19-1.07,10.83-1.54s7.31-1,11-1.33c4.24-.41,8.51.94,12.81,2.27,6.5,2.85,10,8.93,15.43,11.33,5.95,2,11.89,3.72,17.8,5.59s11.8,3.79,17.7,5.47,11.81,3.45,17.73,5.07,11.87,3,17.85,4.29,12,2.45,18.06,3.37c3,.46,6.07.89,9.13,1.27a59.22,59.22,0,0,0,9.21.69h18.68c6.3,0,12.65-.3,19.1-.49l7.54-.23c2.5,0,5-.34,7.46-.52q7.42-.6,14.72-1.08l7.27-.48,7.21-.56,14.31-1c4.74-.28,9.45-.71,14.15-1.07l14-1.08,3.5-.26,3.5-.33,7-.65,13.94-1.3c9.28-1,18.54-2.1,27.87-3.22s18.68-2.77,28.13-4.26c9.41-1.71,18.93-3.49,28.56-5.5q7.2-1.64,14.5-3.36l7.34-1.76,3.69-.9,3.69-1c11.19-3,22.21-6.08,33-9.69l16.13-5.24,15.95-5.54,8-2.7c2.67-.87,5.28-1.88,7.93-2.8,5.28-1.85,10.58-3.68,15.9-5.42l4-1.3,4-1.38c2.66-.91,5.32-1.79,8-2.66s5.36-1.73,8.06-2.55,5.43-1.61,8.12-2.51c6.85-1.86,15.06-4.53,23.49-6.67,4.17-1.19,8.39-2.29,12.47-3.24s8.07-1.69,11.7-2.3c3.09-.32,10.38-2.27,16.21-3.71s10.11-2.56,7.08-1.33-6.45,2.9-10,4.77-7.24,4.16-11.13,5.61l-12.88,5.41L1041,413c-2.08.89-4.14,1.78-6.23,2.58L1010,425.39c-8.25,3.07-16.5,6.27-25,9.4-8.58,2.94-17.37,6-26.63,9.11q-7.18,2.25-14.26,4.34l-7,2c-2.33.68-4.67,1.33-7,1.89-4.68,1.17-9.32,2.3-14,3.4s-9.23,2.22-13.88,3.1l-13.9,2.76c-4.64.91-9.27,1.86-14,2.63l-14.13,2.41-7.13,1.25c-2.39.42-4.8.77-7.21,1.17-18.84,3.22-36.26,6.07-53.55,8.69l-13,1.88c-4.32.62-8.65,1.29-13,1.8l-13.23,1.62c-4.45.53-9,1.14-13.54,1.54-9.77.76-19.74,1-25.13.47-11.1-.77-5-2.06-22.33-1l-16.49,1-8,.56c-2.67.2-5.33.36-8,.5-10.69.52-21.53,1.22-33.45,1.21H611.26l-14.59-.29c-4.82-.13-9.6-.14-14.36-.36l-14.23-.53-7.12-.25-7.12-.35-14.34-.66c-9.62-.44-19.38-1.08-29.44-1.6-31.66-1.76-63.32-5-92.42-10.87-5.87-1.23-11.19-2.41-16.19-3.57l-3.68-.88-3.56-.94-6.9-1.84-6.71-1.81-3.33-.9-3.34-1c-4.46-1.28-9-2.56-13.85-3.86a82.22,82.22,0,0,1-10.64-3.27c-3.66-1.3-7.51-2.42-11.45-3.5s-8-2.1-12-3.16L319.9,446l-6-1.62c-3.22-.86-5.66-1.86-9.15-2.67,9.47,1,18.35,1.46,27.69,2.69,2.33.32,4.69.69,7.1,1.11s4.9.78,7.45,1.26l7.9,1.54,4.16.83,4.35.79c3.24.65,4.4,2.06,6.59,3.18a41.56,41.56,0,0,0,11.2,1.47C384.87,454.54,388.58,454.24,392.29,454.16Z" style="fill: #fde1ea;opacity: 0.800000011920929;isolation: isolate"/>
            <path d="M389.94,464c2.88.48,5.53.89,8,1.27s4.83.6,7.1.86l3.37.38.83.09a6.53,6.53,0,0,0,.87-.13l1.75-.34L419,464.6a178.31,178.31,0,0,1,39.76-5.13,22.9,22.9,0,0,1,6.42.91c2.16.56,4.33,1.3,6.5,2.07,6.53,3.13,10,9.16,15.47,11.83l4.5,1.6c1.5.51,3,1.13,4.49,1.55l9.12,1.09c6.06.76,12.1,1.3,18.11,1.91,12,1.28,24,2.08,36.08,3,6,.36,12.09.63,18.18.93,3,.13,6.09.3,9.16.39L596,485l9.31.18c3.12.06,6.25.12,9.4.08l19.14-.18c40.5-.73,72.7-2.46,104.93-5.2,16.11-1.42,32.24-3,49.38-5.21,8.59-1,17.4-2.34,26.61-3.69s18.79-3,28.88-4.77l8.48-1.49,8.24-1.63,16-3.17c5.24-1.08,10.36-2.3,15.47-3.42s10.17-2.24,15.2-3.46l15.1-3.77c5.05-1.27,10.15-2.49,15.26-4,10.22-2.87,20.77-5.61,31.72-9.06,3.44-1,8.13-2.49,13.44-4.17s11.16-3.83,17.06-5.83l4.41-1.51c.37-.14.74-.23,1.1-.39l1.05-.49,2.1-1c2.8-1.2,5.48-2.49,8.07-3.53a77.35,77.35,0,0,1,13.43-4.42,20.33,20.33,0,0,0,3.81-1.13c.86-.31,1.82-.68,2.86-1.09l3.3-1.43c4.67-2,10.3-4.54,15.63-6.71s10.29-4.18,13.58-5.42,4.89-1.75,3.44-1c-2.89,1.57-5,2.91-7.35,4.36l-.88.55c-.31.17-.63.3-1,.46q-1,.48-2.07.93l-5,2.13-12.7,5.36-6.09,2.59-6,2.39-11.69,4.72c-3.87,1.54-7.68,3.17-11.57,4.57-7.76,2.89-15.51,5.92-23.68,8.87s-16.75,5.8-26,8.88q-7.18,2.25-14.34,4.37l-7.14,2.06-3.57,1-3.58.91q-7.14,1.77-14.27,3.47c-4.76,1.12-9.49,2.26-14.26,3.18L887,461.69l-7.13,1.41-7.16,1.25L858.3,466.8c-2.4.41-4.79.86-7.2,1.25l-7.24,1.14c-9.43,1.53-18.47,3.23-27.36,4.53l-13.18,2.11c-2.17.34-4.34.72-6.51,1l-6.5.93c-17.29,2.58-34.45,4.85-52.77,6.75-4.89.39-9.82.62-14.21.71h-6.1c-1.85,0-3.48-.16-4.83-.29a56.8,56.8,0,0,0-10.1-.15c-2.67.22-6.12.75-14.82,1.17-5.67.28-11,.49-16.09.66l-7.59.24-7.5.08-15.32.15-4,.05H609.3l-14.58-.29c-9.64-.12-19.12-.61-28.6-.92-4.74-.14-9.47-.39-14.23-.63l-14.34-.67-29.44-1.68c-31.67-1.82-63.3-5.11-92.41-11-5.86-1.23-11.18-2.4-16.17-3.58s-9.61-2.5-14.13-3.7c-9-2.34-17.54-5-27.23-7.56l-5.23-1.45-2.71-.74c-.91-.26-1.81-.66-2.73-1-1.83-.65-3.71-1.26-5.62-1.84L336,450.46c-7.84-2.32-16.11-4.28-24.13-6.51-3.19-.85-5.66-1.82-9.15-2.59,4.71.57,8.94.92,12.94,1.41,2,.23,3.93.55,5.87.86s3.87.61,5.82,1c3.91.79,7.91,1.88,12.41,3.11s9.52,2.54,15.4,3.89c3.21.78,5.36,4.42,7.51,5.66-4.55-1.49-5.16-1.62-3.52-1l3.94,1.4,1.37.5,1.54.35,3.29.78,7.07,1.7c2.35.56,4.66,1,6.67,1.48Z" style="fill: #fef0f5;opacity: 0.800000011920929;isolation: isolate"/>
          </g>
        </g>
        <g style="opacity: 0.800000011920929">
          <g style="opacity: 0.800000011920929">
            <path d="M-152.15,201.43a114.12,114.12,0,0,0,16.33-.23c2.77-.22,5.49-.45,8.25-.78,1.37-.14,2.75-.33,4.15-.54l4.11-.58c11-1.63,21.49-3.56,30.7-3.86,2.6,0,3.56,2.14,4.48,4.45.59,4.6-3.29,13.13-2.64,17,5.4,13.2,12.58,25.82,22.31,35.19a63.86,63.86,0,0,0,35.23,17.8c2.57.58,5.07,1.28,7.52,2.05,1.23.4,2.44.81,3.67,1.17s2.43.84,3.62,1.28c2.4.89,4.73,1.91,7.08,2.9s4.68,2.05,7,3.16l3.46,1.72c1.16.55,2.33,1.08,3.47,1.68,2.31,1.18,4.61,2.39,6.92,3.62l14,7.32c2.38,1.19,4.77,2.37,7.19,3.53l3.62,1.76c1.21.6,2.45,1.1,3.68,1.65,5,2.08,9.93,4.32,15.12,5.94,2.57.9,5.16,1.74,7.79,2.52s5.29,1.4,8,2c1.34.31,2.69.6,4,.87s2.7.6,4.08.8c2.74.44,5.51.78,8.29,1.15,6.29.93,12.61,1.15,18.84,1.68,6.26.35,12.48.74,18.69,1.44,3.12.28,6.23.72,9.35,1.21s6.24,1.18,9.4,1.92,6.32,1.67,9.51,2.73,6.43,2.32,9.71,3.76c2.05,1,4.07,2.19,6.07,3.35s4,2.54,6,3.85,4.06,2.7,6.14,4.17l3.15,2.22,3.25,2.36c.91.7,1.94,1.54,2.93,2.34l2.68,2.11c.67.14,1.1.29,1.13.47s-.07.18-.28.28a2.74,2.74,0,0,1-.4.15.92.92,0,0,1-.61.06c-3.87-.79-8.88-.07-13.69,1.14a40.84,40.84,0,0,0-4.06,1.16c-.67.23-1.34.45-2,.7l-.25.09h-.25l-.51.07-1,.12q-4,.5-7.89,1c-2.61.34-5.19.77-7.76,1.08l-7.72,1-7.77,1.08-7.9,1-8.14.89c-2.75.31-5.56.47-8.44.71s-5.92.38-8.82.46-5.77,0-8.62-.14-5.66-.3-8.46-.52-5.58-.63-8.35-1-5.53-.76-8.29-1.17l-8.28-1.47c-2.76-.51-5.55-.93-8.34-1.48s-5.59-1.13-8.43-1.63c-5.58-.87-10.93-1.87-16.18-2.72s-10.36-1.81-15.48-2.68C8,345-2.13,342.93-12.74,340.09a43.37,43.37,0,0,1-7.81-3.33,30.28,30.28,0,0,1-5.56-3.68,17.27,17.27,0,0,1-2.83-2.71c-.64-.75-1.1-1.38-1.69-2-1.18-1.2-2.9-2.29-7.69-4.11-3.14-1.12-6.14-2.28-9.16-3.29s-6-2-9-3.12-6-2.2-9-3.4-6.08-2.69-9.24-4.24c-1.33-.69-2.65-1.35-4-2l-3.82-2.15L-90,301.8l-7.24-4.43c-2.39-1.48-4.81-2.9-7.13-4.46-4.7-3.06-9.45-6-14.16-9.19-2.37-1.58-4.82-3.08-7.23-4.69s-4.83-3.26-7.33-4.88l-3-1.91-2.89-2-5.75-4c-1.92-1.33-3.77-2.75-5.59-4.19s-3.65-2.87-5.44-4.33-3.52-3-5.21-4.5-3.36-3.08-5-4.65-3.18-3.18-4.7-4.82-3-3.29-4.41-5c-2.35-2.64-4.24-5.29-6-7.74-.89-1.24-1.74-2.46-2.55-3.64s-1.6-2.37-2.34-3.56l-4.43-7-2.3-3.49-.15-.22a1,1,0,0,1,0-.34v-.7l-.06-1.4c-.06-.91-.15-1.81-.27-2.69-.8-4.82-3.52-8.45-6.68-12a127.3,127.3,0,0,0-10.85-9.79c-1.53-1.25-2.22-2.66-4-3.94,3.13,1,6.89,1.79,10.89,2.62l12.75,2.34c4.31.84,8.58,1.77,12.58,2.86,2,.57,3.86,1.2,5.65,1.88.9.34,1.73.73,2.57,1.11s1.65.76,2.43,1.17c1.64,1,.77,2.89,1.06,4.44,1.54,1.53,3.81,2.2,6.37,2.5S-154.77,201.26-152.15,201.43Z" style="fill: #f8acc5;opacity: 0.800000011920929;isolation: isolate"/>
            <path d="M-160.13,205.15a112.44,112.44,0,0,0,15.78.81c5.42-.16,10.73-.43,16.14-1l8-.79,3.93-.4,3.83-.32c2.55-.24,5.08-.45,7.52-.58s4.75-.1,7,0A3.55,3.55,0,0,1-95,204.35a13.3,13.3,0,0,1,1.6,3.28c.59,4.73-3.26,13.26-2.62,17.29.69,1.72,1.4,3.42,2.14,5.12s1.45,3.47,2.28,5.08c1.63,3.29,3.38,6.51,5.21,9.71s4,6,6.08,8.94a79.38,79.38,0,0,0,7,8A66.55,66.55,0,0,0-37.17,281c2.66.64,5.27,1.33,7.8,2.13s5,1.7,7.54,2.51,4.92,1.82,7.34,2.82c1.2.51,2.4,1,3.62,1.48s2.41,1,3.61,1.53c2.4,1,4.77,2.16,7.15,3.25s4.78,2.16,7.16,3.28l3.58,1.7c1.18.58,2.4,1.07,3.6,1.64l7.25,3.3c4.85,2.22,9.82,4.18,14.81,6.21,2.52,1,5.07,1.83,7.64,2.69s5.13,1.78,7.76,2.48c5.27,1.36,10.56,2.86,16,3.72,2.73.48,5.49.9,8.26,1.25s5.59.64,8.43.83c3.22.25,6.42.46,9.6.59s6.39.11,9.56.11,6.32.12,9.49.06,6.3,0,9.43.18a147.4,147.4,0,0,1,18.88,1.64,105.89,105.89,0,0,1,19.22,4.6c8.17,3.25,15.79,8,24.46,13.54.9.62,2.2,1.51,3.58,2.38s2.85,1.71,4.09,2.46l1.64.95.61.38c.18.1.32.06.43.11s.3.12.21.19a.84.84,0,0,1-.27.13l-.24.07-.32-.05c-3.87-.72-8.87.07-13.68,1.34-2.74.59-5.4,2-8.08,2q-4,.5-7.9,1c-2.6.35-5.18.78-7.76,1.09l-7.72,1-7.77,1.09-7.9.95-8.14.89c-2.76.31-5.57.48-8.46.71s-5.91.39-8.81.47-5.77,0-8.62-.14-5.66-.3-8.46-.52-5.58-.63-8.35-1-5.54-.76-8.3-1.16l-8.28-1.47c-2.76-.51-5.55-.93-8.34-1.49s-5.59-1.12-8.44-1.63c-5.58-.73-10.92-1.73-16.18-2.63S23.2,347.83,18.08,347c-10.22-1.82-20.32-3.91-30.93-6.75-.7-.21-1.39-.45-2.07-.69s-1.35-.54-2-.83c-1.31-.58-2.57-1.19-3.73-1.81a30.07,30.07,0,0,1-5.57-3.69c-2.72-2.12-3.3-3.5-4.46-4.67s-2.83-2.27-7.63-4.09c-3.14-1.12-6.15-2.28-9.17-3.29s-6-2-9-3.12-6-2.21-9-3.41-6.08-2.69-9.25-4.24l-3.94-2-3.83-2.15-7.5-4.3-7.24-4.44c-2.4-1.47-4.81-2.89-7.14-4.46-4.7-3-9.45-6-14.17-9.19-2.36-1.57-4.81-3.07-7.22-4.68s-4.83-3.26-7.33-4.89a248.43,248.43,0,0,1-22.64-16.46c-1.81-1.44-3.52-3-5.21-4.51s-3.36-3.08-5-4.65-3.18-3.18-4.7-4.82-3-3.3-4.42-5a95.23,95.23,0,0,1-6-7.76c-.9-1.23-1.74-2.45-2.55-3.64s-1.6-2.36-2.34-3.56l-4.43-7-2.3-3.49-.29-.45c-.07-.16-.25-.24-.21-.52a13.1,13.1,0,0,0-.05-1.4,19.92,19.92,0,0,0-.25-2.71c-.77-4.86-3.46-8.52-6.58-12.08a128.87,128.87,0,0,0-10.72-9.92c-1.51-1.25-2.19-2.68-3.88-4,3.09,1,6.56,1.78,10,2.68l2.63.66c.9.2,1.79.43,2.66.67,1.75.48,3.5,1,5.23,1.51a72.69,72.69,0,0,1,19.15,9c1.52,1.12.74,3,1,4.55C-171.14,204.72-165.31,204.64-160.13,205.15Z" style="fill: #fbcfde;opacity: 0.800000011920929;isolation: isolate"/>
            <path d="M-173.88,211.54a63,63,0,0,0,7.19,1.66c2.44.45,4.9.81,7.4,1.09,4.94.63,10.18.71,15.23.88,2.54.06,5.07.11,7.63.09l7.5.08c2.5,0,4.85.2,7.24.32a62.86,62.86,0,0,1,6.93.67c2.55.38,3.44,3,4.4,5.52.58,5-3.26,13.53-2.65,17.84,5.38,14.95,10.63,31,18.75,44.41a99.53,99.53,0,0,0,6.64,9.44,49.72,49.72,0,0,0,3.77,4.18,15.94,15.94,0,0,0,4.24,3.47c1.58.88,3.13,1.81,4.76,2.64L-70,306.3c3.3,1.64,6.63,3.31,10.12,4.74,5.3,2.65,11,4,16.39,5.92s10.69,3.58,15.89,5.58c2.59,1,5.21,1.83,7.8,2.74L-12,328l7.77,2.52c2.59.83,5.16,1.74,7.77,2.5a241.35,241.35,0,0,0,32.07,7.57q4.14.63,8.35,1.17c2.81.36,5.67.52,8.53.73s5.77.36,8.71.44,5.9,0,8.9-.06a179.19,179.19,0,0,0,20.18-1.5c3.33-.36,6.65-.92,9.94-1.38l9.82-1.38c13.07-2,25.85-3.15,38.94-2.32,2,.37,4.31.6,6.7.9l3.65.52c1.24.17,2.5.38,3.75.63a55.5,55.5,0,0,1,7.49,2,64.76,64.76,0,0,1,6.92,2.95c3.55,2.16,17.79,5.87,14,5.85a31.16,31.16,0,0,0-6.42,1.25c-1.16.34-2.36.74-3.56,1.18l-.9.33a5.61,5.61,0,0,1-.91.17l-1.81.27c-5.52.68-10.83,1.35-16,2.12-2.61.41-5.2.72-7.78,1.07l-7.73,1.07c-2.58.37-5.17.77-7.79,1.07s-5.25.65-7.92.95-5.39.66-8.16.88l-8.47.7c-3,.22-5.93.46-8.84.44s-5.79,0-8.64-.15c-5.7-.16-11.29-.85-16.84-1.56S68.58,357.18,63,356.24l-4.13-.7-4.18-.88c-2.79-.57-5.6-1.12-8.46-1.63s-5.52-1-8.22-1.45-5.35-.93-8-1.36l-15.52-2.78c-5.11-1-10.19-2.05-15.35-3.09-5.11-1.22-10.31-2.45-15.62-3.9-5.53-1.93-10.86-4.76-13.37-7.14-5.34-4.49-1.39-4.5-11-8.2C-47,322.54-53,320.79-59,318.54c-3-1.12-6-2.17-9-3.48s-6.1-2.71-9.27-4.28c-1.34-.67-2.64-1.38-3.92-2.12L-85,306.45c-2.52-1.46-5.06-2.82-7.49-4.33l-7.25-4.47c-1.19-.75-2.41-1.46-3.59-2.23l-3.53-2.32-7.14-4.56c-2.33-1.58-4.68-3.17-7.06-4.73-4.83-3-9.53-6.44-14.53-9.72-3.92-2.61-7.74-5.35-11.56-8.06s-7.41-5.71-11-8.64-6.89-6.12-10.15-9.26-6.2-6.53-9.06-9.88a134.08,134.08,0,0,1-10.83-15.11l-4.41-7c-1.51-2.31-3-4.73-4.64-7.17-.58-.86-1.21-1.72-1.86-2.59l-.49-.66a.79.79,0,0,1-.2-.37l-.16-.42c-.22-.54-.46-1.08-.71-1.61a35.66,35.66,0,0,0-3.69-6.06c-1.42-1.92-3-3.78-4.62-5.6s-3.22-3.68-4.92-5.43c-1.32-1.42-2-2.88-3.54-4.29,2.74,1.29,5.6,2.34,8.33,3.48,1.35.58,2.68,1.18,4,1.82l1.94,1c.63.35,1.25.7,1.86,1.07,5,2.87,9.08,7,14.19,11.68,1.33,1.36.57,3.18.75,4.89C-183.94,209.75-178.54,210.27-173.88,211.54Z" style="fill: #fde1ea;opacity: 0.800000011920929;isolation: isolate"/>
            <path d="M-185.45,222.45l1.82,1.67,1.77,1.46c1.15.94,2.25,1.79,3.32,2.6l1.61,1.19.4.29a2.29,2.29,0,0,0,.64,0h1.38c1.86,0,3.75-.13,5.75-.26a97.64,97.64,0,0,1,12.8-.21c1.14.07,2.3.17,3.47.31s2.41.29,3.63.51a48.34,48.34,0,0,1,7.58,2,5,5,0,0,1,2.64,2.53,20.85,20.85,0,0,1,1.51,4.06c.52,5.38-3.31,13.8-2.77,18.45l1,3.14.47,1.58.24.79.12.39a.38.38,0,0,0,.17.33l4,3.67c2.64,2.43,5.38,4.7,8.06,7.05,1.35,1.15,2.68,2.34,4.06,3.45l4.17,3.31c2.79,2.18,5.55,4.43,8.47,6.46a227.49,227.49,0,0,0,37.6,22.52A476.18,476.18,0,0,0-14.4,333.32c4.52,1.5,9.1,2.87,13.73,4.31s9.44,2.58,14.36,3.9,10.08,2.31,15.43,3.5l8.28,1.51c2.82.48,5.7,1.07,8.69,1.48l9.91,1.4c3.22.5,6.39.82,9.52,1.13l9.26,1,9.14.66c3,.19,6.06.47,9.11.58l9.24.37,4.7.19c1.58,0,3.18,0,4.78.07l9.86.11c2.1.1,5,0,8.25-.18l10.55-.49c.92,0,1.83-.09,2.73-.15a5.05,5.05,0,0,0,.68-.07l.68-.23,1.34-.43a36.1,36.1,0,0,1,5.13-1.22,17.32,17.32,0,0,1,8.25.33c.89.5,3.24.2,6.2-.29s6.53-1.11,9.88-1.43c1.68-.14,3.29-.32,4.75-.39a33.8,33.8,0,0,1,3.78,0c2.06.08,3,.24,2.1.54a36.25,36.25,0,0,0-4.84,2.19l-.58.3a4.29,4.29,0,0,1-.62.14l-1.31.23c-.93.17-2,.33-3.17.47-5.52.66-10.68,1.35-15.67,2.09s-9.82,1.27-14.67,2l-3.66.53-3.68.45c-2.47.32-5,.59-7.53.88s-5.18.63-7.87.83l-8.37.69c-3,.22-5.95.46-8.89.44s-5.87-.05-8.78-.16c-5.82-.16-11.56-.88-17.27-1.59l-4.27-.57-4.26-.72L62,356.14c-2.83-.46-5.64-1.12-8.47-1.69s-5.66-1.13-8.52-1.64c-5.57-1-10.92-2-16.2-2.85s-10.38-1.92-15.5-2.82c-5.1-1.06-10.19-2-15.34-3.16l-7.73-1.87c-2.6-.67-5.25-1.25-7.88-2.07a57.1,57.1,0,0,1-7.82-3.41c-1.16-.63-2.24-1.26-3.18-1.89A20.35,20.35,0,0,1-31,332.85c-2.67-2.23-3.64-2.8-5.17-3.26l-3-.81c-.66-.2-1.42-.44-2.32-.74s-1.9-.75-3.1-1.25c-3.13-1.25-6-2.49-8.81-3.74s-5.39-2.65-8.05-4c-5.34-2.62-10.57-5.63-16.92-8.76-10.54-5.71-20.19-11.54-29.57-17.73-2.35-1.55-4.74-3-7.08-4.6s-4.68-3.16-7.07-4.73l-3.6-2.35-3.57-2.46q-3.59-2.49-7.33-5c-15.65-10.43-30.43-22.35-41.67-36A135,135,0,0,1-189,222.35l-4.42-7c-1.47-2.35-3-4.74-4.61-7.19-.59-.85-1.22-1.72-1.87-2.59l-1-1.31a2.94,2.94,0,0,1-.39-.77l-.36-.81a35.65,35.65,0,0,0-3.67-6.07c-1.41-1.94-3-3.79-4.58-5.64s-3.23-3.69-4.91-5.45c-1.32-1.42-2-2.84-3.63-4.21,1.34.67,2.65,1.27,3.92,1.82s2.46,1.12,3.6,1.68a27.76,27.76,0,0,1,6,3.94,37.65,37.65,0,0,1,5,5.48c1.69,2.11,3.41,4.61,5.82,7.15.62.74.34,2.2-.14,3.76a18.67,18.67,0,0,0-1.07,4.09c-1.27-2.61-1.52-2.88-1.1-1.89.2.5.55,1.34,1,2.39.1.26.22.54.33.83l.57.72,1.22,1.56Z" style="fill: #fef0f5;opacity: 0.800000011920929;isolation: isolate"/>
          </g>
        </g>
        <g style="opacity: 0.800000011920929">
          <g style="opacity: 0.800000011920929">
            <path d="M1436.49,410.54c15-2.86,29.32-6.81,43.59-10.79l10.71-3c3.58-.95,7.16-1.88,10.77-2.78,1.8-.44,3.62-.91,5.43-1.33l5.48-1.2c3.66-.76,7.36-1.48,11.1-2.08,4.27-.65,8.62.46,13,1.63,6.6,2.63,10.07,8.84,15.51,11.06,11.93,3.41,24,6.62,36.26,9.53s24.6,5.41,37.08,7.43a419.94,419.94,0,0,0,75.86,5.55c39.92.34,78.23,5.54,116.7,10.7s77.11,10,117.39,11.62c5.71.28,11.38.47,17,.71l16.85.53c11.2.37,22.3.69,33.38,1.27q8.31.42,16.6,1c5.54.44,11.08.88,16.61,1.43s11.1,1.24,16.67,2l8.36,1.12c2.8.4,5.6.91,8.41,1.4l10.35,2.1c3.41.79,6.79,1.61,10.17,2.44,6.74,1.54,13.6,3.54,20.78,5.28l9,2.51a4.93,4.93,0,0,1,1.87.22c0,.06-.13.12-.48.2l-.7.13a4.21,4.21,0,0,1-1,.07,100,100,0,0,0-10.95.23c-4,.28-8.14.57-12.25,1-2.33.21-4.64.49-6.93.78l-3.43.44c-1.14.13-2.27.13-3.4.2l-13.39.63c-8.83.33-17.49.78-26.18,1.07-17.38.72-34.87,1.32-54.08,1.67-39.68.85-75-2.2-113.5-4.23-37.63-1.81-69.54-2.35-105.8-3.94a184.29,184.29,0,0,1-24.55-3c-10.77-2.12-6.87-3-24-4.07-22.31-1.27-41.62-1.47-65.09-3.12-9.91-.73-19.53-1.53-29-2.32l-28.12-2.36L1570.45,450l-29-2.06c-31.21-2-62.44-4.37-91.39-8.68-11.68-1.74-21.23-3.44-30.29-5.23l-13.46-2.62-6.84-1.32L1399,430a3.25,3.25,0,0,1-.43-.18l-.85-.41-1.76-.89c-1.15-.51-2.31-1-3.5-1.48-6.68-2.5-14.3-3.91-22.29-5-4-.5-8.07-1-12.18-1.48-2-.25-4.12-.38-6.16-.66l-6.13-.72c-1.63-.17-3.08-.44-4.55-.7s-2.93-.64-4.67-.87c4.66,0,10-.64,15.66-1.21l17.86-2.33c6.2-.87,12.5-1.55,18.79-2.18s12.5-.83,18.48-.83c3.3,0,4.53,1.44,6.8,2.26a41.35,41.35,0,0,0,11.27-.51C1429.08,412.21,1432.78,411.18,1436.49,410.54Z" style="fill: #f8acc5;opacity: 0.800000011920929;isolation: isolate"/>
            <path d="M1430.46,415.1c7.51-1.2,14.82-2.66,22-4.27s14.36-3.42,21.48-5.25,14.27-3.69,21.47-5.27c3.61-.8,7.23-1.58,10.9-2.31s7.36-1.31,11.09-1.84c4.28-.65,8.62.53,13,1.79a28.83,28.83,0,0,1,8.18,5.69c2.38,2.15,4.61,4.27,7.33,5.42,23.85,7.09,48.38,13.4,73.34,17.62a411.52,411.52,0,0,0,75.9,5.9c40,.32,77.85,4.92,115.9,9.28,19,2.21,38.09,4.3,57.44,6,9.68.79,19.43,1.53,29.28,2.08q7.38.42,14.85.71c5,.22,10,.42,15,.53,5.72.16,11.4.3,17.06.38s11.29.17,16.89.19c11.22.13,22.35.21,33.45.46a623.4,623.4,0,0,1,66.75,4.72c3.51.59,7,1.24,10.37,1.87s6.77,1.22,10.16,2,6.78,1.56,10.21,2.29l10.53,2.45c3,.85,8.57,1.91,12.67,2.73s6.59.74,3.36,1a102.59,102.59,0,0,0-11,.29c-4,.29-8.15.61-12.25,1-9.33,1.37-18.34,1.49-27.16,2s-17.49.78-26.18,1.08c-17.38.72-34.88,1.31-54.1,1.67-39.66.85-75-2.19-113.5-4.22-37.62-1.81-69.52-2.35-105.78-3.94a184.44,184.44,0,0,1-24.56-3c-10.76-2.12-6.63-3-23.79-4.06-22.32-1.27-41.61-1.47-65.09-3.12-9.92-.73-19.54-1.54-29-2.32l-28.12-2.36L1570.46,450l-29-2.07c-31.23-2-62.43-4.37-91.4-8.68-11.68-1.75-21.23-3.45-30.3-5.24l-13.45-2.62-6.84-1.33-.87-.17a3,3,0,0,1-.87-.23l-1.71-.8c-1.15-.52-2.31-1-3.5-1.49-6.69-2.54-14.3-4-22.29-5.08-4-.51-8.06-1.07-12.17-1.53-2-.25-4.12-.4-6.16-.68l-6.13-.75c-1.62-.19-3.06-.46-4.53-.73s-2.93-.65-4.67-.89c9.4-.14,19.71-1.59,30.52-2.28,5.43-.44,11-.66,16.7-.76s11.55,0,17.52.18c3.26.19,4.52,1.52,6.79,2.35C1415.78,418.24,1423,416.34,1430.46,415.1Z" style="fill: #fbcfde;opacity: 0.800000011920929;isolation: isolate"/>
            <path d="M1420.43,423.05a395.23,395.23,0,0,0,43.41-6.91c7.11-1.43,14.22-2.88,21.42-4.23s14.49-2.44,22-3.27c4.27-.44,8.61.8,13,2.14,6.57,2.89,10.07,9,15.51,11.37,11.93,3.82,23.64,7.84,35.3,11.69s23.26,7.55,35,10.77c5.85,1.6,11.74,3.08,17.68,4.38q4.44,1,8.94,1.82a70,70,0,0,0,9,1.33c12.17,1,24.54,1.87,37.28,2.65l7.45.46c2.47.16,4.94.16,7.39.26q7.37.21,14.59.54,14.46.58,28.53,1.46c18.78,1.09,37.17,2.45,55.6,3.64,9.21.62,18.43,1.17,27.72,1.67s18.63,1,28.09,1.26,19,.57,28.79.64,19.65.09,29.78-.08q8.61-.12,17.12-.36l17-.68,33.6-1.56c22.32-1,44.51-1.5,67.08-.69,3.53.27,7.44.52,11.54.72s8.39.42,12.7.82,8.6.82,12.73,1.33,8.08,1.21,11.66,1.86c3,.64,10.4,1.56,16.3,2.23s10.25,1,7,1.12-7,.63-10.94,1.06-8.14,1.23-12.25,1.33c-9.37.41-18.37.92-27.2,1.25l-13.14.58-13,.51c-17.39.74-34.89,1.27-54.11,1.68-39.68.84-75-2.15-113.51-4.26-37.63-1.82-69.55-2.38-105.79-4a184.39,184.39,0,0,1-24.57-3c-10.75-2.16-4.58-2.68-21.73-3.8-22.31-1.3-41.61-1.52-65.08-3.18-19.84-1.52-38.49-3.15-57.14-4.73l-28.24-2.33-29-2.12c-31.22-2-62.43-4.52-91.39-8.87-11.69-1.77-21.24-3.49-30.31-5.33l-13.44-2.65c-4.5-.92-9.09-1.82-14-2.71l-5.29-.93a18.22,18.22,0,0,1-2.73-.6q-1.37-.39-2.76-.75c-3.73-1-7.62-1.71-11.6-2.44s-8-1.42-12.13-2.05-8.16-1.41-12.22-2c-1.51-.26-3-.59-4.49-1s-2.93-.71-4.67-1c2.34.13,4.65.18,6.91.25s4.57-.07,6.82-.06,4.51,0,6.77,0,4.58,0,6.91.1,4.68.22,7.1.4,4.91.32,7.46.58l16.51,1.65c3.26.39,4.52,1.69,6.77,2.63C1405.8,425.2,1413.06,423.76,1420.43,423.05Z" style="fill: #fde1ea;opacity: 0.800000011920929;isolation: isolate"/>
            <path d="M1418.75,433c5.76.57,10.55.89,15.07,1.15l3.34.18.83.05a6.14,6.14,0,0,0,.85-.19l1.71-.43,7-1.92a159.65,159.65,0,0,1,39.34-6.61c4.25-.19,8.59,1.23,12.94,2.73,6.57,3,10.07,9,15.51,11.6,3,1,5.93,2.2,8.9,3.18l9,1.08,17.89,2.12c11.88,1.37,23.69,2.67,35.57,3.9,23.76,2.41,47.8,4.54,73.28,6.14,39.91,2.64,71.66,4.94,103.54,6.93s63.88,3.91,104.32,5.5c22.93.9,43.45,1.55,63.92,2.06,10.23.25,20.45.52,30.94.69l16,.3,16.62.21c7.1.17,19.42,0,31.74,0h5.76l1.15-.13,2.27-.24c3-.31,5.93-.53,8.69-.66a82.87,82.87,0,0,1,14,.32c1.49.33,5.47.19,10.5,0s11.12-.7,16.81-.89c11.38-.52,21.21-.41,18,0s-5.66.93-8.32,1.45l-1,.2a7.69,7.69,0,0,0-1,.1l-2.23.16c-1.57.13-3.32.21-5.38.31l-13.62.64-12.93.54-24.76,1c-16.34.67-32.81,1.15-52,1.56-39.68.84-77-2.19-115.56-4.34-37.62-1.83-69.53-2.39-105.78-4a179.81,179.81,0,0,1-24.58-3.05c-10.75-2.17-7.36-.91-24.5-2.08-22.32-1.35-38.73-3.19-62.21-4.85-19.84-1.53-38.49-3.17-57.14-4.75L1565,450.54l-29-2.14c-31.23-2.06-62.42-4.56-91.39-8.93-5.84-.89-11.15-1.76-16.13-2.64s-9.63-1.82-14.16-2.71c-9.07-1.75-17.66-3.58-27.42-5.37l-5.28-.95-2.74-.48c-.92-.18-1.83-.49-2.77-.71-3.72-1-7.62-1.68-11.59-2.47s-8-1.43-12.13-2.08-8.17-1.42-12.22-2.11c-3.19-.66-5.67-1.47-9.15-2,9.34.59,16.63.34,24.44,1.29,3.92.4,8,1.07,12.51,1.87s9.62,1.65,15.54,2.45a9.31,9.31,0,0,1,4.33,2.25,21.5,21.5,0,0,0,3.57,2.73c-4.61-1.12-5.23-1.2-3.56-.75l4,1.07,1.39.38,1.52.23,3.3.52c4.59.73,9.76,1.49,13.79,2.08Z" style="fill: #fef0f5;opacity: 0.800000011920929;isolation: isolate"/>
          </g>
        </g>
      </g>
    </g>
  </g>
</svg>
