<svg xmlns="http://www.w3.org/2000/svg" xmlns:xlink="http://www.w3.org/1999/xlink" width="550.609" height="486.595" viewBox="0 0 550.609 486.595">
  <defs>
    <linearGradient id="linear-gradient" x1="-0.318" y1="0.5" x2="1.166" y2="0.5" gradientUnits="objectBoundingBox">
      <stop offset="0" stop-color="#ff0092"/>
      <stop offset="0.125" stop-color="#ff1384"/>
      <stop offset="0.379" stop-color="#ff4562"/>
      <stop offset="0.737" stop-color="#ff952b"/>
      <stop offset="1" stop-color="#ffd400"/>
    </linearGradient>
    <filter id="Ellipse_7" x="48.912" y="0" width="486.595" height="486.595" filterUnits="userSpaceOnUse">
      <feOffset input="SourceAlpha"/>
      <feGaussianBlur stdDeviation="28.657" result="blur"/>
      <feFlood flood-color="#ff0068" flood-opacity="0.749"/>
      <feComposite operator="in" in2="blur"/>
      <feComposite in="SourceGraphic"/>
    </filter>
    <linearGradient id="linear-gradient-2" x1="-0.589" y1="0.554" x2="1.082" y2="0.471" gradientUnits="objectBoundingBox">
      <stop offset="0.405" stop-color="#22034c"/>
      <stop offset="0.458" stop-color="#390253"/>
      <stop offset="0.656" stop-color="#8d016d"/>
      <stop offset="0.819" stop-color="#ca0081"/>
      <stop offset="0.938" stop-color="#f0008d"/>
      <stop offset="1" stop-color="#ff0092"/>
    </linearGradient>
    <linearGradient id="linear-gradient-3" x1="-0.564" y1="0.307" x2="1.187" y2="0.624" xlink:href="#linear-gradient-2"/>
    <linearGradient id="linear-gradient-4" x1="-0.528" y1="1.208" x2="0.967" y2="0.179" gradientUnits="objectBoundingBox">
      <stop offset="0.457" stop-color="#22034c"/>
      <stop offset="0.505" stop-color="#390253"/>
      <stop offset="0.686" stop-color="#8d016d"/>
      <stop offset="0.835" stop-color="#ca0081"/>
      <stop offset="0.943" stop-color="#f0008d"/>
      <stop offset="1" stop-color="#ff0092"/>
    </linearGradient>
    <linearGradient id="linear-gradient-5" x1="-0.109" y1="1.512" x2="0.785" y2="0.026" gradientUnits="objectBoundingBox">
      <stop offset="0.457" stop-color="#22034c"/>
      <stop offset="0.508" stop-color="#2b024f"/>
      <stop offset="0.595" stop-color="#460257"/>
      <stop offset="0.706" stop-color="#700165"/>
      <stop offset="0.838" stop-color="#ac0177"/>
      <stop offset="0.986" stop-color="#f7008f"/>
      <stop offset="1" stop-color="#ff0092"/>
    </linearGradient>
    <linearGradient id="linear-gradient-6" x1="-0.43" y1="0.554" x2="1.106" y2="0.465" xlink:href="#linear-gradient-4"/>
    <linearGradient id="linear-gradient-7" x1="-0.884" y1="0.589" x2="1.418" y2="0.441" xlink:href="#linear-gradient-4"/>
    <linearGradient id="linear-gradient-8" x1="-3.852" y1="3.098" x2="-3.227" y2="5.147" gradientUnits="objectBoundingBox">
      <stop offset="0" stop-color="#ffd400"/>
      <stop offset="0.048" stop-color="#ffb415"/>
      <stop offset="0.121" stop-color="#ff8a32"/>
      <stop offset="0.201" stop-color="#ff654c"/>
      <stop offset="0.287" stop-color="#ff4562"/>
      <stop offset="0.379" stop-color="#ff2c73"/>
      <stop offset="0.481" stop-color="#ff1881"/>
      <stop offset="0.598" stop-color="#ff0a8a"/>
      <stop offset="0.743" stop-color="#ff0290"/>
      <stop offset="1" stop-color="#ff0092"/>
    </linearGradient>
    <linearGradient id="linear-gradient-9" x1="0.549" y1="1.631" x2="0.484" y2="0.133" xlink:href="#linear-gradient-4"/>
    <linearGradient id="linear-gradient-10" x1="-3.878" y1="3.318" x2="-3.251" y2="5.58" xlink:href="#linear-gradient-8"/>
    <linearGradient id="linear-gradient-11" x1="0.979" y1="0.941" x2="0.16" y2="0.187" gradientUnits="objectBoundingBox">
      <stop offset="0.157" stop-color="#22034c"/>
      <stop offset="0.241" stop-color="#2e0250"/>
      <stop offset="0.396" stop-color="#50025a"/>
      <stop offset="0.605" stop-color="#86016b"/>
      <stop offset="0.857" stop-color="#d10083"/>
      <stop offset="1" stop-color="#ff0092"/>
    </linearGradient>
    <linearGradient id="linear-gradient-12" x1="1.415" y1="0.64" x2="-0.037" y2="0.418" gradientUnits="objectBoundingBox">
      <stop offset="0.319" stop-color="#22034c"/>
      <stop offset="0.395" stop-color="#320251"/>
      <stop offset="0.547" stop-color="#5f025f"/>
      <stop offset="0.759" stop-color="#a60175"/>
      <stop offset="1" stop-color="#ff0092"/>
    </linearGradient>
  </defs>
  <g id="Groupe_53" data-name="Groupe 53" transform="translate(-303.459 -36.789)">
    <g transform="matrix(1, 0, 0, 1, 303.46, 36.79)" filter="url(#Ellipse_7)">
      <circle id="Ellipse_7-2" data-name="Ellipse 7" cx="157.327" cy="157.327" r="157.327" transform="translate(134.88 85.97)" fill="url(#linear-gradient)"/>
    </g>
    <g id="Groupe_52" data-name="Groupe 52" transform="translate(303.459 235.799)">
      <circle id="Ellipse_8" data-name="Ellipse 8" cx="7.77" cy="7.77" r="7.77" transform="translate(82.68 0)" fill="url(#linear-gradient-2)"/>
      <circle id="Ellipse_9" data-name="Ellipse 9" cx="16.245" cy="16.245" r="16.245" transform="translate(20.031 33.186)" fill="url(#linear-gradient-3)"/>
      <circle id="Ellipse_10" data-name="Ellipse 10" cx="11.855" cy="11.855" r="11.855" transform="translate(58.971 172.643)" fill="url(#linear-gradient-4)"/>
      <circle id="Ellipse_11" data-name="Ellipse 11" cx="54.333" cy="54.333" r="54.333" transform="translate(133.319 154.517)" fill="url(#linear-gradient-5)"/>
      <g id="Groupe_48" data-name="Groupe 48" transform="translate(0 98.552)">
        <circle id="Ellipse_12" data-name="Ellipse 12" cx="19.758" cy="19.758" r="19.758" fill="url(#linear-gradient-6)"/>
        <circle id="Ellipse_13" data-name="Ellipse 13" cx="2.642" cy="2.642" r="2.642" transform="translate(49.442 10.648)" opacity="0.37" fill="url(#linear-gradient-7)"/>
      </g>
      <g id="Groupe_51" data-name="Groupe 51" transform="translate(283.987 183.046)">
        <g id="Groupe_49" data-name="Groupe 49" transform="translate(0 13.305)">
          <path id="Tracé_221" data-name="Tracé 221" d="M746.684,628.839c-18.272,4.713-36.985,6.76-41.017-2.952-7.868-18.956,55.5-45.9,62.747-48.91,18.008-7.477,35.644-12.94,49.665-15.389,16.938-2.958,26.513-1.164,29.274,5.485h0c7.868,18.957-55.5,45.9-62.748,48.91A312.746,312.746,0,0,1,746.684,628.839Zm-31.474-6.914c4.891,2.494,29.5-.325,65.52-15.275s55.391-30.392,57.078-35.614c-4.889-2.492-29.5.324-65.519,15.276S716.9,616.7,715.21,621.925Z" transform="translate(-704.992 -560.21)" fill="url(#linear-gradient-8)"/>
        </g>
        <circle id="Ellipse_14" data-name="Ellipse 14" cx="40.847" cy="40.847" r="40.847" transform="translate(29.462)" fill="url(#linear-gradient-9)"/>
        <g id="Groupe_50" data-name="Groupe 50" transform="translate(0.734 20.396)">
          <path id="Tracé_222" data-name="Tracé 222" d="M747.049,632c-18.272,4.713-36.987,6.762-41.02-2.95l9.334-3.874a1.11,1.11,0,0,0-.251-.385c3.548,2.981,28.629.528,65.98-14.978s56.8-31.534,57.193-36.151a1.1,1.1,0,0,0,.1.45l9.334-3.875c7.868,18.957-55.5,45.9-62.747,48.91A312.882,312.882,0,0,1,747.049,632Z" transform="translate(-706.029 -570.237)" fill="url(#linear-gradient-10)"/>
        </g>
      </g>
      <circle id="Ellipse_15" data-name="Ellipse 15" cx="20.429" cy="20.429" r="20.429" transform="translate(460.887 166.235)" fill="url(#linear-gradient-11)"/>
      <circle id="Ellipse_16" data-name="Ellipse 16" cx="18.759" cy="18.759" r="18.759" transform="translate(513.09 104.144)" fill="url(#linear-gradient-12)"/>
    </g>
  </g>
</svg>
