<svg id="Sattellite" xmlns="http://www.w3.org/2000/svg" width="215.685" height="215.685" viewBox="0 0 215.685 215.685">
  <path id="Tracé_420" data-name="Tracé 420" d="M689.234,360.42,798.307,469.493l74.5-19.962,19.962-74.5L783.694,265.959l-19.962,74.5Z" transform="translate(-683.174 -259.9)" fill="#a5a5d9"/>
  <path id="Tracé_421" data-name="Tracé 421" d="M1054.506,293.554l-8.278,2.218-17.744,66.221,109.073,109.074,19.962-74.5Z" transform="translate(-947.927 -281.435)" fill="#8585aa"/>
  <path id="Tracé_422" data-name="Tracé 422" d="M689.234,360.42l74.5-19.962,19.962-74.5-74.5,19.962Z" transform="translate(-683.174 -259.9)" fill="#bfbfe8"/>
  <path id="Tracé_423" data-name="Tracé 423" d="M807.146,292.633l-1.426-1.5,61.84-16.57.8,1.666Z" transform="translate(-774.08 -266.616)" fill="#d9d9f9"/>
  <path id="Tracé_424" data-name="Tracé 424" d="M1214.155,1119.669l-1.426-1.5,61.84-16.57.8,1.666Z" transform="translate(-1091.711 -912.037)" fill="#d9d9f9"/>
  <path id="Tracé_425" data-name="Tracé 425" d="M715.928,383.68l-1.5-1.426-16.57,61.84,1.666.8Z" transform="translate(-689.906 -350.656)" fill="#d9d9f9"/>
  <path id="Tracé_426" data-name="Tracé 426" d="M1545.141,782.738l-1.5-1.426-16.57,61.84,1.666.8Z" transform="translate(-1337.026 -662.082)" fill="#d9d9f9"/>
  <path id="Tracé_427" data-name="Tracé 427" d="M713.782,625.759l61.84-16.57-.14-1.843-.8-1.666-61.84,16.57,1.426,1.5Z" transform="translate(-701.598 -525.019)" fill="#d9d9f9"/>
  <path id="Tracé_428" data-name="Tracé 428" d="M1049.033,290.508l-16.57,61.84-1.843-.141-1.666-.8,16.57-61.84,1.5,1.426Z" transform="translate(-948.293 -278.324)" fill="#d9d9f9"/>
  <path id="Tracé_429" data-name="Tracé 429" d="M967.393,871.312l58.106-15.364-6.26-6.26-57.946,15.523Z" transform="translate(-895.49 -715.444)" fill="#d9d9f9"/>
  <path id="Tracé_430" data-name="Tracé 430" d="M794.96,684.491,852.9,668.965l-12.12-12.12L826.446,653l-41.388,11.09-2.014,8.482Z" transform="translate(-756.384 -561.95)" fill="#2a2ad3"/>
  <path id="Tracé_431" data-name="Tracé 431" d="M864.972,768.88l57.943-15.526,12.1,12.1-2.218,8.278-41.388,11.09-14.337-3.842Z" transform="translate(-820.321 -640.264)" fill="#2a2ad3"/>
  <path id="Tracé_432" data-name="Tracé 432" d="M1080.119,416.784l-3.842-14.337,11.09-41.388,8.278-2.218,12.12,12.12L1092.239,428.9Z" transform="translate(-985.224 -332.385)" fill="#2525b7"/>
  <path id="Tracé_433" data-name="Tracé 433" d="M1176.629,499.641l12.1,12.1,8.278-2.218,11.09-41.388-3.841-14.337-12.1-12.1Z" transform="translate(-1063.539 -397.046)" fill="#2525b7"/>
  <path id="Tracé_434" data-name="Tracé 434" d="M1223.664,810.886l8.277-2.218,2.218-8.278-12.119-12.119-2.218,8.278-8.278,2.218Z" transform="translate(-1090.787 -667.513)" fill="#575773"/>
  <path id="Tracé_435" data-name="Tracé 435" d="M1332.26,486.714l-2.218,8.278,12.119,12.119,2.218-8.278Z" transform="translate(-1183.262 -432.177)" fill="#575773"/>
  <path id="Tracé_436" data-name="Tracé 436" d="M909.988,908.985,922.108,921.1l8.278-2.218-12.119-12.119Z" transform="translate(-855.452 -759.988)" fill="#575773"/>
  <path id="Tracé_437" data-name="Tracé 437" d="M1043.454,932.985l57.943-15.526-12.12-12.12-14.337-3.842-41.388,11.09-2.014,8.482Z" transform="translate(-950.31 -755.876)" fill="#2a2ad3"/>
  <path id="Tracé_438" data-name="Tracé 438" d="M1113.466,1017.375l57.943-15.526,12.1,12.1-2.218,8.277-41.388,11.09-14.338-3.842Z" transform="translate(-1014.246 -834.19)" fill="#2a2ad3"/>
  <path id="Tracé_439" data-name="Tracé 439" d="M1328.614,665.278l-3.841-14.337,11.09-41.388,8.278-2.218,12.12,12.12L1340.733,677.4Z" transform="translate(-1179.15 -526.31)" fill="#2525b7"/>
  <path id="Tracé_440" data-name="Tracé 440" d="M1425.123,748.135l12.1,12.1,8.277-2.218,11.09-41.388-3.842-14.337-12.1-12.1Z" transform="translate(-1257.464 -590.972)" fill="#2525b7"/>
  <path id="Tracé_441" data-name="Tracé 441" d="M1472.159,1059.38l8.278-2.218,2.218-8.278-12.119-12.119-2.218,8.277-8.278,2.218Z" transform="translate(-1284.713 -861.439)" fill="#575773"/>
  <path id="Tracé_442" data-name="Tracé 442" d="M1580.754,735.208l-2.218,8.278,6.028,6.028-2.218,8.278,8.309-2.186,2.218-8.278Z" transform="translate(-1377.188 -626.103)" fill="#575773"/>
  <path id="Tracé_443" data-name="Tracé 443" d="M1158.483,1157.479,1170.6,1169.6l8.278-2.218,2.186-8.309-8.277,2.218-6.028-6.028Z" transform="translate(-1049.377 -953.914)" fill="#575773"/>
  <path id="Tracé_444" data-name="Tracé 444" d="M747.129,496.615l6.06,6.06,41.388-11.09,10.5-10.5,4.435-16.555L751.565,480.06Z" transform="translate(-728.355 -414.868)" fill="#3c3cef"/>
  <path id="Tracé_445" data-name="Tracé 445" d="M985.811,552.041l-2.218,8.278-8.278,2.218L963.2,550.417l2.218-8.278,8.278-2.218Z" transform="translate(-896.975 -473.701)" fill="#575773"/>
  <path id="Tracé_446" data-name="Tracé 446" d="M675.977,635.061l6.06,6.06-8.278,2.218-12.119-12.119,2.218-8.278,8.278-2.218,6.034,6.034Z" transform="translate(-661.639 -536.759)" fill="#575773"/>
  <path id="Tracé_447" data-name="Tracé 447" d="M1066.613,250.484l-2.218,8.278-6.06-6.06-8.278,2.218-6.06-6.06,2.218-8.278,8.278-2.218Z" transform="translate(-960.033 -238.365)" fill="#575773"/>
  <path id="Tracé_448" data-name="Tracé 448" d="M777.429,362l57.944-15.526,4.64-16.351-6.264-6.264-41.388,11.09-10.5,10.5Z" transform="translate(-752.002 -305.081)" fill="#3c3cef"/>
  <path id="Tracé_449" data-name="Tracé 449" d="M748.5,335.985l8.278-2.218,2.2-8.2-6.061-6.061-8.268,2.181-2.208,8.241Z" transform="translate(-724.697 -301.686)" fill="#575773"/>
  <path id="Tracé_450" data-name="Tracé 450" d="M1294.6,544.1l-15.363,58.106-6.26-6.26L1288.5,538Z" transform="translate(-1138.731 -472.202)" fill="#d9d9f9"/>
  <path id="Tracé_451" data-name="Tracé 451" d="M1043.332,622.626l97.979,97.979,1.807-.762.762-1.807L1045.9,620.058l.231,2.8Z" transform="translate(-959.513 -536.239)" fill="#575773"/>
  <path id="Tracé_452" data-name="Tracé 452" d="M1143.763,292.9l-.23-2.8,97.979,97.979-.762,1.807Z" transform="translate(-1037.71 -278.743)" fill="#575773"/>
  <path id="Tracé_453" data-name="Tracé 453" d="M716.186,720.481l-2.8-.231,97.979,97.979,1.807-.762Z" transform="translate(-702.023 -614.43)" fill="#575773"/>
  <path id="Tracé_454" data-name="Tracé 454" d="M744.649,321.685l-2.208,8.241,8.278-2.218,2.2-8.2Z" transform="translate(-724.697 -301.686)" fill="#8888b3"/>
  <path id="Tracé_455" data-name="Tracé 455" d="M663.857,622.942l-2.218,8.278,8.273-2.213,2.223-8.282Z" transform="translate(-661.639 -536.759)" fill="#8888b3"/>
  <path id="Tracé_456" data-name="Tracé 456" d="M1046.216,240.583,1044,248.861l8.28-2.215,2.215-8.28Z" transform="translate(-960.033 -238.365)" fill="#8888b3"/>
  <path id="Tracé_457" data-name="Tracé 457" d="M965.414,542.14l-2.218,8.278,8.278-2.218,2.218-8.278Z" transform="translate(-896.975 -473.701)" fill="#8888b3"/>
  <path id="Tracé_458" data-name="Tracé 458" d="M701.535,620.724l6.034,6.034-2.193,8.3-6.064-6.055Z" transform="translate(-691.039 -536.759)" fill="#414156"/>
  <path id="Tracé_459" data-name="Tracé 459" d="M1003.109,539.922l-2.218,8.278,121.225,121.225,2.218-8.278-12.119-12.119-1.707,6.22L1068.09,612.83l1.675-6.252-12.119-12.119-1.675,6.252-42.418-42.417,1.675-6.252Z" transform="translate(-926.392 -473.701)" fill="#414156"/>
  <path id="Tracé_460" data-name="Tracé 460" d="M1081.7,246.645l2.215-8.28L1205.144,359.59l-2.218,8.278-12.119-12.119,1.691-6.236-42.466-42.465-1.675,6.252-12.119-12.119,1.676-6.252-42.4-42.4-1.691,6.236Z" transform="translate(-989.459 -238.365)" fill="#414156"/>
</svg>
