<svg xmlns="http://www.w3.org/2000/svg" viewBox="0 0 41.228 27.556">
  <g transform="translate(948 -968.2)">
    <path d="M-907.319,970.472a4.282,4.282,0,0,0-1.22-1.388,4.457,4.457,0,0,0-2.65-.883h-32.393a4.456,4.456,0,0,0-2.65.883,4.282,4.282,0,0,0-1.22,1.388,4.076,4.076,0,0,0-.547,2.146v18.721a4.6,4.6,0,0,0,.631,2.272,4.814,4.814,0,0,0,1.262,1.346,4.39,4.39,0,0,0,2.524.8h32.393a4.39,4.39,0,0,0,2.524-.8,4.306,4.306,0,0,0,1.262-1.346,4.2,4.2,0,0,0,.631-2.272V972.617A4.776,4.776,0,0,0-907.319,970.472Zm-36.264-.421h32.393a2.5,2.5,0,0,1,1.136.252l-16.239,12.621a1.616,1.616,0,0,1-1.052.379,1.616,1.616,0,0,1-1.052-.379L-944.634,970.3A1.945,1.945,0,0,1-943.583,970.051Zm-2.608,21.329V972.659a2.707,2.707,0,0,1,.21-1.01l12.242,9.508-12.242,11.233A2.891,2.891,0,0,1-946.191,991.38Zm35,2.566h-32.393a2.505,2.505,0,0,1-1.136-.252l12.411-11.443,2.692,2.1a3.721,3.721,0,0,0,2.188.757,3.457,3.457,0,0,0,2.188-.757l2.692-2.1,12.411,11.443A1.947,1.947,0,0,1-911.189,993.946Zm-9.844-12.831,12.242-9.508a2.542,2.542,0,0,1,.21,1.01v18.721a2.709,2.709,0,0,1-.21,1.01Z" transform="translate(0 0)" fill="#ff0068"/>
  </g>
</svg>
