<svg xmlns="http://www.w3.org/2000/svg" xmlns:xlink="http://www.w3.org/1999/xlink" viewBox="0 0 422.22 328.01">
    <defs>
        <linearGradient id="gradient-logo-blue" x1="-26.35" y1="225.59" x2="1137.26" y2="543.97"
                        gradientUnits="userSpaceOnUse">
            <stop offset="0" stop-color="#ffd400"/>
            <stop offset="0.02" stop-color="#ffc10d"/>
            <stop offset="0.08" stop-color="#ff8e30"/>
            <stop offset="0.15" stop-color="#ff634e"/>
            <stop offset="0.21" stop-color="#ff3f67"/>
            <stop offset="0.28" stop-color="#ff237a"/>
            <stop offset="0.34" stop-color="#ff1087"/>
            <stop offset="0.41" stop-color="#ff048f"/>
            <stop offset="0.47" stop-color="#ff0092"/>
        </linearGradient>
        <linearGradient id="gradiant-logo-blue-2" x1="18.17" y1="29.53" x2="394.71" y2="219.12"
                        gradientUnits="userSpaceOnUse">
            <stop offset="0" stop-color="#ffd400"/>
            <stop offset="0.31" stop-color="#ff8b32"/>
            <stop offset="0.64" stop-color="#ff4066"/>
            <stop offset="0.88" stop-color="#ff1286"/>
            <stop offset="1" stop-color="#ff0092"/>
        </linearGradient>
    </defs>
    <g id="Calque_2" data-name="Calque 2">
        <g id="Calque_1-2" data-name="Calque 1">
            <path d="M246.09,51.38A159.63,159.63,0,0,0,182,41.88L210.78,0Z" style="fill:#22034c"/>
            <path d="M153.17,304.43l-6.64,9.66c-5.94,8.65-16.39,13.92-27.6,13.92H6.69c-4.33,0-6.48-4-6.68-7.36a5.84,5.84,0,0,1,.65-3c0-3.55,8.26-10.33,10.78-12.44a52.65,52.65,0,0,1,15.72-8.91c17.06-6.27,36.28-6,54.15-5C106.11,292.81,129.11,297.31,153.17,304.43Z"
                  style="fill:#22034c"/>
            <path d="M414.83,316.24H299.92c-11.25,0-21.66-5.27-27.64-13.92l-6.59-9.62h0l-41.73-60.77-9-13.13a6.66,6.66,0,0,0-11,0l-4.52,6.59-39.75,51.87c-14.48-2.91-30-5.85-46.83-7.91-68.95-8.45-98,25.1-112.51,47.46A7,7,0,0,1,1,315.67L71.64,202.44c6.56-9.56,29.71-31.91,37.81-40.41,59.47-62.36,189.45-44.66,239,38.15L421.07,306C424.16,310.44,420.63,316.24,414.83,316.24Z"
                  style="fill:#22034c"/>
            <path d="M265.69,292.7h0c-35,14-68.63,5.77-110.68-2.68-14.48-2.91-30-5.86-46.82-7.92-68.95-8.44-93,13.22-107.5,35.58C1.77,315,32.85,230.1,88.88,177.37a28.13,28.13,0,0,1,4.54-.77c30-2.91,75.66,33.11,106,48.79,10.39,5.33,19,8.3,24.51,6.54l.18-.06Z"
                  style="fill:url(#gradient-logo-blue)"/>
            <path d="M352.5,206.21c-2.38-3.68-4.79-7.21-7.32-10.66,0,0-.06-.09-.09-.11-53-72.34-135.85-93.87-223.31-66.2a319.73,319.73,0,0,0-50.65,21.13c8.07-15,16.41-30.77,28.73-53.52,11.12-20.54,21.1-38.91,21.31-39a159.26,159.26,0,0,1,124.92-6.45c56.56,20.57,101,72.16,105.83,139.14C352.33,196.47,352.48,201.73,352.5,206.21Z"
                  style="fill:url(#gradiant-logo-blue-2)"/>
        </g>
    </g>
</svg>