<svg xmlns="http://www.w3.org/2000/svg" xmlns:xlink="http://www.w3.org/1999/xlink" viewBox="0 0 135.99 83">
    <defs>
        <linearGradient id="gradient-auroralpes-logo-2" x1="32.43" y1="34.02" x2="207.9" y2="82.03"
                        gradientUnits="userSpaceOnUse">
            <stop offset="0" stop-color="#ffd400"/>
            <stop offset="0.02" stop-color="#ffc10d"/>
            <stop offset="0.08" stop-color="#ff8e30"/>
            <stop offset="0.15" stop-color="#ff634e"/>
            <stop offset="0.21" stop-color="#ff3f67"/>
            <stop offset="0.28" stop-color="#ff237a"/>
            <stop offset="0.34" stop-color="#ff1087"/>
            <stop offset="0.41" stop-color="#ff048f"/>
            <stop offset="0.47" stop-color="#ff0092"/>
        </linearGradient>
        <linearGradient id="gradient-auroralpes-logo-white" x1="39.14" y1="4.45" x2="95.92" y2="33.04"
                        gradientUnits="userSpaceOnUse">
            <stop offset="0" stop-color="#ffd400"/>
            <stop offset="0.31" stop-color="#ff8b32"/>
            <stop offset="0.64" stop-color="#ff4066"/>
            <stop offset="0.88" stop-color="#ff1286"/>
            <stop offset="1" stop-color="#ff0092"/>
        </linearGradient>
    </defs>
    <g>
        <g id="Auro">
            <path style="fill:#fff"
                  d="M12.66,75.45H5.88L4.62,78.56H0l7.07-16h4.46l7.1,16H13.92ZM11.33,72.1,9.27,67,7.21,72.1Z"/>
            <path style="fill:#fff"
                  d="M32.52,66.15V78.56H28.38V77.23a4.55,4.55,0,0,1-1.65,1.15,5.56,5.56,0,0,1-2,.38,5.21,5.21,0,0,1-3.83-1.41,5.79,5.79,0,0,1-1.43-4.26V66.15h4.35v6.23a3.15,3.15,0,0,0,.53,2,1.88,1.88,0,0,0,1.53.64,2.15,2.15,0,0,0,1.68-.72,3.19,3.19,0,0,0,.65-2.21v-6Z"/>
            <path style="fill:#fff"
                  d="M41.18,66.37A6.64,6.64,0,0,1,43.62,66v3.91c-.4,0-.72-.07-1-.07a3,3,0,0,0-2.19.76,3.07,3.07,0,0,0-.79,2.31v5.7H35.31V66.15h4.15v1.49A4,4,0,0,1,41.18,66.37Z"/>
            <path style="fill:#fff"
                  d="M47.92,77.94a6.16,6.16,0,0,1-3.41-5.61,6.15,6.15,0,0,1,3.4-5.57,8.45,8.45,0,0,1,7.22,0A6.11,6.11,0,0,1,57.63,69a6.6,6.6,0,0,1,0,6.62,6.16,6.16,0,0,1-2.5,2.29,8.33,8.33,0,0,1-7.21,0Zm5.47-3.42a3.1,3.1,0,0,0,.74-2.19,3,3,0,0,0-.74-2.15,2.64,2.64,0,0,0-3.75,0,3,3,0,0,0-.73,2.15,3.1,3.1,0,0,0,.73,2.19,2.62,2.62,0,0,0,3.75,0Z"/>
            <path style="fill:#fff"
                  d="M66.41,66.37A6.55,6.55,0,0,1,68.84,66v3.91c-.39,0-.72-.07-1-.07a3,3,0,0,0-2.19.76,3.07,3.07,0,0,0-.79,2.31v5.7H60.53V66.15h4.15v1.49A4.05,4.05,0,0,1,66.41,66.37Z"/>
            <path style="fill:#fff"
                  d="M80.54,75.45H73.76L72.5,78.56H67.88l7.07-16h4.47l7.09,16H81.8ZM79.21,72.1,77.15,67,75.09,72.1Z"/>
            <path style="fill:#fff" d="M87.59,61.58h4.35v17H87.59Z"/>
            <path style="fill:#fff"
                  d="M105.63,66.74a5.65,5.65,0,0,1,2.2,2.24,7.44,7.44,0,0,1,0,6.75,5.74,5.74,0,0,1-2.2,2.25,6.16,6.16,0,0,1-3.08.78,4.6,4.6,0,0,1-3.45-1.3V83H94.75V66.15h4.14v1.24A4.52,4.52,0,0,1,102.55,66,6.06,6.06,0,0,1,105.63,66.74Zm-2.11,7.78a3.58,3.58,0,0,0,0-4.33,2.63,2.63,0,0,0-3.76,0,3.58,3.58,0,0,0,0,4.33,2.63,2.63,0,0,0,3.76,0Z"/>
            <path style="fill:#fff"
                  d="M123.27,73.46h-9a2.51,2.51,0,0,0,1.06,1.47,3.6,3.6,0,0,0,2,.52,4.26,4.26,0,0,0,1.55-.26,4.41,4.41,0,0,0,1.31-.82l2.29,2.38a6.74,6.74,0,0,1-5.28,2,8.47,8.47,0,0,1-3.83-.82,6.26,6.26,0,0,1-.13-11.17,7.84,7.84,0,0,1,6.86-.06,5.88,5.88,0,0,1,2.39,2.22,6.51,6.51,0,0,1,.89,3.45S123.31,72.77,123.27,73.46ZM115,69.61a2.57,2.57,0,0,0-.86,1.56h5.08a2.57,2.57,0,0,0-.86-1.56,2.76,2.76,0,0,0-3.36,0Z"/>
            <path style="fill:#fff"
                  d="M126.79,78.41a8.15,8.15,0,0,1-2.42-.93l1.3-3a7.23,7.23,0,0,0,2,.83,8.87,8.87,0,0,0,2.32.31,3.54,3.54,0,0,0,1.49-.22.67.67,0,0,0,.45-.62c0-.28-.18-.47-.54-.59a12.11,12.11,0,0,0-1.7-.33,16.35,16.35,0,0,1-2.53-.48,4,4,0,0,1-1.8-1.1,3.14,3.14,0,0,1-.75-2.24,3.35,3.35,0,0,1,.71-2.12,4.58,4.58,0,0,1,2.07-1.46,8.83,8.83,0,0,1,3.26-.54,13.46,13.46,0,0,1,2.68.27,8.21,8.21,0,0,1,2.22.78l-1.31,3a7.24,7.24,0,0,0-3.57-.91,3.58,3.58,0,0,0-1.51.24.72.72,0,0,0-.48.63c0,.29.18.49.53.6a10.9,10.9,0,0,0,1.74.36,18.48,18.48,0,0,1,2.54.53,3.88,3.88,0,0,1,1.75,1.08,3.14,3.14,0,0,1,.74,2.21,3.39,3.39,0,0,1-.71,2.1,4.66,4.66,0,0,1-2.09,1.45,9.47,9.47,0,0,1-3.33.52A13.2,13.2,0,0,1,126.79,78.41Z"/>
            <path style="fill:#fff" d="M73.51,7.75a24.06,24.06,0,0,0-9.66-1.44L68.19,0Z"/>
            <path style="fill:#fff"
                  d="M59.5,45.91l-1,1.45a5,5,0,0,1-4.16,2.1H37.41a1.09,1.09,0,0,1-1-1.11.86.86,0,0,1,.1-.44c0-.54,1.25-1.56,1.63-1.88a8,8,0,0,1,2.37-1.35,20.43,20.43,0,0,1,8.16-.74A46.9,46.9,0,0,1,59.5,45.91Z"/>
            <path style="fill:#fff"
                  d="M99,47.69H81.63a5.06,5.06,0,0,1-4.17-2.1l-1-1.45h0L70.17,35l-1.36-2a1,1,0,0,0-1.65,0l-.69,1-6,7.82c-2.18-.44-4.52-.88-7.06-1.19-10.4-1.28-14.78,3.78-17,7.15a1,1,0,0,1,.1-.17L47.2,30.53c1-1.44,4.48-4.81,5.71-6.1,9-9.4,28.56-6.73,36,5.76l11,16A1,1,0,0,1,99,47.69Z"/>
            <path style="fill:url(#gradient-auroralpes-logo-2)"
                  d="M76.47,44.14h0c-5.28,2.11-10.35.87-16.69-.41-2.18-.44-4.52-.88-7.06-1.19-10.4-1.27-14,2-16.21,5.37.17-.41,4.86-13.21,13.3-21.16a4,4,0,0,1,.69-.12c4.52-.44,11.41,5,16,7.36,1.57.8,2.87,1.25,3.7,1h0Z"/>
            <path style="fill:url(#gradient-auroralpes-logo-white)"
                  d="M89.56,31.1c-.36-.56-.73-1.09-1.11-1.61v0c-8-10.91-20.49-14.15-33.67-10a48.55,48.55,0,0,0-7.64,3.18c1.22-2.26,2.47-4.63,4.33-8.07,1.68-3.09,3.18-5.86,3.21-5.88a24.3,24.3,0,0,1,34.8,20C89.53,29.63,89.55,30.42,89.56,31.1Z"/>
        </g>
    </g>
</svg>