<svg xmlns="http://www.w3.org/2000/svg" viewBox="0 0 441.541 460.048">
  <g id="Groupe_5" data-name="Groupe 5" transform="translate(-2123.051 -601.792)">
    <g id="Groupe_2" data-name="Groupe 2" transform="translate(2123.051 601.792)">
      <path id="trace-char-6" data-name="Tracé 6" d="M2270.007,730.068l-3.242-1.7a1.756,1.756,0,0,1-.215-.16Z" transform="translate(-2076.441 -560.731)" fill="#6b6a6a"/>
      <path id="trace-char-7" data-name="Tracé 7" d="M2306.017,724.069c-8.523,16.144-23.372,25.223-34.159,21.314l-3.457-1.86a15.159,15.159,0,0,1-4.382-4.816,25.232,25.232,0,0,1-3.113-11.282c-.417-7.325,1.526-15.907,5.886-24.139,4.359-8.275,10.4-14.688,16.677-18.474a24.666,24.666,0,0,1,11.093-3.712,15.135,15.135,0,0,1,8.2,1.664C2313.591,688.47,2315.048,706.985,2306.017,724.069Z" transform="translate(-2078.292 -576.045)" fill="#493b69"/>
      <path id="trace-char-8" data-name="Tracé 8" d="M2197.766,627.426l-11.522-6.225a15.488,15.488,0,0,0-2.189-.945,16.594,16.594,0,0,0-5.987-.721,24.493,24.493,0,0,0-11.093,3.692c-6.3,3.788-12.337,10.221-16.7,18.475-4.36,8.232-6.281,16.836-5.864,24.161a25.017,25.017,0,0,0,3.113,11.282,6.973,6.973,0,0,0,.687,1.041,12.562,12.562,0,0,0,1.946,2.312,11.211,11.211,0,0,0,1.942,1.623l12.075,6.518c-5.811,2.326-11.608,2.77-16.7.929l-4.373-2.369a17.925,17.925,0,0,1-4.694-4.784,12.8,12.8,0,0,1-.865-1.328,31.8,31.8,0,0,1-3.956-14.3c-.531-9.285,1.933-20.167,7.467-30.619,5.531-10.492,13.178-18.616,21.157-23.427a31.408,31.408,0,0,1,14.067-4.7,19.48,19.48,0,0,1,3.327.044,18.278,18.278,0,0,1,7.061,2.062C2192.666,613.31,2196.41,619.572,2197.766,627.426Z" transform="translate(-2119.65 -599.78)" fill="#493b69"/>
      <path id="trace-char-9" data-name="Tracé 9" d="M2188.143,659.7c-6.8,12.882-16.749,22.2-26.621,26.117l-12.076-6.518a11.272,11.272,0,0,1-1.942-1.623,12.6,12.6,0,0,1-1.946-2.312,6.9,6.9,0,0,1-.687-1.041,25.017,25.017,0,0,1-3.113-11.282c-.417-7.325,1.5-15.928,5.863-24.161,4.36-8.253,10.4-14.687,16.7-18.474a24.5,24.5,0,0,1,11.094-3.693,16.609,16.609,0,0,1,5.987.721,15.536,15.536,0,0,1,2.189.944l11.521,6.225C2196.821,634.725,2194.594,647.5,2188.143,659.7Z" transform="translate(-2116.993 -596.959)" fill="#6b6a6a"/>
      <path id="trace-char-10" data-name="Tracé 10" d="M2174.269,651.492c-6.823,12.924-16.849,22.306-26.765,26.185a12.6,12.6,0,0,1-1.946-2.312,6.9,6.9,0,0,1-.687-1.041,25.017,25.017,0,0,1-3.113-11.282c-.417-7.325,1.5-15.928,5.863-24.161,4.36-8.253,10.4-14.687,16.7-18.474a24.5,24.5,0,0,1,11.094-3.693,16.609,16.609,0,0,1,5.987.721C2182.79,627.379,2180.5,639.7,2174.269,651.492Z" transform="translate(-2116.993 -596.959)" fill="#6b6a6a"/>
      <path id="trace-char-11" data-name="Tracé 11" d="M2177.263,863.781s.852,4.98,5.572,6.142a10.327,10.327,0,0,0,8.292-1.641L2234.1,751.528l-11.28-6.934Z" transform="translate(-2105.443 -555.409)" fill="#2e2542"/>
      <path id="trace-char-12" data-name="Tracé 12" d="M2225.4,748.916s1.117,61.054,1.631,67.592c.873,11.1,14.952,11.857,13.728-2.691-1.432-17.022-2.979-70.252-2.94-69.549Z" transform="translate(-2089.806 -555.516)" fill="#2e2542"/>
      <path id="trace-char-13" data-name="Tracé 13" d="M2237.357,750.3l33.753,121.39s15.123,11.47,12.729-8.153-35.477-119.628-35.477-119.628Z" transform="translate(-2085.923 -555.63)" fill="#2e2542"/>
      <path id="trace-char-14" data-name="Tracé 14" d="M2261.6,735.319a10.168,10.168,0,0,1-.8,4.316c-2.86,6.964-13.075,12.382-25.4,12.835s-22.908-4.2-26.272-10.931a10.172,10.172,0,0,1-1.118-4.245c-.329-8.939,11.414-16.607,26.2-17.152S2261.27,726.38,2261.6,735.319Z" transform="translate(-2095.457 -563.361)" fill="#765ea8"/>
      <path id="trace-char-15" data-name="Tracé 15" d="M2261.6,731.59l.315,8.562c.329,8.938-11.412,16.628-26.2,17.172s-27.061-6.26-27.391-15.2l-.315-8.562a10.172,10.172,0,0,0,1.119,4.245c3.365,6.735,13.949,11.385,26.272,10.931s22.535-5.87,25.4-12.835A10.175,10.175,0,0,0,2261.6,731.59Z" transform="translate(-2095.456 -559.632)" fill="#493b69"/>
      <path id="trace-char-16" data-name="Tracé 16" d="M2243.964,693.063l1.864,50.6a5.332,5.332,0,0,1-.4,2.211c-1.479,3.589-6.729,6.375-13.077,6.61s-11.791-2.16-13.529-5.629a5.322,5.322,0,0,1-.562-2.175l-1.864-50.6a5.32,5.32,0,0,0,.562,2.175c1.738,3.47,7.179,5.862,13.528,5.629s11.6-3.021,13.077-6.61A5.3,5.3,0,0,0,2243.964,693.063Z" transform="translate(-2092.731 -572.146)" fill="#493b69"/>
      <path id="trace-char-17" data-name="Tracé 17" d="M2243.964,694.98a5.288,5.288,0,0,1-.4,2.211c-1.477,3.589-6.728,6.375-13.077,6.609s-11.79-2.159-13.528-5.629A5.313,5.313,0,0,1,2216.4,696c-.17-4.594,5.875-8.54,13.477-8.819S2243.795,690.386,2243.964,694.98Z" transform="translate(-2092.732 -574.064)" fill="#6b6a6a"/>
      <path id="trace-char-18" data-name="Tracé 18" d="M2290.174,712.4c-2.755,5.214-7.547,8.145-11.028,6.888l-1.047-.55a4.891,4.891,0,0,1-1.482-1.606,8.141,8.141,0,0,1-1.006-3.645,16.352,16.352,0,0,1,7.286-13.761,7.911,7.911,0,0,1,3.582-1.2,4.889,4.889,0,0,1,2.645.536C2292.624,700.914,2293.091,706.89,2290.174,712.4Z" transform="translate(-2073.504 -570.374)" fill="#2e2542"/>
      <path id="trace-char-19" data-name="Tracé 19" d="M2309.1,741.9a12.9,12.9,0,0,1-1.339-.6,8.786,8.786,0,0,1-1.048-.652Z" transform="translate(-2063.397 -556.689)" fill="#6b6a6a" opacity="0.52"/>
      <path id="trace-char-20" data-name="Tracé 20" d="M2333.052,722.257l.037,1.023-4.09,6.466-7.247,10.493a17.884,17.884,0,0,1-4.893-.53l-5.332-2.858-34.049-18.235,11.027-19.688,20.664,10.824Z" transform="translate(-2072.891 -570.241)" fill="#2e2542"/>
      <path id="trace-char-21" data-name="Tracé 21" d="M2341.46,703.676a15.135,15.135,0,0,0-8.2-1.664,24.668,24.668,0,0,0-11.093,3.712c-6.28,3.786-12.318,10.2-16.677,18.474-4.359,8.232-6.3,16.814-5.885,24.139a25.226,25.226,0,0,0,3.113,11.282,15.158,15.158,0,0,0,4.381,4.816l-37.917-20.476-28.164-15.212-79.5-42.931-12.076-6.518a11.272,11.272,0,0,1-1.942-1.623,12.6,12.6,0,0,1-1.946-2.312,6.9,6.9,0,0,1-.687-1.041,25.017,25.017,0,0,1-3.113-11.282c-.417-7.325,1.5-15.928,5.863-24.161,4.36-8.253,10.4-14.687,16.7-18.474a24.5,24.5,0,0,1,11.094-3.693,16.609,16.609,0,0,1,5.987.721,15.536,15.536,0,0,1,2.189.944l11.521,6.225Z" transform="translate(-2116.993 -596.959)" fill="#2e2542"/>
      <path id="trace-char-22" data-name="Tracé 22" d="M2190.075,612.155a18.278,18.278,0,0,0-7.062-2.062,19.467,19.467,0,0,0-3.327-.043,31.4,31.4,0,0,0-14.066,4.7c-7.98,4.81-15.626,12.934-21.158,23.427-5.534,10.452-8,21.334-7.466,30.619a31.79,31.79,0,0,0,3.956,14.3,12.8,12.8,0,0,0,.865,1.327,17.928,17.928,0,0,0,4.694,4.784L2132.636,681a19.03,19.03,0,0,1-5.557-6.111,31.85,31.85,0,0,1-3.958-14.3c-.53-9.287,1.933-20.168,7.467-30.619,5.531-10.492,13.179-18.616,21.157-23.428a31.44,31.44,0,0,1,14.068-4.7,19.223,19.223,0,0,1,10.386,2.106l1.475.865Z" transform="translate(-2123.051 -601.792)" fill="#765ea8"/>
      <path id="trace-char-23" data-name="Tracé 23" d="M2324.259,692.056l1.581,42.916a4.373,4.373,0,0,1-.349,1.873c-1.246,3.058-5.7,5.417-11.085,5.616l-.25.009a17.882,17.882,0,0,1-4.892-.53,10.828,10.828,0,0,1-5.333-2.858,5.824,5.824,0,0,1-1.015-1.406,4.366,4.366,0,0,1-.465-1.844l-1.582-42.916a4.438,4.438,0,0,0,.466,1.844c1.466,2.937,6.1,4.961,11.489,4.763s9.838-2.558,11.086-5.595A4.474,4.474,0,0,0,2324.259,692.056Z" transform="translate(-2065.295 -572.473)" fill="#2e2542"/>
      <path id="trace-char-24" data-name="Tracé 24" d="M2324.254,693.676a4.54,4.54,0,0,1-.34,1.875c-1.254,3.046-5.709,5.409-11.1,5.608s-10-1.831-11.478-4.776a4.509,4.509,0,0,1-.477-1.845c-.143-3.9,4.985-7.245,11.436-7.484S2324.109,689.777,2324.254,693.676Z" transform="translate(-2065.297 -574.103)" fill="#493b69"/>
    </g>
    <g id="Groupe_4" data-name="Groupe 4" transform="translate(2349.311 650.845)">
      <g id="Groupe_3" data-name="Groupe 3" transform="translate(0 0)">
        <path id="trace-char-25" data-name="Tracé 25" d="M2444.859,941.438c-1.82,7.239-8.429,17.744-32.066-9.638l.147-3.368c-3.5-3.838-5.828-6.8-5.828-6.8a17.57,17.57,0,0,1-.444-2.964c-.239-3.482.447-8.638,6.962-7.411a14.751,14.751,0,0,1,1.721.431v.016c-.21.326-2.726,4.706-.4,12.539a41.168,41.168,0,0,0,7.347,13.418c5.383,4.694,11.228,8.493,15.759,8.2C2441.891,945.611,2443.917,943.927,2444.859,941.438Z" transform="translate(-2257.201 -550.386)" fill="#493b69"/>
        <path id="trace-char-26" data-name="Tracé 26" d="M2443.75,968.054l0,.111v.032c0,.063-.011.145-.006.24a12.611,12.611,0,0,1-.661,4.151.217.217,0,0,1-.029.1c-.942,2.49-2.968,4.173-6.8,4.426-4.531.294-10.376-3.505-15.759-8.2a41.168,41.168,0,0,1-7.347-13.418c-2.328-7.833.188-12.213.4-12.539a35.991,35.991,0,0,1,8.015,3.879l-4.286-30.676,10.658-101.278,11.485,87.252s-.046,41.528,1.888,51.209C2442.233,958.007,2443.726,963.514,2443.75,968.054Z" transform="translate(-2255.401 -581.632)" fill="#40335c"/>
        <path id="trace-char-27" data-name="Tracé 27" d="M2420.314,922s2.434-15.033.5-21.724-4.781-8.952-4.781-8.952Z" transform="translate(-2254.147 -556.801)" fill="#765ea8"/>
        <path id="trace-char-28" data-name="Tracé 28" d="M2426.223,894.532l-.89,22.1-.479,11.682-.212,5.489-.147,3.368-.9,22.582c-15.465,15.357-49.96,1.2-52.4-4.985a10.594,10.594,0,0,1-.584-2.034s20.157,1.281,11.733-2.871c7.84.445,20.293-4.125,20.293-4.125l-4.333-49.279Z" transform="translate(-2268.903 -555.759)" fill="#40335c"/>
        <path id="trace-char-29" data-name="Tracé 29" d="M2370.622,939.37c-.711-4.181,3.495-4.176,10.151-3.035a14.973,14.973,0,0,0,1.583.164C2390.78,940.651,2370.622,939.37,2370.622,939.37Z" transform="translate(-2268.922 -542.393)" fill="#765ea8"/>
        <path id="trace-char-30" data-name="Tracé 30" d="M2454.6,931.587l-11.436-83.3,6.766,85.88c-18.969,14.514-38.2,15.574-53.368,12.516h-.032a81.352,81.352,0,0,1-29.686-12.546c-5.605-22.358,7.667-172.015,8.591-182.407l.058-.576a.2.2,0,0,1,.034.047c.78.816,13.329,14.057,30.357,15.6,17.571,1.583,40.715-27.2,40.715-27.2,30.063,6.716,39.249,170.381,39.249,170.381Z" transform="translate(-2270.57 -606.085)" fill="#2e2542"/>
        <path id="trace-char-31" data-name="Tracé 31" d="M2444.152,745.723l-5.76-25.015s-16.907,55.3-65.354,36.578c0,0,15.76,20.97,35.08,16.057S2444.152,745.723,2444.152,745.723Z" transform="translate(-2268.112 -612.22)" fill="#493b69"/>
        <path id="trace-char-32" data-name="Tracé 32" d="M2440.982,722.995l-7.955-9.328s-17.339,39-31.91,41.4-36.052-2.134-36.052-2.134l10.562,6.639s23.156,13.432,45.521-6.074S2440.982,722.995,2440.982,722.995Z" transform="translate(-2270.701 -614.507)" fill="#765ea8"/>
        <path id="trace-char-33" data-name="Tracé 33" d="M2448.4,718.018c-.012.972-1.758,5.468-4.567,11.434-6.426,13.687-18.453,35.02-27.9,38.874-9.312,3.785-24.655,2.072-33.377.624a.016.016,0,0,0-.018-.015l-.271-.038.158-.037.765-4.347-8.475-29.343-4.044,28.242c-.235-3.385-5.072,48.725-13.293,47.036-6.247-1.284-18.237-22.274-23.675-32.32a16.773,16.773,0,0,1-1.711-10.964c2.433-13.139,8.139-45.539,7.522-57.914-.571-11.6,41.644-30.567,63.7-39.667a16.67,16.67,0,0,1,20.479,6.545C2433.2,691.234,2448.446,715.817,2448.4,718.018Z" transform="translate(-2281.536 -629.236)" fill="#2e2542"/>
        <path id="trace-char-34" data-name="Tracé 34" d="M2351.267,769.246l-6.456,2.966-42.132-27.666,13.113-5.344s23.162,12.551,25.444,12.326S2351.267,769.246,2351.267,769.246Z" transform="translate(-2290.965 -606.212)" fill="#493b69"/>
        <path id="trace-char-35" data-name="Tracé 35" d="M2399.088,703.017c4.5,17.888-7.263,31.675-16.853,30.881-7.937-18.192-28.069-23.538-35.915-23.249-7.478.275-17.991-21.63-18.958-23.682a1.592,1.592,0,0,1-.07-.156l-.4-1.26a14.547,14.547,0,0,1-1.942,1.346c-26.146,6.175-28.138-11.17-28.138-11.17,1.983,1.505,3.311.787,3.311.787-5.279-2.292-2.149-15.952-2.149-15.952,25.235-44.289,60.445-8.123,68.156-2.576,7.922,5.7,30.958-1.826,44.241,12.664C2423.656,685.156,2393.527,680.96,2399.088,703.017Z" transform="translate(-2292.87 -638.818)" fill="#493b69"/>
        <path id="trace-char-36" data-name="Tracé 36" d="M2333.5,692.648s-9.844-2.505-15.355-7.178c-4.589-3.879-13.91-6.9-16.972-7.82h.016c.869.24,1.722.447,2.557.607a.542.542,0,0,0,.079.013c13.852,2.741,21.661-4.176,21.661-4.176a100.326,100.326,0,0,0,6.992,16.776Z" transform="translate(-2291.456 -627.361)" fill="#d7cafc"/>
        <path id="trace-char-37" data-name="Tracé 37" d="M2333.5,691.777s-9.844-2.505-15.355-7.178c-4.589-3.879-13.91-6.9-16.972-7.82h.016c.37.082,1.3.287,2.557.607a.511.511,0,0,0,.079.013c4.536,1.155,13.3,3.7,16.814,7,4.853,4.553,11.838,5.6,11.838,5.6Z" transform="translate(-2291.456 -626.489)" fill="#fff"/>
        <path id="trace-char-38" data-name="Tracé 38" d="M2333.812,750.716" transform="translate(-2280.852 -602.473)" fill="#3f3f3f"/>
        <path id="trace-char-39" data-name="Tracé 39" d="M2331.11,761.848l3.246,6.134s6.329-63.456,5.371-65.854" transform="translate(-2281.73 -618.255)" fill="#765ea8"/>
        <path id="trace-char-40" data-name="Tracé 40" d="M2376.86,686.161s-4.63-13.626-13.675-13.673c0,0,12.048-.738,14.38,8.9A9.785,9.785,0,0,0,2376.86,686.161Z" transform="translate(-2271.312 -627.887)" fill="#765ea8"/>
        <path id="trace-char-41" data-name="Tracé 41" d="M2321.092,677.165c.264-3.9-6.532-12.5-6.408-12.53,0,0,4.613,8.036,4.46,13.881Z" transform="translate(-2287.066 -630.433)" fill="#765ea8"/>
        <path id="trace-char-42" data-name="Tracé 42" d="M2325.92,681.566c-3.4,2.037-11.182,5.32-22.53,2.169-.324-.1-.565-.154-.693-.2-.049-.015-.081-.029-.129-.042-15.443-4.785-5.7-24.4-5.7-24.4.683-1.347,1.369-2.647,2.073-3.868,0,0-3.131,13.66,2.149,15.952,0,0-1.328.718-3.312-.787C2297.782,670.4,2299.776,687.741,2325.92,681.566Z" transform="translate(-2293.837 -633.487)" fill="#765ea8"/>
        <path id="trace-char-43" data-name="Tracé 43" d="M2374.745,722.093h-.032a9.253,9.253,0,0,1-6.1-3.057c-9.373-10.045-17.324-16.907-28.876-16.481-4.694.172-8.949-4.563-12.313-10.255a93.013,93.013,0,0,1-7.546-17.139c.968,2.052,11.479,23.958,18.958,23.682C2346.677,698.556,2366.809,703.9,2374.745,722.093Z" transform="translate(-2285.38 -627.014)" fill="#765ea8"/>
        <path id="trace-char-44" data-name="Tracé 44" d="M2373.634,748.123l-.764,4.347-.158.037c-3.865-.654-6.355-1.232-6.355-1.232s-5.005-.882-5.241-4.252l4.043-28.242Z" transform="translate(-2271.984 -612.846)" fill="#765ea8"/>
        <path id="trace-char-45" data-name="Tracé 45" d="M2370.6,938.466l1.02,5.152a4.024,4.024,0,0,0,2.76,3.072c7.857,2.442,33.987,9.674,49.043,3.108l.165-4.314S2396.627,954.039,2370.6,938.466Z" transform="translate(-2268.903 -541.489)" fill="#493b69"/>
        <path id="trace-char-46" data-name="Tracé 46" d="M2431.368,714.464c-.73,9.572-16,37.973-29.168,44.323-13.027,6.3-30.4-3.8-32.112-4.825,8.723,1.448,24.066,3.161,33.377-.624C2412.915,749.484,2424.942,728.151,2431.368,714.464Z" transform="translate(-2269.07 -614.248)" fill="#493b69"/>
        <path id="trace-char-47" data-name="Tracé 47" d="M2396.564,943.847h-.032a81.353,81.353,0,0,1-29.686-12.546c-5.605-22.358,7.667-172.015,8.591-182.407l.058-.576a.207.207,0,0,1,.034.047c.69,1.027,14.362,14.41,11.428,34.669C2384.616,799.2,2379.083,932.555,2396.564,943.847Z" transform="translate(-2270.57 -603.251)" fill="#765ea8"/>
        <path id="trace-char-48" data-name="Tracé 48" d="M2395.84,945.267s8.248-26.026-4.333-49.279Z" transform="translate(-2262.113 -555.287)" fill="#765ea8"/>
      </g>
      <path id="trace-char-49" data-name="Tracé 49" d="M2304.778,750.516l-7.212-10.76a6,6,0,0,1-1.239-4.891l1.98-10.177s22.594-9.736,19.091,1.7c-4.013,13.1-.215,15.663,1.38,19.462Z" transform="translate(-2293.063 -612.182)" fill="#493b69"/>
    </g>
  </g>
</svg>
