<svg xmlns="http://www.w3.org/2000/svg" viewBox="0 0 133.95 30.25">
    <path d="M84.23.12l3.69,3.71v8H84.23Z"
          style="fill:#e40521;stroke:#1d1d1b;stroke-linejoin:round;stroke-width:0.25px"/>
    <path d="M84.23,11.43V.12H.12v26.3h92.4v-15Z"
          style="fill:#fff;stroke:#000;stroke-linejoin:round;stroke-width:0.25px"/>
    <path d="M92.52,11.43l3.7,3.69v15l-3.7-3.7Z"
          style="fill:#ff5892;stroke:#000;stroke-linejoin:round;stroke-width:0.25px"/>
    <path d="M.12,26.42l3.71,3.7h92.4l-3.7-3.7Z"
          style="fill:#c7e7f8;stroke:#1d1d1b;stroke-linejoin:round;stroke-width:0.25px"/>
    <path d="M121.42,11.93V.33H99.12v25.4h30.3V11.93Z"
          style="fill:#fff;stroke:#000;stroke-linejoin:round;stroke-width:0.25px"/>
    <path d="M121.42.33l4.31,4.39v7.2h-4.31Z"
          style="fill:#19b4fa;stroke:#000;stroke-linejoin:round;stroke-width:0.25px"/>
    <path d="M129.42,11.93l4.4,4.3V30.12l-4.4-4.39Z"
          style="fill:#ff5892;stroke:#000;stroke-linejoin:round;stroke-width:0.25px"/>
    <path d="M99,25.73l4.4,4.39h30.4l-4.4-4.39Z"
          style="fill:#abf09b;stroke:#000;stroke-linejoin:round;stroke-width:0.25px"/>
    <path d="M102.83,7V5.32c1.4,0,2.8-.5,2.9-2h2v9.8h-2.5v-6h-2.4Zm7,1.09c0-2.59,1.09-5,3.8-5,2.9,0,4,2.41,4,5s-1.1,5-4,5C110.93,13.23,109.83,10.73,109.83,8.12Zm5.59,0c0-1.3,0-3.09-1.59-3.09s-1.6,1.79-1.6,3.09.1,3.11,1.6,3.11S115.42,9.43,115.42,8.12Zm-12.8,9.8a2.27,2.27,0,0,1,1.1-2,4.34,4.34,0,0,1,2.3-.5c1.7,0,3.4.4,3.4,2.4v3.3a4.07,4.07,0,0,0,.31,1.9h-2.4a1.48,1.48,0,0,1-.1-.7,3.41,3.41,0,0,1-2.4.9c-1.41,0-2.5-.7-2.5-2.2,0-2.4,2.59-2.2,4.19-2.5.4-.1.6-.2.6-.7s-.7-.8-1.2-.8a1,1,0,0,0-1.19.9Zm3.1,3.8c1.1,0,1.5-.6,1.5-2.2a5.41,5.41,0,0,1-1.5.4c-.5.1-1,.4-1,.9S105.12,21.72,105.72,21.72Zm5.3-6h2.31v1a2.79,2.79,0,0,1,2.3-1.2c2.4,0,2.6,1.8,2.6,2.8V23h-2.4v-3.5c0-1,.09-2-1.2-2-.9,0-1.3.8-1.3,1.6v4h-2.41v-7.4Zm10.71,4.79a1,1,0,0,0,.4.8,1.22,1.22,0,0,0,.9.3c.5,0,1.1-.2,1.1-.8s-.7-.7-1.2-.8c-1.5-.4-3.4-.4-3.4-2.4,0-1.8,1.9-2.19,3.3-2.19,1.6,0,3.3.5,3.4,2.4H124a.6.6,0,0,0-.3-.6,1.75,1.75,0,0,0-.8-.21c-.4,0-1,0-1,.5,0,.71,1.6.8,2.7,1.1a2.13,2.13,0,0,1,1.9,2c0,2-1.9,2.61-3.5,2.61s-3.5-.61-3.6-2.61h2.3Z"/>
    <path d="M43.72,11.43a2.09,2.09,0,0,1-.8-.2,1,1,0,0,1-.4-.7h-2.1c.1,1.9,1.71,2.4,3.3,2.4s3.2-.6,3.2-2.4c0-.6-.29-1.5-1.7-1.8-1-.2-2.5-.3-2.5-1,0-.5.6-.5.91-.5a1.48,1.48,0,0,1,.7.2.6.6,0,0,1,.3.6h2c-.1-1.7-1.6-2.2-3.1-2.2-1.3,0-3.1.4-3.1,2.1s1.7,1.8,3.1,2.2c.4.1,1.1.2,1.1.7S44.13,11.43,43.72,11.43Zm7,0a2.09,2.09,0,0,1-.8-.2,1,1,0,0,1-.4-.7h-2.1c.1,1.9,1.71,2.4,3.3,2.4s3.2-.6,3.2-2.4c0-.6-.29-1.5-1.7-1.8-1-.2-2.5-.3-2.5-1,0-.5.6-.5.91-.5a1.48,1.48,0,0,1,.7.2.6.6,0,0,1,.3.6h2c-.1-1.7-1.6-2.2-3.1-2.2-1.3,0-3.1.4-3.1,2.1s1.7,1.8,3.1,2.2c.4.1,1.1.2,1.1.7S51.13,11.43,50.72,11.43Zm-19.5-3.9,3.5,5.2h2.91l-3.8-5.61,3.4-3.59h-2.8l-3.1,3.4V3.42H28.92v9.2h2.4V7.53ZM40,5.93h-2.2v6.69H40Zm0-2.5h-2.2v1.8H40Zm30.8,8a2,2,0,0,1-.8-.2,1,1,0,0,1-.4-.7h-2.1c.1,1.9,1.7,2.4,3.3,2.4s3.2-.6,3.2-2.4c0-.6-.3-1.5-1.7-1.8-1-.2-2.5-.3-2.5-1,0-.5.6-.5.9-.5a1.45,1.45,0,0,1,.7.2.6.6,0,0,1,.3.6h2c-.1-1.7-1.6-2.2-3.1-2.2-1.3,0-3.1.4-3.1,2.1s1.7,1.8,3.1,2.2c.4.1,1.1.2,1.1.7C71.92,11.23,71.32,11.43,70.82,11.43Zm6.9,0a2,2,0,0,1-.8-.2,1,1,0,0,1-.4-.7h-2.1c.1,1.9,1.7,2.4,3.3,2.4s3.2-.6,3.2-2.4c0-.6-.3-1.5-1.7-1.8-1-.2-2.5-.3-2.5-1,0-.5.6-.5.9-.5a1.45,1.45,0,0,1,.7.2.6.6,0,0,1,.3.6h2c-.1-1.7-1.6-2.2-3.1-2.2-1.3,0-3.1.4-3.1,2.1s1.7,1.8,3.1,2.2c.4.1,1.1.2,1.1.7C78.82,11.23,78.12,11.43,77.72,11.43Zm-19.5-3.9,3.5,5.2h2.9L60.83,7.12l3.4-3.59h-2.8l-3.1,3.4V3.42H55.92v9.2h2.41V7.53Zm8.9-1.6h-2.2v6.69h2.2Zm0-2.5h-2.2v1.8h2.2Zm8.6,14.9c0-1.9-1.5-2.21-3.1-2.21a3.72,3.72,0,0,0-2.1.5,1.87,1.87,0,0,0-1,1.8h2.1c.1-.6.5-.8,1.1-.8s1.1.21,1.1.71-.2.5-.6.6c-1.5.3-3.9.1-3.9,2.3,0,1.39,1,2,2.3,2a3,3,0,0,0,2.2-.8c0,.2.1.4.1.6h2.2a3.23,3.23,0,0,1-.3-1.7v-3Zm-3.5,3.4c-.5,0-.9-.21-.9-.8s.4-.7.9-.9a5.73,5.73,0,0,0,1.4-.4C73.62,21.23,73.32,21.73,72.22,21.73Zm18.4-5.5h-2.5L86,18.33v-4.7H83.83v9.2H86v-3.4l2.31,3.4h2.59l-2.8-4.21Zm-9.9-.2a2.49,2.49,0,0,0-2.1,1.09v-.89h-2.1v6.69h2.2v-3.7a1.27,1.27,0,0,1,1.2-1.4c1.2,0,1.1.9,1.1,1.8v3.2h2.2v-4.3C83.12,17.62,82.92,16,80.72,16Zm-22.1.2h-2.5L54,18.33v-4.7h-2.1v9.2h2.21v-3.4l2.29,3.4h2.5l-2.79-4.21Zm-23.4,1.7a2.12,2.12,0,0,0,1.2-1.9c0-1.9-1.7-2.3-3.3-2.3h-4.3v9.2h4.4c2,0,3.6-.7,3.6-2.9A2.05,2.05,0,0,0,35.22,17.93Zm-4-2.4h1.9c.5,0,1,.2,1,.9a.91.91,0,0,1-1,.9h-1.9Zm1.9,5.5h-1.9v-2.1h1.9c.7,0,1.3.3,1.3,1.1S33.92,21,33.12,21Zm15.6-5a2.48,2.48,0,0,0-2.1,1.1v-.9h-2.1v6.7h2.2v-3.7a1.27,1.27,0,0,1,1.2-1.4c1.21,0,1.1.9,1.1,1.8v3.2h2.2v-4.3C51.13,17.63,51,16,48.72,16Zm-5,2.3c0-1.9-1.5-2.21-3.1-2.21a3.72,3.72,0,0,0-2.1.5,1.87,1.87,0,0,0-1,1.8h2.1c.1-.6.5-.8,1.1-.8s1.1.21,1.1.71-.2.5-.6.6c-1.5.3-3.9.1-3.9,2.3,0,1.39,1,2,2.3,2a3,3,0,0,0,2.2-.8c0,.2.1.4.1.6h2.2a3.23,3.23,0,0,1-.3-1.7v-3Zm-3.4,3.4c-.5,0-.9-.21-.9-.8s.4-.7.9-.9a5.73,5.73,0,0,0,1.4-.4C41.72,21.23,41.32,21.73,40.32,21.73Zm26.9-3.8a2.12,2.12,0,0,0,1.2-1.9c0-1.9-1.7-2.3-3.3-2.3h-4.3v9.2h4.4c2,0,3.6-.7,3.6-2.9A2.05,2.05,0,0,0,67.22,17.93Zm-4-2.4h1.9c.5,0,1,.2,1,.9a.91.91,0,0,1-1,.9h-1.9Zm1.9,5.5h-1.9v-2.1h1.9c.7,0,1.3.3,1.3,1.1S65.83,21,65.12,21ZM16.53,7.82a7.63,7.63,0,0,0-5.61-2.4,7.63,7.63,0,0,0-7.69,7.7,7.7,7.7,0,0,0,13.19,5.41l-5.3-5.3Zm4.89,5.41a2.6,2.6,0,0,0,2.11-2.61A2.65,2.65,0,0,0,20.92,8a2.79,2.79,0,0,0-1.79.7l-4.4,4.39,4.3,4.3a2.73,2.73,0,0,0,1.89.8,2.66,2.66,0,0,0,2.61-2.6A2.35,2.35,0,0,0,21.42,13.23Z"/>
</svg>