<svg xmlns="http://www.w3.org/2000/svg" width="181.342" height="28.566" viewBox="0 0 181.342 28.566">
  <g id="Groupe_947" data-name="Groupe 947" transform="translate(-37.448)">
    <g id="Groupe_945" data-name="Groupe 945" transform="translate(37.448)">
      <path id="Tracé_379" data-name="Tracé 379" d="M100.8,155.176H91.763l-1.678,4.151H83.921l9.43-21.364H99.3l9.46,21.364h-6.286Zm-1.77-4.455-2.747-6.837-2.747,6.837Z" transform="translate(-83.921 -136.682)" fill="#fff"/>
      <path id="Tracé_380" data-name="Tracé 380" d="M120.809,141.579v16.542h-5.525v-1.77a5.944,5.944,0,0,1-2.2,1.526,7.177,7.177,0,0,1-2.716.519,6.937,6.937,0,0,1-5.111-1.892q-1.908-1.892-1.908-5.677v-9.248h5.8v8.3a4.261,4.261,0,0,0,.7,2.716,2.494,2.494,0,0,0,2.046.853,2.886,2.886,0,0,0,2.243-.961,4.275,4.275,0,0,0,.869-2.944v-7.966Z" transform="translate(-77.441 -135.476)" fill="#fff"/>
      <path id="Tracé_381" data-name="Tracé 381" d="M127.063,141.938a8.745,8.745,0,0,1,3.25-.564v5.218A11.789,11.789,0,0,0,129,146.5a4.037,4.037,0,0,0-2.914,1.008,4.078,4.078,0,0,0-1.053,3.082v7.6h-5.8V141.647h5.523v1.984A5.392,5.392,0,0,1,127.063,141.938Z" transform="translate(-72.144 -135.544)" fill="#fff"/>
      <path id="Tracé_382" data-name="Tracé 382" d="M132.982,157.365a8.177,8.177,0,0,1-4.547-7.477,8.15,8.15,0,0,1,4.533-7.432,11.245,11.245,0,0,1,9.629,0,8.126,8.126,0,0,1,3.326,3.022,8.377,8.377,0,0,1-3.326,11.887,11.065,11.065,0,0,1-9.614,0Zm7.294-4.562a4.125,4.125,0,0,0,.977-2.915,4.017,4.017,0,0,0-.977-2.868,3.533,3.533,0,0,0-5,0,4.011,4.011,0,0,0-.977,2.868,4.119,4.119,0,0,0,.977,2.915,3.5,3.5,0,0,0,5,0Z" transform="translate(-69.076 -135.544)" fill="#fff"/>
      <path id="Tracé_383" data-name="Tracé 383" d="M152.284,141.938a8.745,8.745,0,0,1,3.25-.564v5.218a11.788,11.788,0,0,0-1.312-.092,3.613,3.613,0,0,0-3.967,4.09v7.6h-5.8V141.647h5.523v1.984A5.391,5.391,0,0,1,152.284,141.938Z" transform="translate(-63.733 -135.544)" fill="#fff"/>
      <path id="Tracé_384" data-name="Tracé 384" d="M168.679,155.176h-9.033l-1.679,4.151H151.8l9.43-21.364h5.951l9.461,21.364h-6.287Zm-1.77-4.455-2.747-6.837-2.747,6.837Z" transform="translate(-61.284 -136.682)" fill="#fff"/>
      <path id="Tracé_385" data-name="Tracé 385" d="M171.507,137h5.8v22.645h-5.8Z" transform="translate(-54.712 -137.002)" fill="#fff"/>
      <path id="Tracé_386" data-name="Tracé 386" d="M193.182,142.426a7.661,7.661,0,0,1,2.93,2.991,9.889,9.889,0,0,1,0,9,7.657,7.657,0,0,1-2.93,2.99,8.13,8.13,0,0,1-4.1,1.053,6.168,6.168,0,0,1-4.609-1.739v7.385h-5.8V141.647h5.523V143.3a6.022,6.022,0,0,1,4.883-1.922A8.142,8.142,0,0,1,193.182,142.426ZM190.359,152.8a4.744,4.744,0,0,0,0-5.769,3.5,3.5,0,0,0-5,0,4.745,4.745,0,0,0,0,5.769,3.5,3.5,0,0,0,5,0Z" transform="translate(-52.323 -135.544)" fill="#fff"/>
      <path id="Tracé_387" data-name="Tracé 387" d="M211.652,151.383H199.628a3.371,3.371,0,0,0,1.419,1.97,4.743,4.743,0,0,0,2.64.685,5.712,5.712,0,0,0,2.06-.335,6.1,6.1,0,0,0,1.755-1.1l3.051,3.174q-2.41,2.686-7.049,2.686a11.265,11.265,0,0,1-5.1-1.1,8.353,8.353,0,0,1-.183-14.894,10.423,10.423,0,0,1,9.156-.076,7.791,7.791,0,0,1,3.19,2.96,8.7,8.7,0,0,1,1.175,4.594C211.744,149.99,211.713,150.468,211.652,151.383Zm-10.971-5.127a3.445,3.445,0,0,0-1.145,2.076h6.775a3.45,3.45,0,0,0-1.144-2.076,3.679,3.679,0,0,0-4.486,0Z" transform="translate(-47.278 -135.544)" fill="#fff"/>
      <path id="Tracé_388" data-name="Tracé 388" d="M211.521,157.991a10.761,10.761,0,0,1-3.235-1.236l1.739-3.967a9.837,9.837,0,0,0,2.686,1.115,12.074,12.074,0,0,0,3.083.411,4.934,4.934,0,0,0,2-.289.91.91,0,0,0,.595-.839q0-.55-.717-.779a14.887,14.887,0,0,0-2.274-.443,22.509,22.509,0,0,1-3.372-.64,5.209,5.209,0,0,1-2.395-1.466,4.186,4.186,0,0,1-1.007-2.991,4.521,4.521,0,0,1,.945-2.823,6.277,6.277,0,0,1,2.762-1.954,11.855,11.855,0,0,1,4.35-.716,17.581,17.581,0,0,1,3.57.365,10.285,10.285,0,0,1,2.96,1.037l-1.739,3.938a9.651,9.651,0,0,0-4.761-1.222,4.726,4.726,0,0,0-2.015.321.956.956,0,0,0-.641.839q0,.58.7.808a15.91,15.91,0,0,0,2.319.473,25.561,25.561,0,0,1,3.388.7,5.166,5.166,0,0,1,2.334,1.45,4.123,4.123,0,0,1,.992,2.944,4.484,4.484,0,0,1-.945,2.792,6.164,6.164,0,0,1-2.792,1.939,12.553,12.553,0,0,1-4.44.7A17.792,17.792,0,0,1,211.521,157.991Z" transform="translate(-42.447 -135.544)" fill="#fff"/>
    </g>
  </g>
</svg>
