<svg xmlns="http://www.w3.org/2000/svg" viewBox="0 0 100 50">
    <g>
      <path d="M0,50a50,50,0,0,1,100,0Z" style="fill: #fff"/>
      <g>
        <path d="M53,12a.73.73,0,0,0,.73-.72V9.14A.73.73,0,0,0,53,8.41a.72.72,0,0,0-.51.21.76.76,0,0,0-.21.52v2.1A.72.72,0,0,0,53,12Z" style="fill: #ff0068"/>
        <path d="M50,12a.72.72,0,0,0,.72-.72v-7a.72.72,0,1,0-1.44,0v7A.72.72,0,0,0,50,12Z" style="fill: #ff0068"/>
        <path d="M47,12a.72.72,0,0,0,.72-.72V7.74A.73.73,0,0,0,47,7a.72.72,0,0,0-.51.21.74.74,0,0,0-.21.52v3.5A.72.72,0,0,0,47,12Z" style="fill: #ff0068"/>
        <path d="M50,34.22a4.45,4.45,0,1,0-4.46-4.46A4.42,4.42,0,0,0,50,34.22Zm-3-4.46a3,3,0,1,1,3,3A3,3,0,0,1,47,29.76Z" style="fill: #ff0068"/>
        <path d="M49.64,44.73a.71.71,0,0,0,.72,0,14.94,14.94,0,0,0,5.38-5.33c.2-.35.39-.7.56-1.06l.05-.09a15,15,0,0,0,1.44-6.36h0v-.06l-.26-3.39A13.07,13.07,0,0,0,61,15.77a.76.76,0,0,0-.43-.48.69.69,0,0,0-.64.05l-3.57,2.12-.95-2.07a2.9,2.9,0,0,0-2.63-1.68H47.21a2.93,2.93,0,0,0-2.05.85,3,3,0,0,0-.58.83l-.95,2.07-3.57-2.12a.69.69,0,0,0-.64-.05.78.78,0,0,0-.24.16.8.8,0,0,0-.19.32,13.07,13.07,0,0,0,3.48,12.65l-.26,3.39v.06h0a15,15,0,0,0,1.44,6.36l.05.09c.17.36.36.71.56,1.06A14.94,14.94,0,0,0,49.64,44.73ZM59.82,17.09a11.54,11.54,0,0,1-2.44,9.35l-.57-7.56ZM54.1,16l.82,1.77H53.6l-.6-2.6A1.43,1.43,0,0,1,54.1,16Zm-2.59-.84.61,2.61h-1.4V15.16Zm-2.23,0v2.61h-1.4l.61-2.61ZM45.9,16a1.43,1.43,0,0,1,1.1-.83l-.6,2.6H45.08ZM40,19.12a11.52,11.52,0,0,1,.18-2l3,1.79-.57,7.56A11.57,11.57,0,0,1,40,19.12Zm3.66,12.77,1-12.68H55.38l.68,9v0l.28,3.7a13.33,13.33,0,0,1-1.13,5.37H44.79A13.33,13.33,0,0,1,43.66,31.89Zm1.87,6.82h8.94A13.51,13.51,0,0,1,50,43.26,13.51,13.51,0,0,1,45.53,38.71Z" style="fill: #ff0068"/>
      </g>
    </g>
</svg>
