<svg xmlns="http://www.w3.org/2000/svg" viewBox="0 0 1918.43 999.77">
                <circle cx="7.23" cy="37.15" r="7.23" style="fill:#2E317A;opacity:0.8;isolation:isolate"/>
                <circle cx="241.45" cy="6.98" r="6.98" style="fill:#2E317A;opacity:0.8;isolation:isolate"/>
                <circle cx="227.36" cy="430" r="6.98" style="fill:#2E317A;opacity:0.8;isolation:isolate"/>
                <circle cx="143.89" cy="138.92" r="4.13" style="fill:#2E317A;opacity:0.8;isolation:isolate"/>
                <circle cx="20.99" cy="188.49" r="6.76" style="fill:#2E317A;opacity:0.8;isolation:isolate"/>
                <circle cx="183.16" cy="338.31" r="6.53" style="fill:#2E317A;opacity:0.8;isolation:isolate"/>
                <circle cx="30.03" cy="347.52" r="3.86" transform="matrix(1, -0.02, 0.02, 1, -5.98, 0.57)"
                        style="fill:#2E317A;opacity:0.8;isolation:isolate"/>
                <circle cx="351.66" cy="316.05" r="7.72" style="fill:#2E317A;opacity:0.8;isolation:isolate"/>
                <circle cx="267.37" cy="182.37" r="5.08" style="fill:#2E317A;opacity:0.8;isolation:isolate"/>
                <circle cx="497.02" cy="37.15" r="7.23" style="fill:#2E317A;opacity:0.8;isolation:isolate"/>
                <circle cx="731.24" cy="6.98" r="6.98" style="fill:#2E317A;opacity:0.8;isolation:isolate"/>
                <circle cx="717.14" cy="430" r="6.98" style="fill:#2E317A;opacity:0.8;isolation:isolate"/>
                <circle cx="424.66" cy="147.51" r="5.44" style="fill:#2E317A;opacity:0.8;isolation:isolate"/>
                <circle cx="633.67" cy="138.92" r="4.13" style="fill:#2E317A;opacity:0.8;isolation:isolate"/>
                <circle cx="510.78" cy="188.49" r="6.76" transform="translate(141.17 588.26) rotate(-67.5)"
                        style="fill:#2E317A;opacity:0.8;isolation:isolate"/>
                <circle cx="672.94" cy="338.31" r="6.53" style="fill:#2E317A;opacity:0.8;isolation:isolate"/>
                <circle cx="519.81" cy="347.52" r="3.86" style="fill:#2E317A;opacity:0.8;isolation:isolate"/>
                <circle cx="841.44" cy="316.05" r="7.72" style="fill:#2E317A;opacity:0.8;isolation:isolate"/>
                <circle cx="757.16" cy="182.37" r="5.08" style="fill:#2E317A;opacity:0.8;isolation:isolate"/>
                <circle cx="986.8" cy="37.15" r="7.23" style="fill:#2E317A;opacity:0.8;isolation:isolate"/>
                <circle cx="1221.02" cy="6.98" r="6.98" style="fill:#2E317A;opacity:0.8;isolation:isolate"/>
                <circle cx="1197.38" cy="462.2" r="6.98" style="fill:#2E317A;opacity:0.8;isolation:isolate"/>
                <circle cx="914.44" cy="147.51" r="5.44" style="fill:#2E317A;opacity:0.8;isolation:isolate"/>
                <circle cx="1123.46" cy="138.92" r="4.13"
                        style="fill:#2E317A;opacity:0.8;isolation:isolate"/>
                <circle cx="1009.6" cy="347.52" r="3.86" style="fill:#2E317A;opacity:0.8;isolation:isolate"/>
                <circle cx="1331.23" cy="316.05" r="7.72"
                        style="fill:#2E317A;opacity:0.8;isolation:isolate"/>
                <circle cx="1246.94" cy="182.37" r="5.08"
                        style="fill:#2E317A;opacity:0.8;isolation:isolate"/>
                <circle cx="1476.59" cy="37.15" r="7.23" style="fill:#2E317A;opacity:0.8;isolation:isolate"/>
                <circle cx="1710.81" cy="6.98" r="6.98" style="fill:#2E317A;opacity:0.8;isolation:isolate"/>
                <circle cx="1696.71" cy="430" r="6.98" style="fill:#2E317A;opacity:0.8;isolation:isolate"/>
                <circle cx="1404.23" cy="147.51" r="5.44"
                        style="fill:#2E317A;opacity:0.8;isolation:isolate"/>
                <circle cx="1613.24" cy="138.92" r="4.13"
                        style="fill:#2E317A;opacity:0.8;isolation:isolate"/>
                <circle cx="1490.35" cy="188.49" r="6.76"
                        style="fill:#2E317A;opacity:0.8;isolation:isolate"/>
                <circle cx="1652.51" cy="338.31" r="6.53"
                        style="fill:#2E317A;opacity:0.8;isolation:isolate"/>
                <circle cx="1499.38" cy="347.52" r="3.86"
                        style="fill:#2E317A;opacity:0.8;isolation:isolate"/>
                <circle cx="1821.01" cy="316.05" r="7.72"
                        style="fill:#2E317A;opacity:0.8;isolation:isolate"/>
                <circle cx="1736.73" cy="182.37" r="5.08"
                        style="fill:#2E317A;opacity:0.8;isolation:isolate"/>
                <circle cx="7.23" cy="841.67" r="7.23" style="fill:#2E317A;opacity:0.8;isolation:isolate"/>
                <circle cx="241.45" cy="811.5" r="6.98" style="fill:#2E317A;opacity:0.8;isolation:isolate"/>
                <circle cx="267.42" cy="516.9" r="5.44" style="fill:#2E317A;opacity:0.8;isolation:isolate"/>
                <circle cx="143.89" cy="943.44" r="4.13" style="fill:#2E317A;opacity:0.8;isolation:isolate"/>
                <circle cx="477.77" cy="569.37" r="7.23" style="fill:#2E317A;opacity:0.8;isolation:isolate"/>
                <circle cx="338.87" cy="658.01" r="8.25" style="fill:#2E317A;opacity:0.8;isolation:isolate"/>
                <circle cx="530.41" cy="448.35" r="5.44" style="fill:#2E317A;opacity:0.8;isolation:isolate"/>
                <circle cx="308.88" cy="401.01" r="5.44" style="fill:#2E317A;opacity:0.8;isolation:isolate"/>
                <circle cx="68.86" cy="524.06" r="7.23" transform="matrix(0.02, -1, 1, 0.02, -456.57, 581.52)"
                        style="fill:#2E317A;opacity:0.8;isolation:isolate"/>
                <circle cx="171.36" cy="635.37" r="5.44" style="fill:#2E317A;opacity:0.8;isolation:isolate"/>
                <circle cx="20.99" cy="993.01" r="6.76" style="fill:#2E317A;opacity:0.8;isolation:isolate"/>
                <circle cx="267.37" cy="986.89" r="5.08" style="fill:#2E317A;opacity:0.8;isolation:isolate"/>
                <circle cx="433.85" cy="669.27" r="8.83" style="fill:#2E317A;opacity:0.8;isolation:isolate"/>
                <circle cx="497.02" cy="841.67" r="7.23" style="fill:#2E317A;opacity:0.8;isolation:isolate"/>
                <circle cx="731.24" cy="811.5" r="6.98" style="fill:#2E317A;opacity:0.8;isolation:isolate"/>
                <circle cx="701.24" cy="542.72" r="5.44" style="fill:#2E317A;opacity:0.8;isolation:isolate"/>
                <circle cx="424.66" cy="952.03" r="5.44" style="fill:#2E317A;opacity:0.8;isolation:isolate"/>
                <circle cx="633.67" cy="943.44" r="4.13" style="fill:#2E317A;opacity:0.8;isolation:isolate"/>
                <circle cx="967.55" cy="569.37" r="7.23" style="fill:#2E317A;opacity:0.8;isolation:isolate"/>
                <circle cx="828.65" cy="658.01" r="8.25" style="fill:#2E317A;opacity:0.8;isolation:isolate"/>
                <circle cx="1020.2" cy="448.35" r="5.44" style="fill:#2E317A;opacity:0.8;isolation:isolate"/>
                <circle cx="816.16" cy="428.59" r="5.44" style="fill:#2E317A;opacity:0.8;isolation:isolate"/>
                <circle cx="558.65" cy="524.06" r="7.23" style="fill:#2E317A;opacity:0.8;isolation:isolate"/>
                <circle cx="661.14" cy="635.37" r="5.44" style="fill:#2E317A;opacity:0.8;isolation:isolate"/>
                <circle cx="510.78" cy="993.01" r="6.76" transform="translate(-551.23 1338.13) rotate(-80.78)"
                        style="fill:#2E317A;opacity:0.8;isolation:isolate"/>
                <circle cx="757.16" cy="986.89" r="5.08" style="fill:#2E317A;opacity:0.8;isolation:isolate"/>
                <circle cx="1817.19" cy="770.69" r="7.23"
                        style="fill:#2E317A;opacity:0.8;isolation:isolate"/>
                <circle cx="1744.83" cy="881.06" r="5.44"
                        style="fill:#2E317A;opacity:0.8;isolation:isolate"/>
                <circle cx="1830.95" cy="922.03" r="6.76"
                        style="fill:#2E317A;opacity:0.8;isolation:isolate"/>
                <circle cx="1911.45" cy="317.6" r="6.98" style="fill:#2E317A;opacity:0.8;isolation:isolate"/>
                <circle cx="1024.31" cy="396.87" r="7.23"
                        style="fill:#2E317A;opacity:0.8;isolation:isolate"/>
                <circle cx="1096.67" cy="286.51" r="5.44"
                        style="fill:#2E317A;opacity:0.8;isolation:isolate"/>
                <circle cx="887.65" cy="295.1" r="4.13" style="fill:#2E317A;opacity:0.8;isolation:isolate"/>
                <circle cx="1010.55" cy="245.53" r="6.76"
                        style="fill:#2E317A;opacity:0.8;isolation:isolate"/>
                <circle cx="848.39" cy="95.71" r="6.53" style="fill:#2E317A;opacity:0.8;isolation:isolate"/>
                <circle cx="1001.52" cy="86.5" r="3.86" style="fill:#2E317A;opacity:0.8;isolation:isolate"/>
                <circle cx="1801.25" cy="8.54" r="7.72" style="fill:#2E317A;opacity:0.8;isolation:isolate"/>
                <circle cx="1885.53" cy="142.22" r="5.08"
                        style="fill:#2E317A;opacity:0.8;isolation:isolate"/>
                <circle cx="1413.42" cy="669.27" r="8.83"
                        style="fill:#2E317A;opacity:0.8;isolation:isolate"/>
                <circle cx="1476.59" cy="841.67" r="7.23"
                        style="fill:#2E317A;opacity:0.8;isolation:isolate"/>
                <circle cx="1710.81" cy="811.5" r="6.98" style="fill:#2E317A;opacity:0.8;isolation:isolate"/>
                <circle cx="1736.78" cy="516.9" r="5.44" style="fill:#2E317A;opacity:0.8;isolation:isolate"/>
                <circle cx="1404.23" cy="952.03" r="5.44"
                        style="fill:#2E317A;opacity:0.8;isolation:isolate"/>
                <circle cx="1613.24" cy="943.44" r="4.13"
                        style="fill:#2E317A;opacity:0.8;isolation:isolate"/>
                <circle cx="1808.22" cy="658.01" r="8.25"
                        style="fill:#2E317A;opacity:0.8;isolation:isolate"/>
                <circle cx="1778.24" cy="401.01" r="5.44"
                        style="fill:#2E317A;opacity:0.8;isolation:isolate"/>
                <circle cx="1538.22" cy="524.06" r="7.23"
                        style="fill:#2E317A;opacity:0.8;isolation:isolate"/>
                <circle cx="1640.71" cy="635.37" r="5.44"
                        style="fill:#2E317A;opacity:0.8;isolation:isolate"/>
                <circle cx="1490.35" cy="993.01" r="6.76"
                        style="fill:#2E317A;opacity:0.8;isolation:isolate"/>
                <circle cx="1736.73" cy="986.89" r="5.08"
                        style="fill:#2E317A;opacity:0.8;isolation:isolate"/>
                <circle cx="901.82" cy="655.26" r="8.83" style="fill:#2E317A;opacity:0.8;isolation:isolate"/>
                <circle cx="964.99" cy="827.65" r="7.23" style="fill:#2E317A;opacity:0.8;isolation:isolate"/>
                <circle cx="1199.21" cy="797.49" r="6.98"
                        style="fill:#2E317A;opacity:0.8;isolation:isolate"/>
                <circle cx="1225.18" cy="502.89" r="5.44"
                        style="fill:#2E317A;opacity:0.8;isolation:isolate"/>
                <circle cx="892.63" cy="938.02" r="5.44" style="fill:#2E317A;opacity:0.8;isolation:isolate"/>
                <circle cx="1101.64" cy="929.42" r="4.13"
                        style="fill:#2E317A;opacity:0.8;isolation:isolate"/>
                <circle cx="1435.52" cy="555.36" r="7.23"
                        style="fill:#2E317A;opacity:0.8;isolation:isolate"/>
                <circle cx="1296.62" cy="643.99" r="8.25"
                        style="fill:#2E317A;opacity:0.8;isolation:isolate"/>
                <circle cx="1488.17" cy="434.34" r="5.44"
                        style="fill:#2E317A;opacity:0.8;isolation:isolate"/>
                <circle cx="1266.64" cy="386.99" r="5.44"
                        style="fill:#2E317A;opacity:0.8;isolation:isolate"/>
                <circle cx="1026.62" cy="510.05" r="7.23"
                        style="fill:#2E317A;opacity:0.8;isolation:isolate"/>
                <circle cx="1129.11" cy="621.35" r="5.44"
                        style="fill:#2E317A;opacity:0.8;isolation:isolate"/>
                <circle cx="978.75" cy="978.99" r="6.76" style="fill:#2E317A;opacity:0.8;isolation:isolate"/>
                <circle cx="1225.13" cy="972.87" r="5.08"
                        style="fill:#2E317A;opacity:0.8;isolation:isolate"/>
</svg>