<svg xmlns="http://www.w3.org/2000/svg" viewBox="0 0 1924.64 1364.9">
    <g style="opacity:0.7">
        <circle cx="611.4" cy="1329.84" r="5.32" style="fill:#24244e"/>
        <circle cx="715.19" cy="1291.81" r="4.36" style="fill:#24244e"/>
        <circle cx="697.03" cy="1150.8" r="4.2" style="fill:#24244e"/>
        <circle cx="951.71" cy="1159.28" r="4.2" style="fill:#24244e"/>
        <circle cx="519.66" cy="1135.16" r="3.27" style="fill:#24244e"/>
        <circle cx="781.64" cy="1335.38" r="3.27" style="fill:#24244e"/>
        <circle cx="776.46" cy="1209.54" r="2.48" style="fill:#24244e"/>
        <circle cx="551.25" cy="1008.52" r="4.36" style="fill:#24244e"/>
        <circle cx="604.62" cy="1092.15" r="4.97" style="fill:#24244e"/>
        <circle cx="478.39" cy="976.83" r="3.27" style="fill:#24244e"/>
        <circle cx="449.89" cy="1110.2" r="3.27" style="fill:#24244e"/>
        <circle cx="523.97" cy="1254.71" r="4.36" style="fill:#24244e"/>
        <circle cx="590.99" cy="1193" r="3.27" style="fill:#24244e"/>
        <circle cx="806.31" cy="1283.53" r="4.07" style="fill:#24244e"/>
        <circle cx="896.51" cy="1185.9" r="3.93" style="fill:#24244e"/>
        <circle cx="902.05" cy="1278.09" r="2.32" style="fill:#24244e"/>
        <circle cx="883.1" cy="1084.45" r="4.65"
                style="fill:#24244e;opacity:0.6800000071525574;isolation:isolate"/>
        <circle cx="802.62" cy="1135.19" r="3.06"
                style="fill:#24244e;opacity:0.7400000095367432;isolation:isolate"/>
        <circle cx="611.4" cy="1034.96" r="5.32" style="fill:#24244e"/>
        <circle cx="715.19" cy="996.93" r="4.36"
                style="fill:#24244e;opacity:0.7400000095367432;isolation:isolate"/>
        <circle cx="697.03" cy="855.92" r="4.2"
                style="fill:#24244e;opacity:0.800000011920929;isolation:isolate"/>
        <circle cx="951.71" cy="864.41" r="4.2"
                style="fill:#24244e;opacity:0.3499999940395355;isolation:isolate"/>
        <circle cx="519.66" cy="840.28" r="3.27" style="fill:#24244e"/>
        <circle cx="781.64" cy="1040.5" r="3.27"
                style="fill:#24244e;opacity:0.6100000143051147;isolation:isolate"/>
        <circle cx="776.46" cy="914.66" r="2.48" style="fill:#24244e"/>
        <circle cx="551.25" cy="713.65" r="4.36" style="fill:#24244e"/>
        <circle cx="604.62" cy="797.27" r="4.97" style="fill:#24244e"/>
        <circle cx="478.39" cy="681.95" r="3.27" style="fill:#24244e"/>
        <circle cx="449.89" cy="815.32" r="3.27" style="fill:#24244e"/>
        <circle cx="523.97" cy="959.83" r="4.36" style="fill:#24244e"/>
        <circle cx="590.99" cy="898.12" r="3.27" style="fill:#24244e"/>
        <circle cx="806.31" cy="988.65" r="4.07" style="fill:#24244e"/>
        <circle cx="896.51" cy="891.02" r="3.93" style="fill:#24244e"/>
        <circle cx="902.05" cy="983.21" r="2.32" style="fill:#24244e"/>
        <circle cx="883.1" cy="789.57" r="4.65"
                style="fill:#24244e;opacity:0.18000000715255737;isolation:isolate"/>
        <circle cx="802.62" cy="840.32" r="3.06"
                style="fill:#24244e;opacity:0.4099999964237213;isolation:isolate"/>
        <circle cx="611.4" cy="740.09" r="5.32" style="fill:#24244e"/>
        <circle cx="715.19" cy="702.06" r="4.36"
                style="fill:#24244e;opacity:0.3400000035762787;isolation:isolate"/>
        <circle cx="697.03" cy="561.04" r="4.2" style="fill:#24244e"/>
        <circle cx="971.1" cy="575.28" r="4.2" style="fill:#24244e"/>
        <circle cx="519.66" cy="545.41" r="3.27" style="fill:#24244e"/>
        <circle cx="781.64" cy="745.62" r="3.27"
                style="fill:#24244e;opacity:0.18000000715255737;isolation:isolate"/>
        <circle cx="776.46" cy="619.78" r="2.48" style="fill:#24244e"/>
        <circle cx="551.25" cy="418.77" r="4.36" style="fill:#24244e"/>
        <circle cx="604.62" cy="502.39" r="4.97" style="fill:#24244e"/>
        <circle cx="478.39" cy="387.07" r="3.27" style="fill:#24244e"/>
        <circle cx="449.89" cy="520.45" r="3.27" style="fill:#24244e"/>
        <circle cx="523.97" cy="664.95" r="4.36" style="fill:#24244e"/>
        <circle cx="590.99" cy="603.25" r="3.27" style="fill:#24244e"/>
        <circle cx="902.05" cy="688.33" r="2.32"
                style="fill:#24244e;opacity:0.3499999940395355;isolation:isolate"/>
        <circle cx="883.1" cy="494.69" r="4.65"
                style="fill:#24244e;opacity:0.23000000417232513;isolation:isolate"/>
        <circle cx="802.62" cy="545.44" r="3.06" style="fill:#24244e"/>
        <circle cx="611.4" cy="445.21" r="5.32" style="fill:#24244e"/>
        <circle cx="715.19" cy="407.18" r="4.36"
                style="fill:#24244e;opacity:0.699999988079071;isolation:isolate"/>
        <circle cx="697.03" cy="266.16" r="4.2" style="fill:#24244e"/>
        <circle cx="951.71" cy="274.65" r="4.2" style="fill:#24244e"/>
        <circle cx="519.66" cy="250.53" r="3.27" style="fill:#24244e"/>
        <circle cx="781.64" cy="450.74" r="3.27" style="fill:#24244e"/>
        <circle cx="776.46" cy="324.9" r="2.48" style="fill:#24244e"/>
        <circle cx="551.25" cy="123.89" r="4.36" style="fill:#24244e"/>
        <circle cx="604.62" cy="207.52" r="4.97" style="fill:#24244e"/>
        <circle cx="478.39" cy="92.2" r="3.27" style="fill:#24244e"/>
        <circle cx="449.89" cy="225.57" r="3.27" style="fill:#24244e"/>
        <circle cx="523.97" cy="370.07" r="4.36" style="fill:#24244e"/>
        <circle cx="590.99" cy="308.37" r="3.27" style="fill:#24244e"/>
        <circle cx="806.31" cy="398.89" r="4.07"
                style="fill:#24244e;opacity:0.550000011920929;isolation:isolate"/>
        <circle cx="896.51" cy="301.26" r="3.93" style="fill:#24244e"/>
        <circle cx="902.05" cy="393.46" r="2.32" style="fill:#24244e"/>
        <circle cx="883.1" cy="199.82" r="4.65" style="fill:#24244e"/>
        <circle cx="802.62" cy="250.56" r="3.06" style="fill:#24244e"/>
        <g style="opacity:0.6899999976158142">
            <circle cx="164.78" cy="81.62" r="5.32" style="fill:#24244e"/>
            <circle cx="268.57" cy="119.65" r="4.36" style="fill:#24244e"/>
            <circle cx="250.41" cy="260.67" r="4.2" style="fill:#24244e"/>
            <circle cx="505.1" cy="252.18" r="4.2" style="fill:#24244e"/>
            <circle cx="73.05" cy="276.3" r="3.27" style="fill:#24244e"/>
            <circle cx="335.02" cy="76.09" r="3.27" style="fill:#24244e"/>
            <circle cx="329.85" cy="201.93" r="2.48" style="fill:#24244e"/>
            <circle cx="104.64" cy="402.94" r="4.36" style="fill:#24244e"/>
            <circle cx="158" cy="319.32" r="4.97" style="fill:#24244e"/>
            <circle cx="31.78" cy="434.64" r="3.27" transform="translate(-10.33 0.88) rotate(-1.36)"
                    style="fill:#24244e"/>
            <circle cx="3.27" cy="301.26" r="3.27" style="fill:#24244e"/>
            <circle cx="77.36" cy="156.76" r="4.36" style="fill:#24244e"/>
            <circle cx="144.37" cy="218.46" r="3.27" style="fill:#24244e"/>
            <circle cx="359.69" cy="127.94" r="4.07" style="fill:#24244e"/>
            <circle cx="449.89" cy="225.57" r="3.93" style="fill:#24244e"/>
            <circle cx="455.44" cy="133.38" r="2.32" style="fill:#24244e"/>
            <circle cx="436.49" cy="327.01" r="4.65"
                    style="fill:#24244e;opacity:0.6800000071525574;isolation:isolate"/>
            <circle cx="356.01" cy="276.27" r="3.06"
                    style="fill:#24244e;opacity:0.7400000095367432;isolation:isolate"/>
        </g>
        <circle cx="164.78" cy="376.5" r="5.32" style="fill:#24244e"/>
        <circle cx="268.57" cy="414.53" r="4.36"
                style="fill:#24244e;opacity:0.7400000095367432;isolation:isolate"/>
        <circle cx="250.41" cy="555.54" r="4.2"
                style="fill:#24244e;opacity:0.800000011920929;isolation:isolate"/>
        <circle cx="505.1" cy="547.06" r="4.2"
                style="fill:#24244e;opacity:0.18000000715255737;isolation:isolate"/>
        <circle cx="73.05" cy="571.18" r="3.27" style="fill:#24244e"/>
        <circle cx="335.02" cy="370.97" r="3.27"
                style="fill:#24244e;opacity:0.6100000143051147;isolation:isolate"/>
        <circle cx="329.85" cy="496.81" r="2.48" style="fill:#24244e"/>
        <circle cx="104.64" cy="697.82" r="4.36" style="fill:#24244e"/>
        <circle cx="158" cy="614.19" r="4.97" style="fill:#24244e"/>
        <circle cx="31.78" cy="729.51" r="3.27" transform="translate(-698.05 752.81) rotate(-89.33)"
                style="fill:#24244e"/>
        <circle cx="77.36" cy="451.64" r="4.36" style="fill:#24244e"/>
        <circle cx="144.37" cy="513.34" r="3.27" style="fill:#24244e"/>
        <circle cx="359.69" cy="422.82" r="4.07" style="fill:#24244e"/>
        <circle cx="449.89" cy="520.45" r="3.93" style="fill:#24244e"/>
        <circle cx="455.44" cy="428.25" r="2.32" style="fill:#24244e"/>
        <circle cx="436.49" cy="621.89" r="4.65"
                style="fill:#24244e;opacity:0.18000000715255737;isolation:isolate"/>
        <circle cx="356.01" cy="571.15" r="3.06"
                style="fill:#24244e;opacity:0.4099999964237213;isolation:isolate"/>
        <circle cx="164.78" cy="671.38" r="5.32" style="fill:#24244e"/>
        <circle cx="268.57" cy="709.41" r="4.36"
                style="fill:#24244e;opacity:0.3400000035762787;isolation:isolate"/>
        <circle cx="250.41" cy="850.42" r="4.2" style="fill:#24244e"/>
        <circle cx="524.48" cy="836.19" r="4.2" style="fill:#24244e"/>
        <circle cx="73.05" cy="866.06" r="3.27" style="fill:#24244e"/>
        <circle cx="335.02" cy="665.84" r="3.27"
                style="fill:#24244e;opacity:0.18000000715255737;isolation:isolate"/>
        <circle cx="329.85" cy="791.68" r="2.48" style="fill:#24244e"/>
        <circle cx="104.64" cy="992.7" r="4.36" style="fill:#24244e"/>
        <circle cx="158" cy="909.07" r="4.97" style="fill:#24244e"/>
        <circle cx="31.78" cy="1024.39" r="3.27" transform="translate(-992.91 1044.26) rotate(-89.33)"
                style="fill:#24244e"/>
        <circle cx="77.36" cy="746.51" r="4.36" style="fill:#24244e"/>
        <circle cx="144.37" cy="808.22" r="3.27" style="fill:#24244e"/>
        <circle cx="455.44" cy="723.13" r="2.32"
                style="fill:#24244e;opacity:0.3700000047683716;isolation:isolate"/>
        <circle cx="436.49" cy="916.77" r="4.65"
                style="fill:#24244e;opacity:0.23000000417232513;isolation:isolate"/>
        <circle cx="356.01" cy="866.03" r="3.06" style="fill:#24244e"/>
        <g style="opacity:0.6899999976158142">
            <circle cx="164.78" cy="966.26" r="5.32" style="fill:#24244e"/>
            <circle cx="268.57" cy="1004.29" r="4.36"
                    style="fill:#24244e;opacity:0.699999988079071;isolation:isolate"/>
            <circle cx="250.41" cy="1145.3" r="4.2" style="fill:#24244e"/>
            <circle cx="505.1" cy="1136.81" r="4.2" style="fill:#24244e"/>
            <circle cx="73.05" cy="1160.93" r="3.27" style="fill:#24244e"/>
            <circle cx="335.02" cy="960.72" r="3.27" style="fill:#24244e"/>
            <circle cx="329.85" cy="1086.56" r="2.48" style="fill:#24244e"/>
            <circle cx="104.64" cy="1287.57" r="4.36" style="fill:#24244e"/>
            <circle cx="158" cy="1203.95" r="4.97" style="fill:#24244e"/>
            <circle cx="31.78" cy="1319.27" r="3.27" transform="translate(-1287.77 1335.71) rotate(-89.33)"
                    style="fill:#24244e"/>
            <circle cx="3.27" cy="1185.9" r="3.27" style="fill:#24244e"/>
            <circle cx="77.36" cy="1041.39" r="4.36" style="fill:#24244e"/>
            <circle cx="144.37" cy="1103.1" r="3.27" style="fill:#24244e"/>
            <circle cx="359.69" cy="1012.57" r="4.07"
                    style="fill:#24244e;opacity:0.550000011920929;isolation:isolate"/>
            <circle cx="449.89" cy="1110.2" r="3.93" style="fill:#24244e"/>
            <circle cx="455.44" cy="1018.01" r="2.32" style="fill:#24244e"/>
            <circle cx="436.49" cy="1211.65" r="4.65" style="fill:#24244e"/>
            <circle cx="356.01" cy="1160.9" r="3.06" style="fill:#24244e"/>
        </g>
        <circle cx="1095.76" cy="1329.84" r="5.32" style="fill:#24244e"/>
        <circle cx="1199.56" cy="1291.81" r="4.36" style="fill:#24244e"/>
        <circle cx="1181.39" cy="1150.8" r="4.2" style="fill:#24244e"/>
        <circle cx="1436.08" cy="1159.28" r="4.2" style="fill:#24244e"/>
        <circle cx="1004.03" cy="1135.16" r="3.27"
                style="fill:#24244e;opacity:0.6899999976158142;isolation:isolate"/>
        <circle cx="1266" cy="1335.38" r="3.27" style="fill:#24244e"/>
        <circle cx="1260.83" cy="1209.54" r="2.48" style="fill:#24244e"/>
        <circle cx="1035.62" cy="1008.52" r="4.36" style="fill:#24244e"/>
        <circle cx="1088.98" cy="1092.15" r="4.97"
                style="fill:#24244e;opacity:0.44999998807907104;isolation:isolate"/>
        <circle cx="962.76" cy="976.83" r="3.27"
                style="fill:#24244e;opacity:0.36000001430511475;isolation:isolate"/>
        <circle cx="934.26" cy="1110.2" r="3.27" style="fill:#24244e"/>
        <circle cx="1008.34" cy="1254.71" r="4.36" style="fill:#24244e"/>
        <circle cx="1075.35" cy="1193" r="3.27" style="fill:#24244e"/>
        <circle cx="1290.67" cy="1283.53" r="4.07" style="fill:#24244e"/>
        <circle cx="1380.87" cy="1185.9" r="3.93" style="fill:#24244e"/>
        <circle cx="1386.42" cy="1278.09" r="2.32" style="fill:#24244e"/>
        <circle cx="1367.47" cy="1084.45" r="4.65" style="fill:#24244e"/>
        <circle cx="1286.99" cy="1135.19" r="3.06" style="fill:#24244e"/>
        <circle cx="1095.76" cy="1034.96" r="5.32"
                style="fill:#24244e;opacity:0.44999998807907104;isolation:isolate"/>
        <circle cx="1199.56" cy="996.93" r="4.36" style="fill:#24244e"/>
        <circle cx="1181.39" cy="855.92" r="4.2"
                style="fill:#24244e;opacity:0.3499999940395355;isolation:isolate"/>
        <circle cx="1436.08" cy="864.41" r="4.2" style="fill:#24244e"/>
        <circle cx="1019.57" cy="873.98" r="3.27"
                style="fill:#24244e;opacity:0.3499999940395355;isolation:isolate"/>
        <circle cx="1266" cy="1040.5" r="3.27" style="fill:#24244e"/>
        <circle cx="1260.83" cy="914.66" r="2.48" style="fill:#24244e"/>
        <circle cx="1035.62" cy="713.65" r="4.36"
                style="fill:#24244e;opacity:0.3499999940395355;isolation:isolate"/>
        <circle cx="1088.98" cy="797.27" r="4.97"
                style="fill:#24244e;opacity:0.3499999940395355;isolation:isolate"/>
        <circle cx="962.76" cy="681.95" r="3.27"
                style="fill:#24244e;opacity:0.3499999940395355;isolation:isolate"/>
        <circle cx="950.86" cy="804.79" r="3.27"
                style="fill:#24244e;opacity:0.3499999940395355;isolation:isolate"/>
        <circle cx="1008.34" cy="959.83" r="4.36"
                style="fill:#24244e;opacity:0.5299999713897705;isolation:isolate"/>
        <circle cx="1075.35" cy="898.12" r="3.27"
                style="fill:#24244e;opacity:0.5600000023841858;isolation:isolate"/>
        <circle cx="1290.67" cy="988.65" r="4.07" style="fill:#24244e"/>
        <circle cx="1380.87" cy="891.02" r="3.93"
                style="fill:#24244e;opacity:0.44999998807907104;isolation:isolate"/>
        <circle cx="1386.42" cy="983.21" r="2.32" style="fill:#24244e"/>
        <circle cx="1367.47" cy="789.57" r="4.65"
                style="fill:#24244e;opacity:0.44999998807907104;isolation:isolate"/>
        <circle cx="1286.99" cy="840.32" r="3.06" style="fill:#24244e"/>
        <circle cx="1156.82" cy="202.12" r="4.36" style="fill:#24244e"/>
        <circle cx="1138.66" cy="61.11" r="4.2" style="fill:#24244e"/>
        <circle cx="1393.34" cy="69.59" r="4.2" style="fill:#24244e"/>
        <circle cx="1223.27" cy="245.68" r="3.27" style="fill:#24244e"/>
        <circle cx="1218.09" cy="119.85" r="2.48" style="fill:#24244e"/>
        <circle cx="1247.94" cy="193.84" r="4.07" style="fill:#24244e"/>
        <circle cx="1338.14" cy="96.2" r="3.93" style="fill:#24244e"/>
        <circle cx="1343.69" cy="188.4" r="2.32" style="fill:#24244e"/>
        <circle cx="1244.25" cy="45.5" r="3.06" style="fill:#24244e"/>
        <circle cx="865.88" cy="4.36" r="4.36" style="fill:#24244e"/>
        <circle cx="884.04" cy="145.37" r="4.2" style="fill:#24244e"/>
        <circle cx="629.36" cy="136.88" r="4.2" style="fill:#24244e"/>
        <circle cx="804.61" cy="86.63" r="2.48" style="fill:#24244e"/>
        <circle cx="774.76" cy="12.64" r="4.07" style="fill:#24244e"/>
        <circle cx="684.56" cy="110.27" r="3.93" style="fill:#24244e"/>
        <circle cx="679.01" cy="18.08" r="2.32" style="fill:#24244e"/>
        <circle cx="931.77" cy="679.48" r="4.36" style="fill:#24244e"/>
        <circle cx="865.32" cy="635.91" r="3.27" style="fill:#24244e"/>
        <circle cx="870.49" cy="761.75" r="2.48" style="fill:#24244e"/>
        <circle cx="840.65" cy="687.76" r="4.07" style="fill:#24244e"/>
        <circle cx="750.45" cy="785.39" r="3.93" style="fill:#24244e"/>
        <circle cx="744.9" cy="693.2" r="2.32" style="fill:#24244e"/>
        <circle cx="697.96" cy="211.72" r="4.65" style="fill:#24244e"/>
        <circle cx="778.45" cy="160.97" r="3.06" style="fill:#24244e"/>
        <circle cx="352.07" cy="1217.03" r="5.32"
                style="fill:#24244e;opacity:0.3499999940395355;isolation:isolate"/>
        <circle cx="292.58" cy="1277.21" r="4.36"
                style="fill:#24244e;opacity:0.3499999940395355;isolation:isolate"/>
        <circle cx="181.84" cy="1211.49" r="3.27"
                style="fill:#24244e;opacity:0.18000000715255737;isolation:isolate"/>
        <circle cx="187.01" cy="1337.33" r="2.48"
                style="fill:#24244e;opacity:0.18000000715255737;isolation:isolate"/>
        <circle cx="439.5" cy="1292.16" r="4.36"
                style="fill:#24244e;opacity:0.3499999940395355;isolation:isolate"/>
        <circle cx="372.49" cy="1353.87" r="3.27" style="fill:#24244e"/>
        <circle cx="157.17" cy="1263.34" r="4.07"
                style="fill:#24244e;opacity:0.18000000715255737;isolation:isolate"/>
        <circle cx="66.97" cy="1360.97" r="3.93"
                style="fill:#24244e;opacity:0.6000000238418579;isolation:isolate"/>
        <circle cx="61.42" cy="1268.78" r="2.32" style="fill:#24244e"/>
        <circle cx="1095.76" cy="445.21" r="5.32" style="fill:#24244e"/>
        <circle cx="1199.56" cy="407.18" r="4.36" style="fill:#24244e"/>
        <circle cx="1181.39" cy="266.16" r="4.2" style="fill:#24244e"/>
        <circle cx="1436.08" cy="274.65" r="4.2" style="fill:#24244e"/>
        <circle cx="1004.03" cy="250.53" r="3.27" style="fill:#24244e"/>
        <circle cx="1266" cy="450.74" r="3.27"
                style="fill:#24244e;opacity:0.30000001192092896;isolation:isolate"/>
        <circle cx="1260.83" cy="324.9" r="2.48" style="fill:#24244e"/>
        <circle cx="1035.62" cy="123.89" r="4.36" style="fill:#24244e"/>
        <circle cx="1088.98" cy="207.52" r="4.97" style="fill:#24244e"/>
        <circle cx="962.76" cy="92.2" r="3.27" style="fill:#24244e"/>
        <circle cx="934.26" cy="225.57" r="3.27" style="fill:#24244e"/>
        <circle cx="1008.34" cy="370.07" r="4.36" style="fill:#24244e"/>
        <circle cx="1075.35" cy="308.37" r="3.27" style="fill:#24244e"/>
        <circle cx="1290.67" cy="398.89" r="4.07"
                style="fill:#24244e;opacity:0.46000000834465027;isolation:isolate"/>
        <circle cx="1380.87" cy="301.26" r="3.93" style="fill:#24244e"/>
        <circle cx="1386.42" cy="393.46" r="2.32" style="fill:#24244e"/>
        <circle cx="1367.47" cy="199.82" r="4.65" style="fill:#24244e"/>
        <circle cx="1286.99" cy="250.56" r="3.06" style="fill:#24244e"/>
        <circle cx="1580.13" cy="1329.84" r="5.32" style="fill:#24244e"/>
        <circle cx="1683.92" cy="1291.81" r="4.36" style="fill:#24244e"/>
        <circle cx="1665.76" cy="1150.8" r="4.2" style="fill:#24244e"/>
        <circle cx="1920.44" cy="1159.28" r="4.2" style="fill:#24244e"/>
        <circle cx="1488.39" cy="1135.16" r="3.27" style="fill:#24244e"/>
        <circle cx="1750.37" cy="1335.38" r="3.27" style="fill:#24244e"/>
        <circle cx="1745.19" cy="1209.54" r="2.48" style="fill:#24244e"/>
        <circle cx="1519.98" cy="1008.52" r="4.36" style="fill:#24244e"/>
        <circle cx="1573.35" cy="1092.15" r="4.97" style="fill:#24244e"/>
        <circle cx="1447.13" cy="976.83" r="3.27" style="fill:#24244e"/>
        <circle cx="1418.62" cy="1110.2" r="3.27" style="fill:#24244e"/>
        <circle cx="1492.71" cy="1254.71" r="4.36" style="fill:#24244e"/>
        <circle cx="1559.72" cy="1193" r="3.27" style="fill:#24244e"/>
        <circle cx="1775.04" cy="1283.53" r="4.07" style="fill:#24244e"/>
        <circle cx="1865.24" cy="1185.9" r="3.93" style="fill:#24244e"/>
        <circle cx="1870.78" cy="1278.09" r="2.32" style="fill:#24244e"/>
        <circle cx="1851.83" cy="1084.45" r="4.65" style="fill:#24244e"/>
        <circle cx="1771.35" cy="1135.19" r="3.06" style="fill:#24244e"/>
        <circle cx="1580.13" cy="1034.96" r="5.32" style="fill:#24244e"/>
        <circle cx="1683.92" cy="996.93" r="4.36" style="fill:#24244e"/>
        <circle cx="1665.76" cy="855.92" r="4.2" style="fill:#24244e"/>
        <circle cx="1920.44" cy="864.41" r="4.2" style="fill:#24244e"/>
        <circle cx="1488.39" cy="840.28" r="3.27" style="fill:#24244e"/>
        <circle cx="1750.37" cy="1040.5" r="3.27" style="fill:#24244e"/>
        <circle cx="1745.19" cy="914.66" r="2.48" style="fill:#24244e"/>
        <circle cx="1519.98" cy="713.65" r="4.36" style="fill:#24244e"/>
        <circle cx="1573.35" cy="797.27" r="4.97" style="fill:#24244e"/>
        <circle cx="1447.13" cy="681.95" r="3.27" style="fill:#24244e"/>
        <circle cx="1418.62" cy="815.32" r="3.27" style="fill:#24244e"/>
        <circle cx="1492.71" cy="959.83" r="4.36" style="fill:#24244e"/>
        <circle cx="1559.72" cy="898.12" r="3.27" style="fill:#24244e"/>
        <circle cx="1775.04" cy="988.65" r="4.07" style="fill:#24244e"/>
        <circle cx="1865.24" cy="891.02" r="3.93" style="fill:#24244e"/>
        <circle cx="1870.78" cy="983.21" r="2.32" style="fill:#24244e"/>
        <circle cx="1851.83" cy="789.57" r="4.65" style="fill:#24244e"/>
        <circle cx="1771.35" cy="840.32" r="3.06" style="fill:#24244e"/>
        <circle cx="1580.13" cy="740.09" r="5.32" style="fill:#24244e"/>
        <circle cx="1683.92" cy="702.06" r="4.36" style="fill:#24244e"/>
        <circle cx="1665.76" cy="561.04" r="4.2" style="fill:#24244e"/>
        <circle cx="1920.44" cy="569.53" r="4.2" style="fill:#24244e"/>
        <circle cx="1488.39" cy="545.41" r="3.27" style="fill:#24244e"/>
        <circle cx="1750.37" cy="745.62" r="3.27" style="fill:#24244e"/>
        <circle cx="1745.19" cy="619.78" r="2.48" style="fill:#24244e"/>
        <circle cx="1519.98" cy="418.77" r="4.36"
                style="fill:#24244e;opacity:0.46000000834465027;isolation:isolate"/>
        <circle cx="1573.35" cy="502.39" r="4.97" style="fill:#24244e"/>
        <circle cx="1447.13" cy="387.07" r="3.27" style="fill:#24244e"/>
        <circle cx="1418.62" cy="520.45" r="3.27" style="fill:#24244e"/>
        <circle cx="1492.71" cy="664.95" r="4.36" style="fill:#24244e"/>
        <circle cx="1559.72" cy="603.25" r="3.27" style="fill:#24244e"/>
        <circle cx="1775.04" cy="693.77" r="4.07" style="fill:#24244e"/>
        <circle cx="1865.24" cy="596.14" r="3.93" style="fill:#24244e"/>
        <circle cx="1870.78" cy="688.33" r="2.32" style="fill:#24244e"/>
        <circle cx="1851.83" cy="494.69" r="4.65" style="fill:#24244e"/>
        <circle cx="1771.35" cy="545.44" r="3.06" style="fill:#24244e"/>
        <circle cx="1580.13" cy="445.21" r="5.32" style="fill:#24244e"/>
        <circle cx="1683.92" cy="407.18" r="4.36" style="fill:#24244e"/>
        <circle cx="1665.76" cy="266.16" r="4.2" style="fill:#24244e"/>
        <circle cx="1920.44" cy="274.65" r="4.2" style="fill:#24244e"/>
        <circle cx="1488.39" cy="250.53" r="3.27" style="fill:#24244e"/>
        <circle cx="1750.37" cy="450.74" r="3.27" style="fill:#24244e"/>
        <circle cx="1745.19" cy="324.9" r="2.48" style="fill:#24244e"/>
        <circle cx="1519.98" cy="123.89" r="4.36" style="fill:#24244e"/>
        <circle cx="1573.35" cy="207.52" r="4.97" style="fill:#24244e"/>
        <circle cx="1447.13" cy="92.2" r="3.27" style="fill:#24244e"/>
        <circle cx="1418.62" cy="225.57" r="3.27" style="fill:#24244e"/>
        <circle cx="1492.71" cy="370.07" r="4.36" style="fill:#24244e"/>
        <circle cx="1559.72" cy="308.37" r="3.27" style="fill:#24244e"/>
        <circle cx="1775.04" cy="398.89" r="4.07" style="fill:#24244e"/>
        <circle cx="1865.24" cy="301.26" r="3.93" style="fill:#24244e"/>
        <circle cx="1870.78" cy="393.46" r="2.32" style="fill:#24244e"/>
        <circle cx="1851.83" cy="199.82" r="4.65" style="fill:#24244e"/>
        <circle cx="1771.35" cy="250.56" r="3.06" style="fill:#24244e"/>
        <circle cx="1087.33" cy="753.22" r="5.32" style="fill:#24244e"/>
        <circle cx="1191.12" cy="715.19" r="4.36" style="fill:#24244e"/>
        <circle cx="1172.96" cy="574.18" r="4.2" style="fill:#24244e"/>
        <circle cx="1427.64" cy="582.66" r="4.2" style="fill:#24244e"/>
        <circle cx="995.59" cy="558.54" r="3.27" style="fill:#24244e"/>
        <circle cx="1257.56" cy="758.76" r="3.27" style="fill:#24244e"/>
        <circle cx="1252.39" cy="632.92" r="2.48" style="fill:#24244e"/>
        <circle cx="1027.18" cy="431.9" r="4.36" style="fill:#24244e"/>
        <circle cx="1080.54" cy="515.53" r="4.97" style="fill:#24244e"/>
        <circle cx="954.32" cy="400.21" r="3.27" style="fill:#24244e"/>
        <circle cx="925.82" cy="533.58" r="3.27" style="fill:#24244e"/>
        <circle cx="999.9" cy="678.09" r="4.36" style="fill:#24244e"/>
        <circle cx="1066.91" cy="616.38" r="3.27" style="fill:#24244e"/>
        <circle cx="1282.23" cy="706.91" r="4.07" style="fill:#24244e"/>
        <circle cx="1372.43" cy="609.28" r="3.93" style="fill:#24244e"/>
        <circle cx="1377.98" cy="701.47" r="2.32" style="fill:#24244e"/>
        <circle cx="1359.03" cy="507.83" r="4.65" style="fill:#24244e"/>
        <circle cx="1278.55" cy="558.57" r="3.06" style="fill:#24244e"/>
        <circle cx="1739.53" cy="186.3" r="4.2" style="fill:#24244e"/>
        <circle cx="1563.43" cy="16.23" r="3.27" style="fill:#24244e"/>
        <circle cx="1689.27" cy="11.05" r="2.48" style="fill:#24244e"/>
        <circle cx="1615.28" cy="40.89" r="4.07" style="fill:#24244e"/>
        <circle cx="1712.91" cy="131.09" r="3.93" style="fill:#24244e"/>
        <circle cx="1620.72" cy="136.64" r="2.32" style="fill:#24244e"/>
        <circle cx="1814.36" cy="117.69" r="4.65" style="fill:#24244e"/>
        <circle cx="1763.62" cy="37.21" r="3.06" style="fill:#24244e"/>
    </g>
</svg>