<svg version="1.1" id="Layer_1" xmlns="http://www.w3.org/2000/svg" xmlns:xlink="http://www.w3.org/1999/xlink" x="0px" y="0px"
     viewBox="0 0 1271.4 391" style="enable-background:new 0 0 1271.4 391;" xml:space="preserve">
<path style="fill:#FFFFFF" d="M212.9,391c-6.6,0-12.6-2.8-16.8-7.4c-4.2,4.5-10.1,7.4-16.8,7.4c-11.5,0-21.1-8.6-22.6-19.7
	c-92.5-18.1-160.4-98-156.6-187v0.6v-90c0-6.1,2.4-11.8,6.7-16.1c4.2-4.2,9.9-6.6,16-6.6c6,0,11.6,2.3,15.8,6.5
	C75.6,29.7,133.9,0,194.9,0h2.4c61,0,119.3,29.7,156.3,78.7c4.3-4.2,9.9-6.5,15.9-6.5s11.7,2.4,16,6.6c4.3,4.3,6.6,9.9,6.6,16v90
	c3.5,88.8-64.3,168.3-156.6,186.5C234,382.4,224.4,391,212.9,391"/>
<path style="fill:#00A6F0" d="M115.2,137.8c-0.5,0-1.1-0.1-1.6-0.1c0.2,2.8,2.8,5.5,5.3,7.8c3.1,2.9,5.1,5.7,5,10.4l0,0c0,7-6,12-12.6,12.1
	l0,0c-6.7,0-12.1-5.8-12.1-12.2v-0.2c0-4.8,2.6-7.6,4.9-9.9c2.5-2.5,5-4.4,5.1-8C79.8,139,56.4,163.3,56.6,193
	c0.2,30.4,25,54.8,55.4,54.6c30.4-0.2,54.8-25,54.6-55.4C166.4,163.2,143.7,139.6,115.2,137.8"/>
<path d="M196.1,241.6c-1.8,0-3.6,1-4.5,2.7c-14.4,26.7-42.7,44-73.4,44h-0.5c-22.4-0.2-43.2-9-58.9-24.8
	c-15.6-15.7-24-36.5-24.1-58.5v-0.4l-0.1-0.2h0.2c0.3-45.7,37.7-82.9,83.4-82.8h0.5c30.5,0.2,58.6,17.5,72.9,44l1.9,3.5
	c-6.2,7.7-9.8,16.6-9.8,25.9v0.5c0.1,10.1,4.3,19.5,11.4,27.7l0.9,0.4l0,0l0.9-0.4c7.1-8.2,11.3-17.6,11.4-27.7V195
	c0-9.4-3.6-18.2-9.8-25.9l1.9-3.5c14.3-26.5,42.3-43.9,72.9-44h0.6c45.6-0.1,83.1,37.1,83.3,82.8h0.2l-0.1,0.2v0.4
	c-0.1,22.1-8.5,42.8-24,58.5c-15.7,15.9-36.5,24.6-58.9,24.8H274c-30.7,0-59-17.3-73.4-44C199.8,242.7,198,241.6,196.1,241.6
	L196.1,241.6z M196.1,360h2.3c2.3,0,4.5-0.1,6.8-0.2v8.5c0,4.3,3.4,7.7,7.7,7.7c4.3,0,7.7-3.4,7.7-7.7v-9.8
	c85.8-11.3,160.3-83,156.4-173.5V94.9c0-1.9-0.7-3.9-2.2-5.3c-1.5-1.5-3.4-2.2-5.3-2.2s-3.9,0.7-5.4,2.2l-12.7,12.7
	c-32.3-52.4-91.1-87.5-155.3-87.1C131.9,14.8,73,49.9,40.8,102.3L28.1,89.5c-1.5-1.5-3.4-2.2-5.4-2.2c-1.9,0-3.8,0.7-5.3,2.2
	s-2.2,3.4-2.2,5.3V185c-3.8,90.6,70.6,162.3,156.4,173.5v9.8c0,4.3,3.4,7.7,7.7,7.7c4.3,0,7.7-3.4,7.7-7.7v-8.5
	c2.3,0.1,4.5,0.2,6.8,0.2H196.1z"/>
<path style="fill:#00608B" d="M118.9,145.5c3.1,2.9,5.1,5.7,5,10.4l0,0c0,7-6,12-12.6,12.1l0,0c-6.7,0-12.1-5.8-12.1-12.2v-0.2
	c0-4.8,2.6-7.6,4.9-9.9c2.5-2.5,5-4.4,5.1-8C89.4,139,73.8,155.4,74,175.4c0.1,20.8,17.1,37.5,37.8,37.3
	c20.7-0.1,37.5-17.1,37.3-37.8c-0.1-19.4-15-35.3-33.9-37.1c-0.5,0-1.1-0.1-1.6-0.1C113.8,140.5,116.4,143.2,118.9,145.5"/>
<path style="fill:#FF0000" d="M277,137.8c0.5,0,1.1-0.1,1.6-0.1c-0.2,2.8-2.8,5.5-5.3,7.8c-3.1,2.9-5.1,5.7-5,10.4l0,0c0,7,6,12,12.6,12.1
	l0,0c6.7,0,12.1-5.8,12.1-12.2v-0.2c0-4.8-2.6-7.6-4.9-9.9c-2.5-2.5-5-4.4-5.1-8c29.4,1.3,52.8,25.5,52.6,55.2
	c-0.2,30.4-25,54.8-55.4,54.6c-30.4-0.2-54.8-25-54.6-55.4C225.9,163.2,248.5,139.6,277,137.8"/>
<path style="fill:#AD0000" d="M273.3,145.5c-3.1,2.9-5.1,5.7-5,10.4l0,0c0,7,6,12,12.6,12.1l0,0c6.7,0,12.1-5.8,12.1-12.2v-0.2
	c0-4.8-2.6-7.6-4.9-9.9c-2.5-2.5-5-4.4-5.1-8c19.7,1.2,35.3,17.7,35.2,37.7c-0.1,20.8-17.1,37.5-37.8,37.3
	c-20.7-0.1-37.5-17.1-37.3-37.8c0.1-19.4,15-35.3,33.9-37.1c0.5,0,1.1-0.1,1.6-0.1C278.5,140.5,275.8,143.2,273.3,145.5"/>
<path style="fill:#FFFFFF" d="M505.5,163.7c0-6.4,5-11.5,11.4-11.5c6.4,0,11.4,5,11.4,11.5v69c0,31.7,25.6,57.5,57,57.5
	c31.5,0,57-25.8,57-57.5v-69c0-6.4,5-11.5,11.4-11.5c6.4,0,11.4,5,11.4,11.5v137.9c0,6.4-5,11.5-11.4,11.5
	c-6.4,0-11.4-5.1-11.4-11.5v-12.4c-14.6,14.7-34.7,23.9-57,23.9c-44.2,0-79.8-35.9-79.8-80.4V163.7L505.5,163.7z"/>
<path style="fill:#FFFFFF" d="M714.5,248.7V87.8c0-6.4,5-11.5,11.4-11.5c6.4,0,11.4,5,11.4,11.5v160.9c0,36.8,17.3,41.4,38.8,41.4
	c6.4,0,11.4,5,11.4,11.5c0,6.4-5,11.5-11.4,11.5C749.6,313.1,714.5,306.2,714.5,248.7"/>
<path style="fill:#FFFFFF" d="M811.3,163.7c0-6.4,5-11.5,11.4-11.5c6.4,0,11.4,5,11.4,11.5v69c0,31.7,25.5,57.5,57,57.5s57-25.8,57-57.5v-69
	c0-6.4,5-11.5,11.4-11.5s11.4,5,11.4,11.5v137.9c0,6.4-5,11.5-11.4,11.5s-11.4-5.1-11.4-11.5v-12.4c-14.6,14.7-34.7,23.9-57,23.9
	c-44.2,0-79.8-35.9-79.8-80.4V163.7L811.3,163.7z"/>
<path style="fill:#FFFFFF" d="M1020.2,248.7V87.8c0-6.4,5-11.5,11.4-11.5c6.4,0,11.4,5,11.4,11.5v160.9c0,36.8,17.4,41.4,38.8,41.4
	c6.4,0,11.4,5,11.4,11.5c0,6.4-5,11.5-11.4,11.5C1055.3,313.1,1020.2,306.2,1020.2,248.7"/>
<path style="fill:#FFFFFF" d="M1135.5,221.6h112.2c-5-26.2-28.3-46.4-56.1-46.4C1163.8,175.2,1140.5,195.4,1135.5,221.6 M1135.5,243.7
	c5,26.6,28.3,46.4,56.1,46.4c16,0,30.1-6,40.6-16.5c4.6-4.6,11.4-4.6,16,0c4.6,4.6,4.6,11.5,0,16.1c-14.6,14.7-34.2,23.5-56.6,23.5
	c-44.3,0-79.8-35.9-79.8-80.4c0-44.6,35.6-80.4,79.8-80.4c44.2,0,79.8,35.8,79.8,80.4c0,6.4-5,11-11.4,11L1135.5,243.7L1135.5,243.7
	z"/>
</svg>
