<?xml version="1.0" encoding="utf-8"?>
<!-- Generator: Adobe Illustrator 23.0.2, SVG Export Plug-In . SVG Version: 6.00 Build 0)  -->
<svg version="1.1" id="Calque_1" xmlns="http://www.w3.org/2000/svg" xmlns:xlink="http://www.w3.org/1999/xlink" x="0px" y="0px"
	 viewBox="0 0 1440 304.3" style="enable-background:new 0 0 1440 304.3;" xml:space="preserve">
<style type="text/css">
	.st0{fill:#FFFFFF;}
	.st1{fill:#FF0068;}
</style>
<path class="st0" d="M0,0v304.3c0,0,74.3-54.5,181.2-107.6c153.6-76.4,299.2-123.2,538.4-54.3C1023.8,229.9,1286.2,221.8,1440,0H0z"
	/>
<rect x="30.2" y="-225.9" class="st0" width="100" height="50"/>
<path class="st0" d="M30.2-175.9c0-27.6,22.4-50,50-50s50,22.4,50,50H30.2z"/>
<g>
	<g>
		<path class="st1" d="M83.2-213.9c0.4,0,0.7-0.3,0.7-0.7v-2.1c0-0.4-0.3-0.7-0.7-0.7c-0.2,0-0.4,0.1-0.5,0.2
			c-0.1,0.1-0.2,0.3-0.2,0.5v2.1C82.5-214.2,82.8-213.9,83.2-213.9z"/>
	</g>
	<path class="st1" d="M80.3-213.9c0.4,0,0.7-0.3,0.7-0.7l0-7c0-0.4-0.3-0.7-0.7-0.7c-0.2,0-0.4,0.1-0.5,0.2
		c-0.1,0.1-0.2,0.3-0.2,0.5l0,7C79.5-214.2,79.9-213.9,80.3-213.9z"/>
	<g>
		<path class="st1" d="M77.3-213.9c0.4,0,0.7-0.3,0.7-0.7v-3.5c0-0.4-0.3-0.7-0.7-0.7c-0.2,0-0.4,0.1-0.5,0.2
			c-0.1,0.1-0.2,0.3-0.2,0.5l0,3.5C76.6-214.2,76.9-213.9,77.3-213.9z"/>
	</g>
	<g>
		<path class="st1" d="M80.3-191.6c1.2,0,2.3-0.5,3.2-1.3c0.8-0.8,1.3-2,1.3-3.2c0-1.2-0.5-2.3-1.3-3.2c-0.8-0.8-2-1.3-3.2-1.3
			c-1.2,0-2.3,0.5-3.2,1.3c-0.8,0.8-1.3,2-1.3,3.2C75.8-193.6,77.8-191.6,80.3-191.6z M77.2-196.1c0-0.8,0.3-1.6,0.9-2.1
			c0.6-0.6,1.3-0.9,2.1-0.9c0.8,0,1.6,0.3,2.1,0.9c0.6,0.6,0.9,1.3,0.9,2.1c0,0.8-0.3,1.6-0.9,2.1c-0.6,0.6-1.3,0.9-2.1,0.9
			C78.6-193.1,77.2-194.4,77.2-196.1z"/>
	</g>
	<g>
		<path class="st1" d="M79.9-181.1c0.2,0.1,0.5,0.1,0.7,0c2.2-1.3,4.1-3.1,5.4-5.3c0.2-0.3,0.4-0.7,0.6-1.1c0,0,0-0.1,0-0.1
			c0.9-2,1.4-4.2,1.4-6.4c0,0,0,0,0,0c0,0,0,0,0,0c0,0,0,0,0,0c0,0,0,0,0,0l-0.3-3.4c2.5-2.4,3.9-5.8,3.9-9.3c0-1.1-0.1-2.3-0.4-3.3
			c-0.1-0.2-0.2-0.4-0.4-0.5c-0.2-0.1-0.4-0.1-0.6,0l-3.6,2.1l-1-2.1c-0.5-1-1.5-1.7-2.6-1.7h-5.6c-0.8,0-1.5,0.3-2,0.9
			c-0.2,0.2-0.4,0.5-0.6,0.8l-1,2.1l-3.6-2.1c-0.2-0.1-0.4-0.1-0.6,0c-0.1,0-0.2,0.1-0.2,0.2c-0.1,0.1-0.2,0.2-0.2,0.3
			c-0.3,1.1-0.4,2.2-0.4,3.3c0,3.5,1.4,6.9,3.9,9.3l-0.3,3.4c0,0,0,0,0,0c0,0,0,0,0,0c0,0,0,0,0,0c0,0,0,0,0,0
			c0,2.2,0.5,4.4,1.4,6.4c0,0,0,0.1,0,0.1c0.2,0.4,0.4,0.7,0.6,1.1C75.8-184.3,77.7-182.4,79.9-181.1z M90.1-208.8
			c0.1,0.7,0.2,1.3,0.2,2c0,2.7-0.9,5.3-2.6,7.3l-0.6-7.6L90.1-208.8z M84.4-209.9l0.8,1.8h-1.3l-0.6-2.6
			C83.7-210.6,84.1-210.3,84.4-209.9z M81.8-210.7l0.6,2.6l-1.4,0l0-2.6L81.8-210.7z M79.5-210.7l0,2.6h-1.4l0.6-2.6H79.5z
			 M76.1-209.9c0.2-0.4,0.6-0.8,1.1-0.8l-0.6,2.6h-1.3L76.1-209.9z M70.3-206.7c0-0.7,0.1-1.4,0.2-2l3,1.8l-0.6,7.6
			C71.2-201.5,70.3-204.1,70.3-206.7z M73.9-194l1-12.7l10.8,0l0.7,9c0,0,0,0,0,0l0.3,3.7c0,1.9-0.4,3.7-1.1,5.4l-10.4,0
			C74.3-190.3,73.9-192.1,73.9-194z M75.8-187.2l8.9,0c-1.1,1.9-2.6,3.4-4.5,4.6C78.4-183.7,76.9-185.3,75.8-187.2z"/>
	</g>
</g>
</svg>
